<?xml version="1.0" standalone="no"?>
<!DOCTYPE svg PUBLIC "-//W3C//DTD SVG 1.1//EN" "http://www.w3.org/Graphics/SVG/1.1/DTD/svg11.dtd" >
<svg xmlns="http://www.w3.org/2000/svg">
<metadata>
This is a custom SVG webfont generated by Font Squirrel.
Designer    : Friedrich Althausen
Foundry     : Friedrich Althausen
Foundry URL : httpfriedrichalthausende
</metadata>
<defs>
<font id="webfontNWDnMVvY" horiz-adv-x="1011" >
<font-face units-per-em="4096" ascent="3072" descent="-1024" />
<missing-glyph horiz-adv-x="737" />
<glyph unicode=" "  horiz-adv-x="737" />
<glyph unicode="&#x09;" horiz-adv-x="737" />
<glyph unicode="&#xa0;" horiz-adv-x="737" />
<glyph unicode="!" horiz-adv-x="1122" d="M1130 2712l-102 -373l-117 -449l-118 -485q-58 -244 -109 -483q-28 -3 -53 -3q-74 0 -127 27q35 270 61 533q25 246 45 467q21 220 33 428l25 415q93 21 217 60q125 40 192 76q58 -21 70 -68q3 -13 3 -31q0 -43 -20 -114zM664 168q-21 -96 -76 -148q-56 -53 -146 -53 q-111 0 -168 72q-39 50 -39 122q0 32 7 68q16 82 80 138q62 55 149 55q94 0 154 -72q44 -53 44 -127q0 -26 -5 -55z" />
<glyph unicode="&#x22;" horiz-adv-x="1368" d="M913 2740l-98 -330q-56 -199 -119 -456q-47 0 -90 8q-37 7 -78 33q37 247 58 428q25 218 32 416q52 7 121 32q63 22 113 54q45 -21 63 -68q19 -49 -2 -117zM1470 2740l-98 -330q-56 -199 -119 -456q-47 0 -90 8q-37 7 -78 33q37 247 58 428q26 231 33 416q50 7 120 32 q63 22 113 54q46 -21 64 -68q8 -21 8 -48q0 -32 -11 -69z" />
<glyph unicode="#" horiz-adv-x="2318" d="M1720 1077h447q0 -115 -49 -200h-439l-192 -910q-107 17 -180 90l176 820h-656l-192 -910q-131 21 -176 107l168 798q-116 -4 -246 -4q-126 0 -221 -4q0 108 49 213h463l155 733q-93 0 -243 -2q-112 -2 -207 -6q0 49 10 103q11 58 39 110h446l193 910q123 -16 176 -91 l-172 -819h655l193 910q118 -24 176 -82l-176 -828h422q0 -123 -49 -200h-414zM1024 1815l-156 -738h656l155 738h-655z" />
<glyph unicode="$" horiz-adv-x="1884" d="M1372 2798q159 -21 283 -68q119 -45 205 -117q-21 -139 -33 -264t-12 -264q-70 -28 -148 -28q-38 0 -78 7q-8 254 -73 375q-65 120 -185 158l-108 -520q-62 -303 -97 -496l246 -176q123 -90 215 -203q93 -115 139 -252q28 -84 28 -182q0 -67 -13 -141q-24 -149 -105 -275 q-80 -124 -198 -209q-121 -87 -275 -133q-158 -47 -336 -47l-61 -344q-58 5 -109 21t-84 57l54 278q-207 28 -355 103q-146 74 -264 180q46 147 78 287q34 147 41 282q51 22 111 23q63 2 110 -14q-5 -67 -5 -126q0 -205 56 -327q72 -158 269 -203l204 1073q-105 74 -219 164 q-107 85 -186 197q-77 110 -115 250q-20 73 -20 160q0 77 16 167q45 276 258 439q214 164 561 176l50 258q59 0 110 -17q49 -16 86 -61zM1130 2613q-173 -12 -280 -106q-108 -95 -141 -291q-6 -41 -6 -79q0 -115 55 -204q75 -120 200 -225zM864 160q186 0 316 108 q130 107 163 289q8 49 8 94t-8 86q-17 86 -59 152q-44 70 -106 129q-56 54 -138 117z" />
<glyph unicode="%" horiz-adv-x="2805" d="M2507 2806q118 -61 139 -168l-567 -692l-510 -629l-506 -637l-555 -717q-47 23 -84 66q-36 42 -43 94zM1028 2773q283 0 418 -203q91 -137 91 -334q0 -95 -21 -204q-53 -254 -220 -408q-168 -154 -387 -154q-144 0 -258 54q-111 52 -178 151q-68 99 -90 238q-9 58 -9 120 q0 89 19 187q49 250 223 401q175 152 412 152zM987 2601q-106 0 -190 -100t-117 -269q-21 -112 -21 -206q0 -129 39 -222q68 -162 232 -162q101 0 184 101q82 100 115 272q23 116 23 213q0 124 -38 213q-68 160 -227 160zM2093 1266q283 0 418 -203q91 -136 91 -333 q0 -96 -22 -206q-53 -254 -219 -407q-168 -154 -387 -154q-146 0 -258 53q-110 52 -178 152q-68 99 -90 238q-9 58 -9 120q0 89 19 187q49 250 223 401q175 152 412 152zM2052 1094q-106 0 -190 -101t-117 -268q-21 -112 -21 -206q0 -129 39 -222q67 -162 232 -162 q101 0 184 101q82 100 115 272q23 116 23 213q0 124 -38 213q-68 160 -227 160z" />
<glyph unicode="&#x26;" horiz-adv-x="2904" d="M2527 360q76 -42 115 -122q-74 -128 -178 -201q-106 -74 -248 -74q-49 0 -102 8q-46 7 -101 33q-44 20 -110 72q-60 47 -134 125q-199 -115 -403 -176q-209 -62 -416 -62q-269 0 -444 74q-174 73 -270 192q-97 119 -119 275q-10 69 -10 138q0 88 16 177q29 163 96 291 q64 121 160 225q87 94 203 174q109 75 229 142q-98 228 -115 407q-6 62 -6 124q0 112 19 226q17 100 67 193q50 92 144 168q94 75 225 121q135 47 313 47q162 0 275 -43q116 -44 184 -117q70 -75 94 -168q13 -53 13 -106q0 -45 -9 -90q-34 -173 -108 -283 q-79 -118 -181 -201q-109 -89 -231 -149l-258 -125q66 -123 145 -248l191 -297l219 -324l170 -229q95 107 162 229q68 123 96 267q23 120 23 208q0 23 -2 44q-7 97 -46 161q-38 62 -102 88q-65 26 -151 31q-26 55 -26 121q0 15 1 31q51 7 115 26q47 14 120 43q51 21 113 54 q54 29 86 57q172 -66 215 -227q20 -76 20 -172q0 -109 -26 -244q-45 -250 -174 -463q-130 -214 -313 -381q102 -109 157 -137q62 -31 109 -31q49 0 94 21q46 21 94 77zM1036 2417q-11 -57 -11 -121q0 -58 9 -123q18 -133 117 -342q186 101 332 231q144 129 184 334 q10 58 10 106q0 106 -49 167q-72 88 -223 88q-155 0 -250 -97t-119 -243zM1024 168q171 0 332 41q157 40 303 119q-82 102 -182 239l-232 326q-131 193 -201 311q-86 145 -151 266q-156 -102 -268 -247q-114 -147 -154 -379q-12 -70 -12 -135t12 -127q24 -122 94 -215 t185 -146t274 -53z" />
<glyph unicode="'" horiz-adv-x="811" d="M913 2740l-98 -330q-56 -199 -119 -456q-47 0 -90 8q-37 7 -78 33q37 247 58 428q25 218 32 416q52 7 121 32q63 22 113 54q45 -21 63 -68q9 -23 9 -51q0 -31 -11 -66z" />
<glyph unicode="(" horiz-adv-x="1220" d="M1450 2986q-178 -189 -315 -391q-134 -197 -240 -422q-104 -221 -178 -477q-73 -254 -123 -549q-89 -515 -89 -959q0 -729 240 -1269q-39 -32 -101 -32q-18 0 -38 3q-283 490 -379 1051q-47 273 -47 545q0 290 53 579q49 273 129 520q78 243 209 481q131 239 308 474 q180 239 424 495q16 2 31 2q75 0 116 -51z" />
<glyph unicode=")" horiz-adv-x="1208" d="M1004 942q-51 -297 -142 -567q-88 -264 -219 -510q-132 -248 -313 -486q-179 -235 -424 -489q-26 -6 -49 -6q-60 0 -99 39q184 228 332 459q144 225 252 468q105 237 184 510q76 263 129 582q77 451 77 836q0 147 -11 284q-40 495 -238 928q52 45 122 45h13 q287 -563 383 -1071q49 -261 49 -521q0 -251 -46 -501z" />
<glyph unicode="*" horiz-adv-x="1867" d="M1434 2720q-61 -127 -109 -258q-48 -132 -100 -295q130 21 282 55q120 27 291 76q25 -54 35 -131q5 -35 5 -68q0 -39 -7 -76q-208 12 -287 15q-101 4 -307 10q63 -122 139 -252q61 -104 160 -252q-46 -46 -113 -74t-137 -36q-28 123 -72 270l-88 291q-98 -98 -194 -207 q-91 -103 -187 -227q-143 73 -184 204l236 152l252 176q-131 66 -258 117l-275 108q33 165 135 238q92 -80 215 -176l244 -185q20 138 31 283q10 133 18 295q23 3 50 3q40 0 87 -7q82 -12 138 -49z" />
<glyph unicode="+" horiz-adv-x="2183" d="M2093 1192q1 -15 1 -29q0 -100 -46 -172h-852l-86 -477l-86 -481q-37 -12 -79 -12q-16 0 -32 2q-59 6 -98 38l176 926q-152 0 -442 -2q-217 -1 -402 -6q-1 14 -1 28q0 111 55 185h831l164 864q56 22 109 22t104 -22l-88 -434l-84 -430h856z" />
<glyph unicode="," horiz-adv-x="864" d="M442 422q71 -42 93 -135q9 -38 9 -86q0 -72 -20 -168q-38 -200 -180 -404q-145 -209 -348 -370q-50 0 -84 24q-33 23 -55 62q104 96 198 215q89 113 123 211q18 52 18 97q0 40 -14 75q-30 73 -157 106q0 63 16 137q16 76 45 121q83 7 190 41q103 32 166 74z" />
<glyph unicode="-" horiz-adv-x="1404" d="M1323 1225q-5 -93 -16 -150q-11 -55 -37 -117q-110 0 -492 -2q-222 -1 -643 -10q7 92 23 158q16 68 47 121h1118z" />
<glyph unicode="." horiz-adv-x="765" d="M451 168q-21 -96 -76 -148q-56 -53 -146 -53q-111 0 -168 72q-39 50 -39 122q0 32 7 68q16 82 80 138q62 55 149 55q94 0 154 -72q44 -53 44 -127q0 -26 -5 -55z" />
<glyph unicode="/" horiz-adv-x="1179" d="M1360 2937q61 -21 98 -49t66 -74l-768 -1417l-736 -1434q-61 16 -98 43q-35 25 -65 80z" />
<glyph unicode="0" horiz-adv-x="2424" d="M1364 2085q250 0 444 -82q196 -83 316 -231t164 -357q20 -95 20 -199q0 -122 -27 -258q-45 -222 -149 -403t-256 -315q-151 -133 -342 -205q-190 -72 -404 -72q-257 0 -456 86q-198 86 -324 240q-125 154 -170 368q-22 103 -22 218q0 124 26 260q40 210 150 387 q109 175 264 299q158 126 350 194q198 70 416 70zM1286 1888q-280 0 -465 -188q-186 -189 -243 -508q-29 -150 -29 -283q0 -71 8 -137q24 -188 105 -328q80 -137 212 -213q131 -75 314 -75q243 0 428 178q186 178 264 555q26 142 26 269q0 70 -8 136q-23 186 -100 318 t-209 205q-129 71 -303 71z" />
<glyph unicode="1" horiz-adv-x="1298" d="M573 1528q17 86 17 146q0 86 -35 124q-59 65 -227 86q-10 54 -11 84q-1 37 7 92q225 -12 483 -12q254 0 500 12q-3 -36 -11 -92q-6 -46 -26 -84q-79 -12 -131 -33q-55 -22 -88 -59q-37 -42 -60 -102q-25 -65 -41 -162l-192 -1008q-19 -97 -19 -161v-9q1 -62 29 -102 q27 -38 84 -55q60 -17 147 -29q13 -52 13 -109q0 -33 -4 -67q-246 12 -496 12q-76 0 -250 -2q-114 -1 -237 -10q0 105 32 176q82 7 136 26q53 18 88 58q35 39 57 102q21 59 43 170z" />
<glyph unicode="2" horiz-adv-x="1740" d="M1663 1544q-21 -98 -64 -180q-45 -86 -110 -162q-69 -81 -164 -160l-219 -174l-129 -98l-172 -131l-184 -143l-166 -136q99 9 155 9h156q96 0 192 -7q82 -6 152 -6q68 0 129 52q59 50 100 210q49 4 103 -4q49 -7 82 -24q-24 -134 -39 -266q-15 -130 -15 -238 q-21 -46 -59 -72t-108 -26q-119 0 -265 6t-358 6q-132 0 -358 -2q-134 -1 -379 -10q-33 54 -33 122q0 24 4 50l225 176l246 188l236 181l198 151q175 130 289 291q112 158 145 323q12 62 12 117q0 118 -55 203q-80 123 -252 123q-159 0 -290 -146q-132 -148 -226 -452 q-103 0 -180 37q82 256 94 532q175 104 344 152q171 49 365 49q319 0 483 -141q126 -109 126 -287q0 -54 -11 -113z" />
<glyph unicode="3" horiz-adv-x="1728" d="M1610 1503q-33 -163 -183 -321q-153 -161 -395 -289q123 -21 223 -82q101 -61 162 -162q62 -102 80 -239q6 -48 6 -100q0 -103 -24 -216q-40 -178 -146 -325q-104 -145 -258 -250q-153 -105 -350 -162t-422 -57q-137 0 -248 28q-112 28 -182 86q5 108 86 152 q57 -33 145 -51q93 -19 220 -19q290 0 497 150t264 420q14 76 14 141q0 47 -7 90q-17 102 -91 180q-71 76 -192 119q-120 43 -297 43q-29 24 -41 70q-12 45 0 94q647 206 737 684q12 62 12 116q0 111 -51 187q-77 115 -243 115q-161 0 -275 -133q-115 -135 -221 -457 q-58 -8 -115 0q-58 8 -102 28q45 118 66 261q20 135 28 272q138 104 309 156q176 53 359 53q169 0 299 -39q132 -39 215 -115q84 -77 117 -184q17 -57 17 -123q0 -57 -13 -121z" />
<glyph unicode="4" horiz-adv-x="1880" d="M1561 348q82 0 131 -61q-36 -66 -58 -135q-26 -79 -37 -152h-327l-115 -627q-179 -12 -324 -73q-44 29 -44 98q0 21 4 45l102 553q-480 -6 -561 -8q-190 -4 -369 -13q-32 37 -43 76q-10 37 -10 96l784 951l760 975q50 0 102 -11t82 -26l-307 -1688h230zM1053 881 q44 242 63 331q27 128 60 234l-185 -246l-282 -364l-195 -244l-203 -244h643z" />
<glyph unicode="5" horiz-adv-x="1654" d="M500 2060q201 -9 342 -10q226 -2 366 -2q139 0 201 68t78 149q23 3 45 3q76 0 143 -32q-32 -104 -49 -231q-16 -125 -24 -252q-45 -74 -148 -74q-161 0 -455 -2q-221 -2 -434 -18l-127 -418q248 -28 451 -119q201 -90 334 -229q132 -138 188 -320q31 -102 31 -215 q0 -84 -17 -174q-38 -200 -141 -360q-107 -166 -260 -281q-156 -117 -358 -180t-437 -63q-116 0 -227 28t-195 86q12 99 82 152q73 -33 162 -51q93 -19 219 -19q140 0 267 45t229 129q103 85 172 199q70 115 98 254q17 84 17 159q0 229 -158 380q-212 203 -653 243 q-70 38 -74 115z" />
<glyph unicode="6" horiz-adv-x="1953" d="M1962 2613q22 -34 22 -84q0 -26 -6 -55q-573 -107 -901 -365q-328 -259 -463 -647q130 90 250 123q118 33 258 33q186 0 332 -64q143 -62 229 -176q87 -114 115 -274q13 -72 13 -151q0 -99 -21 -208q-33 -177 -115 -321q-85 -149 -198 -248q-118 -103 -267 -158t-317 -55 q-222 0 -381 84t-254 238t-119 374q-7 68 -7 142q0 164 36 358q62 321 225 580q162 258 404 448q238 187 538 299q297 110 627 127zM545 1184q-40 -206 -40 -379q0 -23 1 -45q6 -192 61 -326q56 -135 152 -209q95 -73 227 -73q168 0 295 143t172 381q19 106 19 199 q0 184 -76 311q-114 190 -352 190q-143 0 -240 -26q-101 -27 -203 -84z" />
<glyph unicode="7" horiz-adv-x="1654" d="M807 1683q-93 0 -152 -10q-61 -10 -110 -37t-90 -80q-42 -54 -82 -139q-112 0 -164 49q48 130 88 293q37 148 59 301q85 -4 187 -6l198 -4q132 -2 189 -2h164h137q41 0 131 2q17 0 68.5 1.5t82.5 2.5q84 2 195 6q50 -38 57 -131l-370 -538l-252 -375q-109 -166 -164 -262 l-111 -197q-56 -105 -94 -211q-34 -95 -63 -221q-26 -113 -43 -256q-18 -151 -29 -311q-79 -39 -174 -115q-92 -74 -141 -139q-37 7 -76 57q-39 49 -39 188q0 151 51 324q52 174 184 414q132 239 363 577l582 819h-582z" />
<glyph unicode="8" horiz-adv-x="1847" d="M1831 2007q-21 -101 -74 -186q-53 -84 -127 -154t-164 -125q-82 -51 -184 -104q274 -229 354 -445q48 -129 48 -274q0 -96 -21 -199q-24 -126 -98 -229q-73 -102 -187 -176t-258 -113q-146 -39 -313 -39q-422 0 -621 187q-147 138 -147 369q0 81 18 173q45 226 211 387 q169 164 465 310q-219 173 -287 340q-42 102 -42 218q0 76 18 158q21 100 84 191q64 93 166 162q103 70 239 110q138 41 310 41q357 0 510 -166q113 -124 113 -304q0 -63 -13 -132zM1135 1548q142 81 225 181q82 99 115 245q15 69 15 128q0 40 -7 75q-16 88 -60 145 q-45 58 -110 86q-69 29 -146 29q-119 0 -223 -76t-137 -219q-12 -74 -12 -141q0 -69 34 -137q35 -70 107 -148q73 -79 199 -168zM1286 496q15 78 15 153q0 23 -1 45q-6 94 -51 185q-46 93 -135 188q-97 103 -233 211q-221 -114 -328 -250q-106 -134 -139 -323 q-18 -95 -18 -171q0 -48 7 -88q18 -106 76 -176q57 -68 148 -102q90 -33 209 -33q172 0 294 82q123 83 156 279z" />
<glyph unicode="9" horiz-adv-x="1941" d="M1081 2085q225 0 387 -84q163 -84 254 -240q93 -158 115 -377q7 -64 7 -133q0 -166 -38 -362q-67 -341 -231 -619q-167 -283 -408 -491q-244 -210 -546 -334q-304 -124 -646 -141q-28 44 -28 139q561 99 895 373q333 274 485 676q-124 -83 -237 -113q-118 -31 -246 -31 q-393 0 -561 260q-113 175 -113 429q0 124 27 266q33 177 112 321t195 248q114 102 262 158q146 55 315 55zM1430 864q33 192 33 360q0 32 -1 64q-7 190 -59 326q-51 135 -148 209q-95 73 -227 73q-168 0 -291 -145q-123 -146 -168 -403q-22 -110 -22 -209q0 -50 6 -97 q16 -135 70 -239q53 -103 141 -158t199 -55q133 0 231 22t199 80q26 92 37 172z" />
<glyph unicode=":" horiz-adv-x="770" d="M717 1511q-21 -95 -76 -147q-56 -53 -145 -53q-112 0 -168 71q-40 51 -40 125q0 31 7 66q16 81 80 137q62 55 149 55q95 0 154 -71q44 -53 44 -128q0 -26 -5 -55zM475 299q-21 -95 -76 -147q-57 -54 -145 -54q-111 0 -168 72q-40 51 -40 124q0 31 7 66q16 82 80 138 q62 55 150 55q93 0 153 -72q44 -53 44 -127q0 -26 -5 -55z" />
<glyph unicode=";" horiz-adv-x="864" d="M774 1511q-21 -95 -76 -147q-56 -53 -145 -53q-112 0 -168 71q-40 51 -40 125q0 31 7 66q16 81 80 137q62 55 150 55q94 0 153 -71q44 -53 44 -128q0 -26 -5 -55zM442 422q71 -42 93 -135q9 -38 9 -86q0 -72 -20 -168q-38 -200 -180 -404q-145 -209 -348 -370 q-50 0 -84 24q-33 23 -55 62q104 96 198 215q89 113 123 211q18 52 18 97q0 40 -14 75q-30 73 -157 106q0 63 16 137q16 76 45 121q83 7 190 41q103 32 166 74z" />
<glyph unicode="&#x3c;" horiz-adv-x="1781" d="M1561 57q4 -53 -15 -120q-19 -65 -51 -93l-350 310l-328 282l-325 271l-340 276q-4 21 -4 43q0 28 6 57q11 58 55 109l1610 1114q54 -11 100 -43q41 -28 63 -76l-1630 -1122z" />
<glyph unicode="=" horiz-adv-x="2068" d="M2028 1483q-7 -120 -66 -213h-418q-144 0 -448 -2l-455 -4q-161 -1 -436 -7q-1 16 -1 31q0 120 54 195h1770zM1913 807q-7 -120 -66 -213h-417q-145 0 -449 -2l-455 -4q-227 -1 -436 -6q-1 16 -1 31q0 119 54 194h1770z" />
<glyph unicode="&#x3e;" horiz-adv-x="1843" d="M1704 1159q26 -56 27 -119v-9q0 -61 -19 -113l-452 -267l-404 -243l-399 -252l-437 -283q-48 58 -48 138q0 33 8 71l1564 967l-1253 1167q33 41 86 65q57 26 106 33z" />
<glyph unicode="?" horiz-adv-x="1839" d="M659 2748q69 61 230 119q162 58 352 58q308 0 461 -162q113 -120 113 -300q0 -63 -13 -132q-29 -132 -92 -234t-145 -190q-85 -91 -176 -172q-92 -82 -177 -176q-77 -86 -147 -203q-66 -111 -90 -254q-13 -55 -19 -135q-2 -35 -2 -67q0 -43 4 -77q-35 -20 -67 -26 q-30 -6 -68 -6q-54 46 -82 184q-13 66 -13 139q0 83 17 176q40 202 142 344q99 137 209 252l202 221q95 109 119 252q12 63 12 119q0 93 -34 164q-56 115 -215 115q-140 0 -242 -121q-103 -122 -188 -408q-63 0 -105 8q-35 7 -76 33l37 133q16 59 27 113q9 47 16 108 q5 43 10 125zM942 168q-21 -96 -76 -148q-56 -53 -145 -53q-111 0 -168 72q-40 51 -40 124q0 31 7 66q16 82 80 138q62 55 150 55q93 0 153 -72q44 -53 44 -127q0 -26 -5 -55z" />
<glyph unicode="@" horiz-adv-x="3309" d="M1937 602q-59 -118 -139 -227q-86 -117 -178 -205q-98 -94 -205 -150q-108 -57 -223 -57q-206 0 -291 205q-42 101 -42 260q0 167 46 399q50 239 152 437q101 197 248 342q144 142 323 225q177 82 379 82q61 0 121 -10q63 -11 108 -27q57 0 127 8q65 7 107 29 q14 -6 31 -25q13 -15 18 -57q4 -36 -4 -115q-7 -65 -37 -196l-205 -918q-24 -118 -30 -186q-6 -67 2 -103t30 -43q24 -8 56 -8q122 0 233 66q113 67 203 184q93 120 160 289q67 167 100 375q29 165 29 312q0 137 -25 259q-52 250 -201 428q-148 177 -381 268 q-235 92 -536 92q-283 0 -531 -102q-246 -101 -444 -289t-334 -450q-138 -267 -190 -584q-39 -225 -39 -426q0 -152 22 -291q52 -321 213 -555q159 -231 420 -356t604 -125q348 0 639 117q293 118 529 309q89 -16 106 -102q-234 -229 -561 -369q-326 -139 -774 -139 q-393 0 -694 135q-303 136 -488 385q-187 252 -250 598q-29 159 -29 336q0 207 40 438q61 368 225 670q163 301 401 516q238 216 541 334q302 118 647 118q351 0 612 -104q267 -106 433 -299q167 -194 227 -475q29 -137 29 -293q0 -160 -31 -340q-44 -257 -148 -485 q-103 -225 -247 -390q-143 -164 -322 -260q-175 -94 -373 -94q-139 0 -202 68q-64 69 -76 166q-4 33 -4 67q0 68 16 142q23 108 62 196h-5zM2154 1663q-108 41 -249 41q-127 0 -226 -51q-97 -50 -172 -142t-125 -217q-50 -126 -79 -278q-50 -237 -50 -399q0 -77 11 -136 q34 -186 157 -186q53 0 142 74q86 72 182 213q95 141 186 340q94 206 154 454z" />
<glyph unicode="A" horiz-adv-x="2813" d="M541 586q-75 -129 -101 -195q-30 -77 -20 -123q11 -47 55 -69q47 -23 127 -35q13 -67 13 -138q0 -19 -1 -38q-116 9 -190 10q-122 2 -186 2q-81 0 -183 -2q-60 -1 -166 -10q0 38 7 90q6 48 26 86q59 17 103 45t90 80t98 131q65 99 123 198l618 1072l607 1079q35 15 81 20 q40 4 78 4l308 -1122q149 -570 282 -1130q29 -114 53 -183q23 -64 52 -106q28 -40 59 -57q37 -20 78 -31q13 -47 14 -88q1 -17 1 -32q0 -30 -3 -56q-118 9 -231 10q-172 2 -224 2q-67 0 -225 -2q-98 -1 -242 -10q0 38 7 90q6 48 26 86q86 11 146 31q57 18 80 55q24 38 24 96 q0 60 -24 154l-95 397q-290 0 -553 -4q-293 -4 -540 -12zM1757 1085q-49 207 -94 375l-102 371q-35 126 -56 211t-43 219q-61 -127 -114 -227l-123 -232l-193 -358l-201 -359h926z" />
<glyph unicode="B" horiz-adv-x="2420" d="M774 2269q13 80 13 137q0 16 -1 29q-5 64 -34 98q-30 35 -86 50q-52 14 -134 22q-7 44 -12 86q-4 37 4 90q171 -9 242 -10q132 -2 209 -2q148 0 295 6t286 6q430 0 633 -158q154 -120 154 -359q0 -78 -16 -167q-45 -228 -236 -395q-189 -165 -465 -203q393 -21 567 -217 q121 -137 121 -365q0 -102 -24 -221q-66 -316 -348 -506q-281 -190 -742 -190h-258q-91 0 -287 -2l-288 -4q-142 -2 -265 -6q5 103 33 176q93 12 152 35q56 22 94 69q35 44 57 123q18 66 41 195zM1151 1540q332 0 518 141q187 142 232 375q15 77 15 143q0 174 -101 271 q-139 135 -414 135q-46 0 -86 -4q-47 -5 -103 -21l-180 -1040h119zM860 545q-22 -117 -22 -192v-9q2 -74 36 -113q34 -38 105 -49q66 -10 180 -10q268 0 453 139q186 139 231 365q22 111 22 203q0 212 -120 321q-173 156 -643 156h-103z" />
<glyph unicode="C" horiz-adv-x="2519" d="M1819 2806q257 0 460 -60q206 -61 408 -182q-56 -148 -84 -291q-30 -151 -51 -327q-58 -23 -121 -23q-49 0 -100 14q16 122 16 218q0 77 -10 137q-23 137 -88 213q-65 75 -168 104q-104 29 -234 29q-260 0 -473 -101q-211 -100 -362 -272q-153 -174 -246 -405 q-95 -234 -123 -496q-10 -96 -10 -188q0 -129 20 -250q35 -210 135 -367t269 -252q167 -94 409 -94q224 0 430 63q202 62 390 175q58 -58 65 -156q-242 -173 -487 -252q-248 -80 -508 -80q-314 0 -549 107q-234 106 -379 295q-146 190 -201 438q-33 149 -33 312 q0 111 15 228q49 385 209 662q159 276 383 455q222 178 489 262q266 84 529 84z" />
<glyph unicode="D" horiz-adv-x="2969" d="M778 2269q12 72 12 127q0 21 -2 39q-6 64 -36 98q-31 36 -86 52t-134 24q-13 47 -14 88q-2 43 6 84q151 -9 285 -10q204 -2 281 -2q132 0 262 6t254 6q184 0 368 -24q182 -24 348 -86q164 -62 299 -168q137 -108 222 -269q86 -163 110 -387q7 -67 7 -140q0 -174 -40 -384 q-61 -339 -215 -588q-152 -246 -385 -411t-528 -244q-299 -80 -649 -80h-13h-241q-86 0 -266 -2l-269 -4q-134 -2 -252 -6q7 97 33 176q88 12 150 35q58 22 96 67q36 43 59 123q21 73 43 197zM864 545q-20 -109 -20 -185q0 -69 30 -108q29 -37 99 -53q67 -15 186 -15 q248 0 469 62q220 62 391 194q172 133 295 342q123 208 180 508q42 220 42 396q0 130 -23 237q-56 253 -199 404q-145 153 -356 215q-213 63 -455 63q-77 0 -151 -8q-65 -7 -140 -25z" />
<glyph unicode="E" horiz-adv-x="2248" d="M991 1491h168q133 0 217 14q94 16 152 51q62 38 96 103q34 66 51 168q61 9 97 10q43 1 100 -6l-45 -199q-18 -83 -41 -256q-20 -137 -31 -258q-11 -111 -18 -213q-50 7 -105 19q-48 11 -84 34q3 33 3 63q0 154 -72 214q-85 72 -336 72h-185l-122 -721q-21 -130 -21 -209 q0 -77 33 -121q32 -42 102 -57q69 -15 185 -15h16q186 0 311 35q124 35 207 100q86 68 146 164q56 91 122 222q57 -7 103 -29q43 -20 82 -62q-72 -136 -127 -288q-56 -154 -94 -338q-215 9 -373 10q-252 2 -418 2q-219 0 -543 -2q-202 -1 -489 -10q0 95 28 176q93 12 152 35 q57 22 94 67q37 44 58 123q18 66 41 197l294 1683q15 94 15 153v11q-1 59 -27 96q-23 34 -76 49q-51 15 -129 27q-9 47 -10 84q-1 43 6 92q250 -9 394 -10q240 -2 290 -2q152 0 498 2q204 1 580 10q-22 -162 -29 -340q-4 -92 -4 -173.5t4 -153.5q-70 -30 -176 -30 q-14 0 -29 1q-5 134 -22 225q-18 93 -76 156q-57 61 -172 90q-116 29 -312 29h-294z" />
<glyph unicode="F" horiz-adv-x="2113" d="M766 2269q16 92 16 154q0 59 -24 96q-23 37 -80 55q-60 20 -146 31q-13 52 -13 107q0 34 5 69q151 -9 297 -10q222 -2 408 -2q151 0 497 2q204 1 580 10q-22 -162 -29 -340q-4 -92 -4 -173.5t4 -153.5q-70 -30 -175 -30q-14 0 -29 1q-4 127 -23 225q-18 93 -76 156 q-57 61 -172 90q-116 29 -311 29h-295l-201 -1184h197q130 0 217 16q90 16 152 56q62 39 96 104q35 66 51 168q62 9 96 10q44 2 101 -6l-45 -199q-18 -83 -41 -256q-20 -137 -31 -258q-15 -158 -19 -213q-48 6 -104 19q-45 10 -84 35q3 32 3 61q0 154 -73 215 q-85 72 -335 72h-209l-111 -643q-20 -114 -25 -193q-4 -72 25 -117q28 -43 98 -67q71 -25 193 -41q13 -42 14 -80q2 -48 -2 -96q-185 9 -268 10q-150 2 -252 2q-110 0 -274 -2q-100 -1 -263 -10q5 103 33 176q92 17 148 39q58 23 92 63q35 41 53 107t39 168z" />
<glyph unicode="G" horiz-adv-x="2723" d="M1855 2806q321 0 541 -60q225 -61 418 -182q-56 -154 -84 -289q-30 -146 -51 -325q-53 -23 -115 -23q-50 0 -106 15q11 105 11 190q0 99 -15 172q-29 138 -105 211q-78 75 -192 98q-122 25 -269 25q-268 0 -487 -92q-216 -91 -375 -262q-158 -170 -254 -404 q-97 -236 -125 -516q-12 -112 -12 -222.5t12 -217.5q24 -213 115 -385q91 -171 254 -273q164 -102 414 -102q122 0 221 12q95 11 204 53q47 17 76 39t51 64q20 39 37 108q15 60 37 178q34 184 41 285q2 26 2 48q0 71 -20 112q-27 56 -90 74q-65 18 -179 26q-9 48 -9 99 q0 38 5 77q158 -9 256 -10q162 -2 248 -2h115q34 0 108 2q17 0 56 1.5t61 2.5q61 1 139 6q-5 -106 -36 -176q-65 -7 -109 -24t-74 -68q-31 -52 -57 -149q-25 -93 -55 -263q-32 -160 -37 -245q-1 -12 -1 -24q0 -67 21 -120q-197 -131 -487 -219q-289 -88 -639 -88 q-302 0 -529 103q-226 102 -366 286q-142 186 -197 436q-31 143 -31 304q0 120 17 251q50 389 209 666q160 277 387 455q227 177 500 260q271 82 550 82z" />
<glyph unicode="H" horiz-adv-x="3096" d="M2408 2249q14 86 14 141q0 14 -1 27q-4 64 -33 102q-28 37 -84 55q-61 20 -141 31q-10 54 -11 84q-1 37 7 92q225 -12 491 -12q254 0 500 12q-5 -57 -10 -92q-6 -43 -27 -84q-79 -12 -131 -33q-55 -22 -88 -59q-36 -41 -60 -103q-25 -66 -41 -161l-299 -1729 q-18 -88 -18 -157v-11q1 -63 31 -102q28 -37 84 -55q61 -20 145 -31q13 -50 13 -105q0 -34 -5 -71q-246 12 -495 12q-74 0 -254 -2q-119 -1 -242 -10q0 102 33 176q79 7 137 26q54 18 90 58q34 39 55 104q18 57 41 168l140 811h-293q-108 0 -338 -2q-172 -1 -336 -6 t-287 -12l-135 -791q-18 -88 -18 -157v-11q1 -64 30 -102q28 -37 84 -55q60 -20 146 -31q13 -50 13 -105q0 -34 -5 -71q-246 12 -496 12q-74 0 -254 -2q-118 -1 -241 -10q0 102 33 176q79 7 137 26q54 18 90 58q34 39 55 104q18 57 41 168l299 1729q13 80 13 138q0 16 -1 30 q-4 66 -32 102q-28 37 -84 55q-60 20 -142 31q-9 47 -10 84q-1 43 6 92q225 -12 492 -12q254 0 500 12q-3 -36 -11 -92q-6 -46 -26 -84q-79 -12 -131 -33q-55 -22 -88 -59q-36 -41 -60 -103q-25 -66 -41 -161l-127 -742h1249z" />
<glyph unicode="I" horiz-adv-x="1462" d="M774 2249q13 80 13 138q0 16 -1 30q-4 66 -32 102q-28 37 -84 55q-60 20 -142 31q-9 47 -10 84q-1 43 6 92q225 -12 492 -12q254 0 500 12q-3 -36 -11 -92q-6 -46 -26 -84q-79 -12 -131 -33q-55 -22 -88 -59q-36 -41 -60 -103q-25 -66 -41 -161l-299 -1729 q-18 -88 -18 -157v-11q1 -64 30 -102q28 -37 84 -55q60 -20 146 -31q13 -50 13 -105q0 -34 -5 -71q-246 12 -496 12q-74 0 -254 -2q-118 -1 -241 -10q0 102 33 176q79 7 137 26q54 18 90 58q34 39 55 104q18 57 41 168z" />
<glyph unicode="J" horiz-adv-x="1376" d="M819 2269q15 78 15 136v10q-1 58 -29 98q-26 38 -82 59q-55 21 -150 33q-13 42 -13 99q0 35 5 77q99 -9 215 -10q172 -2 260 -2h152q47 0 123 2l115 4q58 2 131 6q-5 -103 -33 -176q-79 -11 -137 -35q-55 -22 -93 -63q-36 -39 -61 -109t-41 -170l-303 -1736 q-50 -288 -111 -506q-62 -222 -174 -396q-113 -176 -293 -323q-182 -148 -462 -287q-35 22 -50 57q-16 36 -16 82q127 90 236 191t192 223q81 118 143 277q60 153 93 350z" />
<glyph unicode="K" horiz-adv-x="2621" d="M1839 2236q108 104 158 168q50 65 61 109q10 42 -18 63q-29 22 -86 29q-4 24 -9 46.5t-8 41.5q-7 43 0 88q145 -9 220 -10q128 -2 227 -2q86 0 196 2q58 1 205 10q0 -20 -2 -88q-1 -50 -18 -88q-80 -11 -156 -31q-67 -18 -141 -59q-70 -39 -156 -107q-85 -66 -194 -167 l-766 -721q169 -181 317 -414q145 -230 297 -561q65 -142 119 -193q52 -49 115 -49q40 0 67 12q24 11 72 54q78 -40 123 -131q-107 -131 -215 -203t-260 -72q-126 7 -211 88q-86 81 -154 264q-146 373 -289 623q-147 256 -321 451l-152 -869q-20 -97 -20 -168q0 -66 22 -104 q23 -40 72 -58q52 -19 127 -26q13 -50 13 -105q0 -34 -5 -71q-144 9 -229 10q-142 2 -226 2q-74 0 -254 -2q-118 -1 -241 -10q0 102 33 176q79 7 137 26q54 18 90 58q34 39 55 104q18 57 41 168l299 1729q13 80 13 138q0 16 -1 30q-4 66 -32 102q-28 37 -84 55 q-60 20 -142 31q-9 47 -10 84q-1 43 6 92q225 -12 492 -12q254 0 500 12q-3 -36 -11 -92q-6 -46 -26 -84q-79 -12 -131 -33q-55 -22 -88 -59q-36 -41 -60 -103q-25 -66 -41 -161l-135 -787z" />
<glyph unicode="L" horiz-adv-x="2232" d="M1176 184q171 0 288 27t205 88q89 61 156 162q69 102 141 244q55 -7 100 -29q41 -20 80 -62q-135 -262 -217 -626q-57 4 -147 6q-26 0 -91.5 1.5t-103.5 2.5q-140 2 -219 2h-225h-250q-86 0 -266 -2l-269 -4q-133 -1 -256 -6q2 24 4.5 46t4.5 42q5 47 20 88q87 7 150 31 q58 22 96 69q35 43 57 125q18 66 41 197l295 1683q12 69 12 121q0 93 -37 133q-56 61 -213 82q-9 47 -10 86q-2 53 2 90q133 -9 236 -10q162 -2 248 -2h268q134 0 260 8q0 -99 -33 -172q-92 -12 -153 -33q-62 -22 -99 -63q-39 -44 -63 -115q-25 -75 -41 -178l-291 -1671 q-20 -109 -20 -185q0 -70 32 -108t101 -53q67 -15 182 -15h25z" />
<glyph unicode="M" horiz-adv-x="3616" d="M3265 2171q-49 -881 -111 -1503q-13 -119 -13 -202q0 -22 1 -42q5 -93 28 -143q24 -51 72 -76q47 -24 117 -41q9 -47 10 -86q2 -52 -2 -90q-109 9 -229 10q-180 2 -271 2q-106 0 -268 -2q-105 -1 -223 -10q0 93 32 176q101 17 162 43q65 28 103 82q39 56 57 143 q20 98 31 223q29 291 59 688q24 311 47 742l-590 -1063l-618 -1038q-43 -18 -82 -19q-54 -2 -86 -2q-119 493 -279 1077q-150 549 -319 1086q-82 -348 -176 -705l-164 -610q-55 -200 -70 -309q-8 -54 -8 -99q0 -50 10 -86q18 -67 78 -100q57 -31 162 -53q9 -53 10 -88 q2 -51 -2 -88q-150 9 -233 10q-142 2 -189 2q-64 0 -186 -2q-64 -1 -236 -10q0 34 7 86q6 48 26 90q83 21 139 55q57 34 101 103q43 67 84 176q41 110 90 280q111 376 203 723q100 377 182 735q26 119 27 179q1 66 -23 106q-24 39 -76 57q-57 20 -133 27q-9 58 -10 90 q-2 41 6 86q112 -9 170 -10q102 -2 145 -2q60 0 150 2q53 1 145 10q181 -581 336 -1147q154 -562 295 -1142l649 1130l625 1159q108 -9 147 -10q76 -2 119 -2q35 0 141 2q67 1 158 10q0 -95 -28 -176q-81 -7 -136 -31q-54 -23 -86 -71q-33 -49 -51 -129q-19 -82 -26 -203z " />
<glyph unicode="N" horiz-adv-x="2924" d="M782 2462q-44 77 -98 106q-55 30 -152 37q-13 44 -13 101q0 35 5 75q72 -9 119 -10q76 -2 127 -2q176 0 283 12l647 -1075l618 -1088l246 1426q25 163 29 262q1 14 1 27q0 83 -24 137q-27 62 -82 90q-56 29 -145 45q-9 47 -10 84q-1 43 6 92q105 -9 190 -10 q134 -2 183 -2q56 0 204 2q97 1 193 10q0 -33 -8 -86q-7 -46 -25 -90q-73 -22 -117 -55q-47 -35 -82 -103q-34 -66 -61 -174q-27 -107 -51 -270l-168 -1012l-180 -1007q-35 -13 -78 -17q-40 -4 -90 -4l-633 1112l-658 1100q-58 -369 -120 -715l-133 -715q-32 -160 -37 -268 q-1 -16 -1 -31q0 -82 21 -139q24 -66 84 -96q62 -31 154 -47q13 -42 13 -99q0 -35 -5 -77q-144 9 -244 10q-162 2 -203 2q-68 0 -174 -2q-53 -1 -215 -10q4 96 29 176q75 11 133 43q55 30 96 92q44 66 72 160q31 104 59 246l158 868l150 868z" />
<glyph unicode="O" horiz-adv-x="2953" d="M1745 2806q296 0 539 -105q245 -106 401 -305q158 -202 215 -500q25 -131 25 -279q0 -189 -41 -405q-49 -254 -181 -485q-130 -228 -325 -397q-196 -170 -449 -269q-251 -98 -549 -98q-305 0 -549 115q-242 114 -395 321q-154 208 -209 496q-24 126 -24 265q0 176 39 376 q50 268 186 498q134 227 336 403q195 170 448 270q250 99 533 99zM1667 2626q-185 0 -348 -84q-165 -85 -295 -230q-132 -147 -223 -338q-93 -196 -133 -409q-39 -201 -39 -384q0 -84 8 -165q27 -259 127 -453q100 -195 274 -307q175 -113 416 -113q200 0 369 80t297 223 t217 336q88 192 129 422q35 190 35 360q0 111 -15 214q-38 264 -147 450q-110 188 -283 293q-172 105 -389 105z" />
<glyph unicode="P" horiz-adv-x="2306" d="M766 2269q16 92 16 154q0 59 -24 96q-23 37 -80 55q-60 20 -146 31q-13 52 -13 107q0 34 5 69q57 -5 133 -6l154 -4q104 -2 152 -2h127q18 0 106 2q19 0 66 1.5t75 2.5l158 4q110 2 156 2q447 0 639 -241q135 -169 135 -433q0 -113 -25 -243q-38 -196 -131 -346 q-98 -158 -233 -263q-139 -108 -320 -168q-177 -59 -385 -59q-177 0 -266 49q-4 32 8 86t29 78q43 -13 94 -20q63 -9 115 -9q276 0 456 160q178 159 240 479q24 127 24 233q0 196 -83 322q-129 195 -490 195q-72 0 -127 -4q-64 -5 -135 -25l-340 -1990q-20 -114 -25 -193 q-4 -72 25 -117q28 -43 98 -67q71 -25 193 -41q13 -42 14 -80q2 -48 -2 -96q-185 9 -268 10q-150 2 -252 2q-110 0 -274 -2q-100 -1 -263 -10q5 103 33 176q92 17 148 39q58 23 92 63q35 41 53 107t39 168z" />
<glyph unicode="Q" horiz-adv-x="2949" d="M2953 -492q44 -18 72 -53q32 -40 43 -82q-24 -40 -70 -88q-49 -50 -106 -88q-61 -40 -137 -67q-77 -27 -162 -27q-168 0 -297 72q-130 72 -256 276q-123 201 -268 340t-392 172q-305 0 -549 115q-242 114 -395 321q-154 208 -209 496q-24 126 -24 265q0 176 39 376 q50 268 186 498q134 227 336 403q195 170 448 270q250 99 533 99q296 0 539 -105q245 -106 401 -305q158 -202 215 -500q25 -131 25 -279q0 -189 -41 -405q-37 -205 -129 -391q-91 -184 -228 -340q-135 -153 -309 -270q-173 -116 -379 -178q175 -57 342 -168t318 -246 q130 -118 196 -151q53 -26 109 -26q13 0 26 1q38 5 70 22q29 16 53 43zM668 1565q-39 -201 -39 -384q0 -84 8 -165q27 -259 127 -453q100 -195 274 -307q175 -113 416 -113q200 0 369 80t297 223t217 336q88 192 129 422q35 190 35 360q0 111 -15 214q-38 264 -147 450 q-110 188 -283 293q-172 105 -389 105q-185 0 -348 -84q-165 -85 -295 -230q-132 -147 -223 -338q-93 -196 -133 -409z" />
<glyph unicode="R" horiz-adv-x="2662" d="M778 2269q10 61 10 109q0 92 -36 137q-55 69 -224 90q-9 44 -9 94q0 39 5 82q178 -9 267 -10q152 -2 258 -2q172 0 340 6t335 6q444 0 646 -196q151 -146 151 -384q0 -81 -18 -173q-52 -273 -295 -457q-242 -183 -627 -252q47 -62 92 -131q36 -55 86 -146q40 -73 88 -182 q58 -131 99 -237q68 -170 133 -246q63 -74 121 -74q40 0 67 12q24 11 72 54q78 -40 123 -131q-107 -131 -215 -203t-260 -72q-172 0 -256 133q-86 137 -154 379q-78 255 -162 434q-86 184 -190 344q-66 -7 -127 -6q-62 1 -111 6l-131 -753q-18 -88 -18 -154v-10 q2 -62 24 -96q23 -35 72 -50q42 -13 123 -26q9 -53 10 -88q2 -51 -2 -88q-79 5 -137 6q-22 1 -60 2.5t-53 1.5q-70 2 -106 2h-119q-108 0 -248 -2q-84 -1 -223 -10q0 45 6 90q6 46 27 86q86 7 145 31q57 23 90 65q35 44 53 111q18 66 39 170zM1020 1446q48 -8 84 -8h80 q172 0 325 39q156 40 277 112t205 187q81 110 110 260q14 77 14 143q0 179 -104 283q-143 143 -463 143q-198 0 -336 -37z" />
<glyph unicode="S" horiz-adv-x="1884" d="M1221 2806q211 0 374 -56q166 -57 265 -137q-21 -139 -33 -264t-12 -264q-70 -28 -148 -28q-38 0 -78 7q-8 321 -112 437t-285 116q-201 0 -326 -92q-124 -91 -157 -309q-6 -41 -6 -78q0 -117 57 -207q75 -119 205 -225t278 -205q153 -103 275 -223q124 -123 192 -279 q44 -102 44 -227q0 -69 -13 -145q-24 -145 -105 -271q-79 -122 -198 -211q-118 -88 -269 -135q-152 -47 -313 -47q-156 0 -281 21q-129 22 -225 59q-101 39 -184 94q-88 58 -158 121q46 147 78 287q34 147 41 282q51 22 111 23q63 2 110 -14q-3 -56 -3 -107q0 -279 95 -412 q112 -157 424 -157q186 0 316 108q130 107 163 289q11 56 11 107q0 109 -49 192q-72 122 -197 225q-132 108 -274 199q-150 96 -273 219q-122 122 -188 289q-41 102 -41 232q0 80 16 171q50 282 275 449q224 166 598 166z" />
<glyph unicode="T" horiz-adv-x="2232" d="M991 2609q-108 0 -192 -29q-83 -28 -146 -92q-65 -65 -110 -161q-49 -103 -92 -238q-64 0 -111 10q-50 11 -82 47q15 48 43 146q24 85 41 164l35 167q19 97 29 158q199 -9 446 -10q366 -2 582 -2q224 0 604 2q257 1 456 10q-22 -133 -38 -309q-15 -166 -15 -338 q-47 -25 -92 -31q-49 -6 -104 -2q0 133 -19 238q-18 97 -65 158q-45 59 -129 86q-79 26 -209 26h-205l-369 -2109q-16 -83 -16 -146q0 -58 29 -96q27 -36 90 -59q64 -23 172 -35q13 -52 13 -107q0 -34 -5 -69q-152 9 -266 10q-180 2 -258 2q-87 0 -281 -2q-127 -1 -256 -10 q0 101 29 180q97 12 164 33q65 21 104 61q38 39 61 109q21 63 43 170l361 2068h-242z" />
<glyph unicode="U" horiz-adv-x="2600" d="M614 2269q18 101 19 156q1 60 -17 98q-18 37 -61 55q-49 20 -109 27q-9 39 -9 90q0 39 5 86q171 -9 240 -10q128 -2 215 -2q96 0 236 2q76 1 256 10q-4 -41 -11 -90q-7 -44 -26 -86q-87 -7 -156 -27q-60 -18 -100 -59q-39 -41 -62 -111q-21 -65 -43 -180l-200 -1163 q-28 -164 -28 -294q0 -56 5 -107q18 -169 90 -277q72 -109 189 -158q116 -49 268 -49q304 0 502 215q199 216 268 613l192 1097q25 136 25 215q0 83 -25 138q-25 54 -79 86q-52 31 -142 61q-9 44 -9 94q0 39 5 82q155 -9 225 -10q126 -2 181 -2h92q28 0 90 2q13 0 47.5 1.5 t54.5 2.5q56 2 125 6q0 -92 -37 -176q-89 -30 -143 -61q-56 -33 -94 -90q-36 -54 -64 -150q-26 -90 -51 -240l-180 -1020q-99 -556 -359 -819q-259 -262 -706 -262q-521 0 -719 287q-136 197 -136 501q0 138 28 298z" />
<glyph unicode="V" horiz-adv-x="2682" d="M2585 2769q74 0 184 2q60 1 201 10q0 -92 -37 -176q-45 -22 -86 -53q-35 -27 -80 -84q-41 -52 -94 -146q-61 -108 -125 -233l-545 -1034l-598 -1055q-33 -21 -78 -27q-19 -2 -38 -2l-52 4l-139 598l-140 582l-135 539l-123 473q-48 168 -63 213q-27 82 -57 127 q-28 42 -66 67q-35 23 -88 35q-9 41 -9 91q0 38 5 81q165 -9 244 -10q140 -2 227 -2q96 0 252 2q90 1 260 10q0 -33 -8 -86q-7 -47 -29 -94q-103 -11 -176 -31q-65 -18 -94 -65q-23 -37 -23 -99q0 -16 2 -34q8 -86 45 -230q106 -385 197 -758q92 -376 184 -806l434 770 q208 385 402 790q59 128 86 201q20 54 20 95q0 18 -4 34q-12 52 -65 82q-55 31 -160 55q-9 44 -9 94q0 39 5 82q100 -9 170 -10q112 -2 203 -2z" />
<glyph unicode="W" horiz-adv-x="3944" d="M3842 2769q69 0 205 2q88 1 184 10q0 -92 -37 -176q-49 -21 -92 -55q-41 -33 -88 -103q-46 -69 -98 -176q-62 -128 -127 -280l-445 -996q-238 -518 -485 -995q-37 -20 -82 -25q-38 -4 -86 5q-35 236 -84 528q-47 279 -102 561q-52 265 -119 561q-64 283 -129 533 l-524 -1094l-557 -1069q-33 -21 -82 -27q-20 -2 -41 -2q-27 0 -54 4q-97 663 -184 1190l-172 1002q-19 113 -43 221q-17 79 -41 125q-22 43 -51 61q-30 19 -74 35q-16 52 -16 111q0 30 4 61q189 -9 262 -10q136 -2 193 -2q59 0 231 2q111 1 240 10q0 -40 -5 -90 q-5 -49 -24 -90q-114 -21 -180 -45q-64 -23 -92 -74q-25 -46 -25 -118v-9q2 -81 22 -205l62 -360q24 -137 63 -391l62 -402l59 -391l535 1073l518 1098q51 24 122 24q26 0 54 -3q67 -249 129 -514q70 -300 121 -545q55 -267 108 -553q60 -323 93 -539q185 361 338 699 q157 345 301 698q63 152 92 258q17 64 17 110q0 27 -5 48q-15 60 -72 90q-61 32 -163 55q-10 49 -10 101q0 37 5 75q96 -9 172 -10q120 -2 197 -2z" />
<glyph unicode="X" horiz-adv-x="2527" d="M422 2781q196 -9 264 -10q134 -2 211 -2q86 0 238 2q85 1 270 10q0 -96 -37 -180q-107 -17 -164 -45q-58 -29 -76 -78q-8 -21 -8 -49q0 -35 13 -80q24 -84 79 -199l271 -577l215 274l198 275q87 127 127 217q33 76 33 127v12q-5 54 -45 82t-115 45q-9 48 -9 99q0 38 5 77 q117 -9 181 -10q110 -2 168 -2q64 0 200 2q85 1 209 10q0 -34 -8 -84q-7 -46 -29 -92q-56 -7 -102 -29q-47 -22 -98 -73q-49 -49 -119 -146l-168 -239l-271 -375l-286 -371l162 -377l161 -385q55 -139 101 -223q45 -83 86 -125q42 -44 88 -65q43 -20 106 -37q9 -39 9 -89 q0 -38 -5 -83q-91 5 -155 6q-24 1 -65 2.5t-56 1.5q-74 2 -105 2h-110q-86 0 -266 -2q-122 -1 -226 -10q0 87 37 180q98 12 152 35q53 23 69 71q7 21 7 48q0 36 -13 84q-20 72 -76 217l-110 270l-115 266q-125 -170 -223 -291l-227 -282q-142 -178 -142 -272q0 -10 2 -19 q16 -93 152 -131q8 -48 8 -88q0 -48 -4 -88q-154 9 -227 10q-128 2 -203 2q-87 0 -215 -2q-77 -1 -211 -10q0 92 37 176q51 16 104 41q51 24 111 69q56 42 133 119q66 65 176 189l328 381l315 397l-182 389l-195 397l-118 234q-45 85 -80 131q-34 44 -70 63q-35 18 -88 35 q-9 46 -9 95q0 38 5 77z" />
<glyph unicode="Y" horiz-adv-x="2387" d="M1135 1200l-224 569q-117 289 -190 447q-53 114 -90 186q-37 71 -68 113q-30 40 -61 59q-31 18 -76 35q-9 53 -10 84v13q0 34 6 75q133 -9 229 -10q152 -2 226 -2q83 0 241 2q91 1 275 10q0 -46 -11 -92q-12 -50 -26 -88q-202 -29 -254 -96q-23 -29 -23 -77 q0 -61 39 -151q85 -190 168 -407q89 -233 164 -449l160 217l147 203l125 174l92 131q144 214 144 316v10q-7 100 -197 133q-9 44 -9 94q0 39 5 82q120 -9 188 -10q114 -2 205 -2q70 0 182 2q67 1 183 10q0 -92 -37 -176q-37 -12 -68 -35q-34 -25 -80 -73q-45 -46 -125 -150 q-73 -95 -194 -266l-301 -414l-346 -455l-127 -712q-17 -88 -17 -144t29 -94q27 -36 90 -59q62 -23 172 -39q13 -52 13 -107q0 -34 -5 -69q-152 9 -266 10q-180 2 -258 2q-87 0 -281 -2q-127 -1 -256 -10q0 101 29 180q104 17 166 39q64 23 102 61q40 40 62 105 q21 62 43 168z" />
<glyph unicode="Z" horiz-adv-x="2211" d="M1061 184q185 0 313 17q127 17 213 71q87 55 154 158q64 99 139 275q125 -24 205 -99q-56 -137 -103 -291q-47 -156 -77 -327q-146 4 -279 6l-258 4q-170 2 -252 2h-264h-258q-81 0 -217 -2l-205 -4q-102 -2 -225 -6q-37 64 -37 150v18l967 1206l921 1227h-541 q-135 0 -235 -21t-180 -78q-80 -58 -146 -159q-62 -97 -131 -271q-135 12 -213 78q54 123 103 295t73 348q123 -5 234 -6l221 -4q148 -2 231 -2h265h198q65 0 193 2l198 4q104 2 226 6q53 -62 53 -168l-926 -1231l-954 -1198h594z" />
<glyph unicode="[" horiz-adv-x="1228" d="M573 3039q69 -4 172 -6q136 -2 213 -2q76 0 218 2q106 1 180 6q27 -44 27 -97q0 -28 -7 -58q-158 -11 -276 -31q-109 -18 -176 -57q-68 -39 -103 -109q-34 -67 -55 -188l-545 -3101q-10 -61 -10 -107q0 -29 4 -53q10 -61 61 -98q50 -37 146 -55q98 -19 242 -23 q17 -33 18 -76q2 -46 -18 -88q-57 4 -168 6q-148 2 -234 2q-85 0 -237 -2q-115 -2 -181 -6z" />
<glyph unicode="\" horiz-adv-x="1196" d="M1012 0q-41 -21 -94 -29q-38 -5 -73 -5q-18 0 -34 1q-96 749 -201 1471l-225 1466q71 31 142 31q32 0 63 -6z" />
<glyph unicode="]" horiz-adv-x="1224" d="M664 -1102q-83 5 -193 6q-148 2 -225 2q-79 0 -219 -2q-106 -2 -179 -6q-1 10 -1 22q0 29 8 64q11 46 34 78q164 5 258 20q99 16 166 48q64 30 97 86q32 54 49 141l553 3142q14 80 14 143q0 24 -2 45q-8 69 -61 109q-52 39 -154 57q-110 20 -260 31q0 47 14 88 q15 43 39 67q74 -5 180 -6q142 -2 219 -2q78 0 218 2q105 1 174 6z" />
<glyph unicode="^" horiz-adv-x="1953" d="M1405 2806q55 36 111 41q16 1 33 1q33 0 65 -5q56 -144 115 -281l137 -313l141 -314l131 -280q-26 -19 -78 -35q-46 -14 -94 -6l-463 1052l-260 -278l-262 -287l-250 -280l-223 -252q-62 74 -62 192z" />
<glyph unicode="_" horiz-adv-x="2048" d="M1663 -377q-7 -120 -66 -213h-417q-145 0 -449 -2l-455 -4q-227 -1 -436 -6q-1 15 -1 30q0 119 55 195h1769z" />
<glyph unicode="`" horiz-adv-x="1089" d="M557 2884q78 31 186 36q13 1 26 1q91 0 173 -29q26 -159 70 -342q40 -169 110 -355q-24 -10 -59 -10h-10q-39 1 -74 19q-71 143 -193 346q-110 183 -229 334z" />
<glyph unicode="a" horiz-adv-x="1978" d="M1491 602q-30 -150 -37 -188q-12 -71 -8 -107q4 -37 22 -49t52 -12q46 0 94 26q43 24 131 97q27 -27 45 -60t29 -67q-99 -114 -224 -197q-124 -82 -231 -82q-140 0 -203 68q-64 69 -76 166q-4 31 -4 63q0 69 17 146q24 112 61 196h-4q-59 -118 -139 -227 q-86 -117 -178 -205q-98 -94 -205 -150q-108 -57 -223 -57q-206 0 -291 205q-42 101 -42 260q0 167 46 399q51 242 151 437q101 197 248 342q143 141 324 225q177 82 379 82q61 0 121 -10q63 -11 108 -27q57 0 127 8q65 7 107 29q12 -6 30 -25q14 -16 19 -57q4 -36 -4 -115 q-7 -65 -37 -196zM1372 1663q-108 41 -250 41q-126 0 -225 -51q-97 -50 -172 -142t-125 -217q-52 -131 -80 -278q-50 -237 -50 -399q0 -77 11 -136q35 -186 158 -186q52 0 141 74q88 73 183 213q95 141 186 340q94 206 154 454z" />
<glyph unicode="b" horiz-adv-x="1835" d="M483 2187q28 165 33 223q8 81 -14 119q-23 39 -76 47q-63 9 -152 9q-1 18 -1 35q0 71 26 120q143 21 289 66t264 102q96 -30 96 -165q0 -43 -10 -97l-160 -897q-30 -162 -67 -293q-37 -129 -101 -309h8q48 119 134 256t190 248q109 117 227 188q122 74 252 74 q206 0 291 -205q42 -101 42 -260q0 -167 -46 -399q-50 -239 -152 -437q-103 -200 -247 -344q-145 -145 -326 -225t-381 -80q-203 0 -332 49q-131 50 -233 156q29 40 57 117q34 92 58 172q26 87 55 207q23 94 47 225zM463 221q58 -34 117 -41q64 -8 129 -8q126 0 225 51 q97 50 172 142q74 90 123 217q49 126 82 278q50 237 50 399q0 77 -11 136q-34 186 -158 186q-52 0 -141 -74q-90 -74 -185 -213q-97 -140 -186 -340q-91 -204 -152 -454z" />
<glyph unicode="c" horiz-adv-x="1531" d="M545 -37q-176 0 -273 86q-96 85 -135 223q-32 113 -32 255q0 28 1 57q7 171 41 350q38 190 121 364q86 180 207 314q123 136 281 219q157 82 346 82q119 0 188 -21q72 -22 135 -65q-93 -213 -114 -455q-33 -16 -80 -24q-56 -9 -96 -9q0 197 -56 277t-174 80 q-62 0 -117 -43t-104 -119q-48 -74 -86 -176q-35 -93 -57 -211q-33 -163 -45 -322q-5 -69 -5 -130q0 -81 9 -150q17 -124 71 -199q55 -76 158 -76q118 0 232 64q111 62 190 149q54 -39 86 -114q-73 -95 -162 -168q-92 -77 -180 -127q-95 -54 -182 -82q-92 -29 -168 -29z" />
<glyph unicode="d" horiz-adv-x="2007" d="M1552 725q-23 -131 -43 -260q-14 -90 -14 -146q0 -49 16 -61q17 -12 45 -12q47 0 95 26q43 24 131 97q27 -27 45 -60q16 -29 28 -67q-101 -117 -227 -197q-128 -82 -235 -82q-147 0 -211 70q-63 69 -74 172q-3 30 -3 60q0 77 19 161q25 108 56 217h-4q-56 -116 -140 -240 q-82 -121 -180 -219q-96 -96 -213 -159q-115 -62 -233 -62q-206 0 -291 205q-42 101 -42 260q0 167 46 399q51 242 151 437q101 197 248 342q143 141 324 225q177 82 379 82q77 0 172 -21q5 80 14 140q4 32 7 52l7 45.5l9 57.5q25 152 32 223q8 82 -12 119q-21 40 -76 47 q-67 9 -153 9q0 32 2 84q1 39 22 71q44 4 125 23q61 14 156 43q80 24 153 51q75 28 119 51q95 -31 95 -169q0 -42 -9 -93zM1372 1663q-108 41 -250 41q-126 0 -225 -51q-97 -50 -172 -142t-125 -217q-52 -131 -80 -278q-50 -237 -50 -399q0 -77 11 -136q35 -186 158 -186 q52 0 141 74q90 74 185 213q98 143 188 340q95 208 150 454z" />
<glyph unicode="e" horiz-adv-x="1474" d="M1053 1913q121 0 204 -39q81 -38 125 -102q43 -63 54 -146q4 -32 4 -65q0 -51 -10 -103q-24 -125 -127 -233q-102 -106 -238 -185q-131 -76 -287 -122q-154 -46 -278 -50q-11 -99 -11 -191v-22q1 -101 27 -192q24 -85 78 -139t147 -54q90 0 205 56q117 57 205 161 q62 -46 86 -118q-58 -75 -137 -148t-172 -131t-191 -92q-100 -35 -196 -35q-173 0 -269 84q-97 85 -137 219q-36 119 -36 261q0 21 1 42q6 168 39 336q45 237 144 426q100 190 223 318q124 129 268 196q145 68 279 68zM516 1020q104 5 201 31q102 28 178 75q81 50 133 119 q54 70 70 160q5 36 5 67q0 15 -1 31q-4 48 -27 92q-22 43 -61 70t-96 27q-120 0 -228 -156q-109 -157 -158 -426z" />
<glyph unicode="f" horiz-adv-x="1196" d="M508 1860q45 274 141 475t223 331q130 133 281 195q155 64 317 64q153 0 265 -31q106 -29 161 -72q-43 -90 -71 -209q-28 -117 -35 -229q-58 -34 -141 -34q-15 0 -31 1q-7 207 -76 297q-67 88 -194 88q-75 0 -131 -37q-58 -38 -107 -137q-47 -96 -98 -276 q-52 -184 -103 -451h406q0 -45 -6 -86q-6 -40 -23 -74q-120 0 -223 -10q-99 -10 -191 -23q-74 -426 -116 -696l-76 -463q-57 -329 -141 -604q-84 -274 -199 -475q-113 -197 -256 -309q-141 -111 -309 -111q-191 0 -365 148q-4 33 -4 64.5t4 62.5q7 59 29 118q92 -32 209 -49 q111 -16 246 -16q70 0 120 22q51 23 92 115q42 94 82 279q43 199 91 514q48 322 86 643q39 327 110 766l-145 16q-82 8 -146 8q0 94 45 160h275z" />
<glyph unicode="g" horiz-adv-x="1835" d="M1217 729q-49 -119 -138 -262q-86 -138 -190 -248q-105 -111 -230 -184q-123 -72 -249 -72q-206 0 -291 205q-42 101 -42 260q0 167 46 399q51 242 151 437q101 197 248 342q143 141 324 225q177 82 379 82q60 0 123 -10q64 -10 110 -27q60 5 115 12q54 7 90 25 q37 -16 49 -62q5 -18 5 -46q0 -48 -13 -122l-307 -1732q-95 -526 -344 -750q-251 -225 -639 -225q-166 0 -314 35q-145 34 -219 92q47 98 70 223q26 141 33 244q62 34 148 34q15 0 32 -1q7 -235 72 -340q64 -103 243 -103q193 0 328 170q136 171 205 551l57 336 q17 96 57 236q35 121 95 276h-4zM1372 1663q-108 41 -250 41q-126 0 -225 -51q-97 -50 -172 -142t-125 -217q-52 -131 -80 -278q-50 -237 -50 -399q0 -77 11 -136q35 -186 158 -186q52 0 141 74q90 74 185 213q98 143 188 340q95 208 150 454z" />
<glyph unicode="h" horiz-adv-x="2064" d="M1618 627l-49 -217q-18 -84 -19 -115q-2 -38 13 -45q16 -8 39 -8q44 0 112 39q69 40 117 88q57 -57 74 -131q-134 -139 -248 -207q-113 -68 -223 -68q-124 0 -181 45q-56 44 -71 131q-6 36 -6 78q0 59 12 131q25 147 53 275l111 487q37 153 43 256q2 29 2 54 q0 63 -11 104q-15 58 -49 80t-80 22q-60 0 -161 -80q-99 -79 -205 -225t-195 -346q-91 -202 -131 -443l-94 -532h-373l385 2187q28 165 33 223q8 82 -12 119q-21 40 -76 47q-67 9 -154 9q0 32 2 84q1 37 23 71q44 4 125 23q61 14 156 43q80 24 153 51q75 28 119 51 q95 -31 95 -169q0 -42 -9 -93l-102 -563q-40 -218 -78 -389q-37 -164 -78 -310l-98 -327h4l102 217q50 99 139 211q90 113 203 209q111 95 234 157q122 62 227 62q65 0 133 -33t113 -119q45 -85 51 -239q1 -15 1 -30q0 -148 -52 -366z" />
<glyph unicode="i" d="M856 2855q102 0 152 -68q32 -44 32 -110q0 -33 -8 -72q-21 -107 -94 -174q-74 -68 -176 -68q-99 0 -146 68q-32 47 -32 112q0 29 6 62q24 114 98 182t168 68zM328 1143q46 160 63 243q10 48 10 82q0 31 -8 52q-17 45 -71 57q-56 12 -158 12q-1 12 -1 24q0 75 25 132 q52 5 115 22q52 14 133 43q55 19 127 52q55 25 96 51q127 -52 154 -178q7 -34 7 -78q0 -116 -50 -301l-225 -791q-30 -104 -41 -162q-12 -65 -8 -96q5 -33 22 -45q18 -12 47 -12q41 0 97 29q53 27 116 90q62 -41 74 -131q-119 -131 -236 -203t-231 -72q-205 0 -252 162 q-18 63 -18 141q0 124 45 287z" />
<glyph unicode="j" horiz-adv-x="954" d="M836 2855q101 0 151 -68q33 -45 33 -111q0 -33 -8 -71q-21 -107 -94 -174q-74 -68 -177 -68q-98 0 -145 68q-33 48 -33 114q0 29 6 60q24 113 99 182q74 68 168 68zM397 1286q18 101 19 154q1 59 -21 92t-76 45q-53 12 -147 12q-5 41 0 80t25 76q51 5 116 22 q55 15 140 43q60 20 133 52q58 26 98 51q51 -23 86 -55q33 -30 45 -95q7 -35 7 -83q0 -41 -5 -89q-11 -115 -43 -284l-188 -1004q-50 -254 -129 -455q-79 -200 -203 -360q-126 -163 -291 -285q-166 -123 -389 -223q-56 49 -61 135q293 207 456 477q162 268 228 617z" />
<glyph unicode="k" horiz-adv-x="1785" d="M635 1266q119 287 291 467t413 180q197 0 291 -129q70 -96 70 -220q0 -43 -8 -89q-21 -111 -93 -207q-74 -99 -176 -170q-106 -74 -233 -123q-129 -49 -264 -66q130 -111 303 -471q57 -118 96 -151t96 -33q41 0 82 27q46 30 103 92q49 -51 73 -131q-103 -123 -219 -199 q-122 -80 -207 -80q-80 0 -135 19q-53 18 -96 61q-44 43 -78 117q-40 85 -76 180q-60 155 -112 256q-56 108 -138 231q-7 -27 -12 -53q-2 -9 -4.5 -28t-3.5 -25l-127 -721h-373l385 2187q28 165 33 223q8 82 -12 119q-21 40 -76 47q-67 9 -154 9q-1 18 -1 35q0 71 26 120 q44 4 125 23q61 14 156 43q80 24 153 51q75 28 119 51q96 -30 96 -165q0 -43 -10 -97l-90 -496q-39 -209 -70 -350q-34 -154 -67 -272q-30 -107 -80 -262h4zM1315 1401q6 31 6 58q0 66 -35 106q-50 57 -131 57q-54 0 -115 -43q-60 -43 -127 -123q-64 -77 -125 -190 q-54 -101 -108 -242q246 24 428 117q178 91 207 260z" />
<glyph unicode="l" horiz-adv-x="1040" d="M606 918q-44 -211 -61 -351q-15 -122 -15 -190v-12q2 -70 23 -93q21 -22 53 -22q42 0 90 26q51 28 119 93q53 -50 74 -123q-100 -119 -223 -201q-124 -82 -240 -82q-279 0 -279 306v26q0 44 5 102q6 65 16 138q10 68 35 208l59 320l90 469l131 655q29 143 35 219 q6 82 -14 121q-22 42 -76 49q-67 9 -154 9q0 32 2 84q1 37 23 71q44 4 125 23q61 14 156 43q80 24 153 51q75 28 119 51q95 -31 95 -169q0 -42 -9 -93q-87 -494 -166 -897z" />
<glyph unicode="m" horiz-adv-x="3186" d="M377 1192q28 165 33 223q8 80 -15 119q-23 40 -78 47q-59 8 -153 8l2 70q2 54 22 86q51 5 125 22q61 14 156 43q68 21 152 52q69 26 116 51q95 -31 95 -171q0 -43 -9 -95q-35 -184 -67 -291q-34 -114 -80 -217h4l61 135q44 99 138 215q91 113 204 207q108 91 238 155 q126 62 235 62q53 0 111 -23q57 -22 102 -78t66 -145q9 -40 9 -90q0 -60 -13 -135q-17 -86 -37 -154q-22 -76 -53 -149h4l61 135q43 95 138 207q92 108 206 200q113 91 240 152q122 59 231 59q111 0 177 -57q64 -56 92 -160q19 -72 19 -168q0 -38 -3 -80q-11 -148 -55 -321 l-123 -479q-31 -121 -49 -203q-17 -79 -17 -115q0 -38 19 -51q18 -12 51 -12q47 0 98 26q52 27 127 97q58 -53 70 -131q-94 -110 -219 -193q-124 -82 -244 -82q-114 0 -176 33q-62 34 -80 108q-10 44 -10 103q0 46 6 100q15 132 55 316l107 467q38 156 45 256q3 41 3 74 q0 49 -7 83q-12 57 -43 80t-76 23q-60 0 -160 -68q-96 -65 -203 -203q-104 -133 -196 -336q-95 -208 -146 -467l-102 -532h-369l189 922q48 223 59 368q5 60 5 107q0 64 -9 106q-16 76 -51 99q-37 24 -82 24q-60 0 -160 -74q-96 -71 -200 -215q-105 -146 -195 -344 q-91 -202 -141 -461l-103 -532h-372z" />
<glyph unicode="n" horiz-adv-x="2121" d="M1675 627l-49 -217q-17 -78 -18 -115q-2 -38 12 -45q16 -8 39 -8q45 0 113 39q66 38 116 88q58 -57 74 -131q-134 -139 -248 -207q-113 -68 -223 -68q-123 0 -180 45t-72 131q-6 36 -6 78q0 59 12 131q25 147 53 275l111 487q37 153 43 256q2 32 2 59q0 61 -10 99 q-15 58 -49 80t-80 22q-61 0 -162 -80q-102 -80 -203 -225q-103 -146 -192 -346q-90 -201 -135 -443l-103 -532h-373l226 1192q28 165 33 223q8 81 -13 119q-21 40 -76 47q-59 8 -153 8q0 32 2 84q2 40 22 72q51 5 125 22q53 13 158 43q69 20 156 52q72 26 118 51 q95 -31 95 -171q0 -43 -9 -95q-35 -184 -71 -293q-39 -117 -84 -219h4l65 139q48 96 140 211t202 209q111 95 234 157q122 62 227 62q66 0 133 -33q68 -33 113 -119q45 -85 51 -239q1 -15 1 -30q0 -148 -52 -366z" />
<glyph unicode="o" horiz-adv-x="1863" d="M1114 1913q175 0 309 -68t213 -194q81 -130 103 -303q8 -60 8 -126q0 -123 -27 -264q-40 -220 -133 -407q-90 -181 -221 -313q-130 -131 -291 -203q-162 -72 -342 -72q-176 0 -305 66q-131 67 -209 186q-79 121 -102 291q-8 61 -8 126q0 117 26 249q45 231 137 424 q90 186 222 325q130 136 286 209q159 74 334 74zM1061 1712q-95 0 -178 -55q-84 -56 -158 -158q-73 -102 -129 -246q-55 -142 -88 -319q-34 -176 -34 -317t34 -248q69 -213 254 -213q94 0 182 55t162 156q76 103 131 239q57 140 90 312q32 171 32 309q0 152 -38 266 q-72 219 -260 219z" />
<glyph unicode="p" horiz-adv-x="1908" d="M705 1171q52 129 131 254q88 139 186 240q107 110 225 180q121 72 252 72q206 0 291 -205q42 -101 42 -260q0 -167 -46 -399q-50 -239 -152 -437t-248 -344t-323 -225q-180 -80 -379 -80q-41 0 -94 8l-53 9.5l-41 7.5q4 -39 4 -80q0 -51 -6 -105q-10 -101 -39 -274 l-95 -537h-372l385 2188q28 165 33 223q8 81 -13 119q-21 40 -76 47q-59 8 -153 8q0 32 2 84q2 40 22 72q51 5 125 22q61 14 156 43q85 26 154 51q66 24 118 52q95 -31 95 -170q0 -42 -9 -93q-21 -123 -51 -237q-30 -115 -80 -234h9zM537 217q108 -41 249 -41q127 0 226 51 q97 50 172 142q74 90 123 217q49 126 82 278q49 233 49 396q0 78 -11 139q-35 186 -157 186q-53 0 -142 -74q-87 -73 -184 -213q-98 -143 -188 -340q-95 -208 -150 -454z" />
<glyph unicode="q" horiz-adv-x="1892" d="M1212 729q-50 -128 -133 -262q-86 -138 -190 -248q-105 -111 -230 -184q-123 -72 -249 -72q-206 0 -291 205q-42 101 -42 260q0 167 46 399q51 242 151 437q101 197 248 342q143 141 324 225q177 82 379 82q207 0 336 -49q131 -50 233 -156q-28 -44 -57 -119 q-32 -83 -58 -170t-55 -207q-23 -94 -47 -225l-348 -1978h-373l213 1208q17 96 57 236q35 121 95 276h-9zM1372 1663q-108 41 -250 41q-126 0 -225 -51q-97 -50 -172 -142t-125 -217q-52 -131 -80 -278q-50 -237 -50 -399q0 -77 11 -136q35 -186 158 -186q52 0 141 74 q90 74 185 213q97 140 186 340q91 204 152 454z" />
<glyph unicode="r" horiz-adv-x="1499" d="M360 1192q31 154 37 223q8 82 -12 119q-21 39 -74 47q-56 8 -151 8q0 49 4 84q5 42 24 72q51 5 125 22q61 14 156 43q70 21 154 52q72 26 118 51q92 -30 92 -163q0 -44 -10 -99q-40 -217 -180 -541h8l70 152q60 132 141 251q78 115 164 207q87 93 172 142q88 51 170 51 q76 0 131 -19q54 -19 98 -55q-44 -93 -73 -227q-30 -140 -37 -248q-58 -34 -141 -34q-15 0 -31 1q-5 91 -12 146q-7 50 -21 84q-12 28 -29 36q-20 9 -41 9q-56 0 -133 -86q-73 -82 -161 -242q-130 -237 -209 -447q-79 -212 -131 -466l-70 -365h-377z" />
<glyph unicode="s" horiz-adv-x="1482" d="M664 139q86 0 157 43t88 129q5 25 5 48q0 65 -33 122q-46 81 -123 158l-170 162q-96 88 -166 184q-76 104 -115 221q-24 71 -24 154q0 59 12 123q38 209 192 319q156 111 414 111q133 0 277 -43q145 -43 235 -129q-45 -94 -63 -191q-20 -108 -27 -211q-57 -33 -139 -33 q-16 0 -33 1q-7 196 -98 311t-254 115q-98 0 -156 -47t-70 -117q-6 -28 -6 -54q0 -64 35 -120q51 -82 131 -156l178 -158q98 -84 172 -180q77 -100 117 -219q24 -71 24 -154q0 -58 -12 -122q-41 -214 -200 -328q-160 -115 -430 -115q-170 0 -322 64q-149 63 -240 170 q47 99 64 198q20 119 27 219q58 34 141 34q15 0 31 -1q-1 -14 -1 -28q0 -87 25 -166q29 -93 80 -162q52 -71 121 -111q70 -41 156 -41z" />
<glyph unicode="t" horiz-adv-x="1294" d="M659 831q-36 -161 -47 -284q-5 -50 -5 -92q0 -57 9 -99q15 -73 52 -106q38 -33 86 -33q69 0 153 51q85 51 150 133q34 -21 55 -57q24 -40 31 -74q-39 -51 -101 -108t-131 -99q-69 -41 -151 -71q-81 -29 -162 -29q-258 0 -338 199q-35 86 -35 219q0 172 58 422l192 848 q-135 15 -149 16q-85 8 -154 8q0 94 45 160h303l8 41q45 191 72 334q28 151 35 231q83 12 174 39q93 27 149 60q23 -12 39 -37q15 -24 15 -76q0 -49 -17 -146q-18 -105 -53 -245l-45 -201h381q0 -45 -6 -86q-6 -40 -23 -74q-104 0 -213 -8q-94 -7 -184 -20z" />
<glyph unicode="u" horiz-adv-x="2080" d="M1262 618q-51 -105 -129 -217q-76 -109 -183 -213q-98 -95 -217 -161q-116 -64 -233 -64q-143 0 -209 88q-65 87 -80 228q-5 51 -5 106q0 94 15 203q22 158 66 334q59 236 88 381q18 90 18 150q0 27 -4 48q-12 64 -65 76q-52 12 -156 12q-5 27 -5 53q0 13 1 27 q5 46 24 76q48 5 121 22q53 13 158 43q68 20 154 52q71 26 112 51q45 -29 68 -62q17 -25 17 -91q0 -18 -1 -40q-6 -101 -49 -290l-125 -537q-64 -255 -64 -407q0 -220 134 -220q56 0 151 68q96 68 197 207q103 141 194 348q95 216 146 491l94 496h373l-201 -1016 q-40 -192 -65 -340q-20 -118 -25 -184q-4 -61 12 -76q15 -14 53 -14q46 0 89 28q38 25 112 99q28 -24 47 -60q21 -41 31 -71q-101 -116 -223 -197q-124 -82 -236 -82q-188 0 -243 127q-32 74 -32 173q0 72 17 159q21 106 66 196h-8z" />
<glyph unicode="v" horiz-adv-x="1949" d="M1602 1917q115 -46 176 -143q61 -98 61 -279q0 -117 -47 -264q-46 -144 -164 -330q-120 -189 -311 -414q-192 -226 -490 -524q-17 -1 -33 -1q-93 0 -163 38q-24 380 -80 733q-56 349 -117 602q-22 76 -39 125q-18 51 -49 82q-30 30 -80 41q-49 10 -127 6q0 23 4 70 q4 51 17 86q100 12 223 65q115 50 186 103q62 -23 93 -47q34 -27 57 -78t39 -129l41 -201q31 -159 53 -303q26 -166 45 -305q17 -121 35 -289q14 -128 22 -250q260 305 389 555q127 247 127 400q0 160 -57 229t-192 90q-26 55 -26 121q0 15 1 31q60 19 115 39q47 17 116 47 q50 21 103 49q50 26 72 45z" />
<glyph unicode="w" horiz-adv-x="2883" d="M2523 1913q114 -45 180 -144t66 -282q0 -119 -39 -258q-40 -142 -143 -322q-104 -182 -289 -413q-193 -242 -475 -531q-17 -1 -33 -1q-94 0 -164 38q-21 269 -51 498q-27 209 -64 420q-48 -130 -100 -232q-55 -108 -135 -219q-78 -108 -191 -234q-111 -123 -258 -270 q-17 -1 -33 -1q-93 0 -163 38q-24 380 -80 733q-56 349 -117 602q-22 76 -39 125q-18 51 -49 82q-30 30 -80 41q-49 10 -127 6q0 23 4 70q4 51 17 86q100 12 223 65q115 50 186 103q62 -23 93 -47q34 -27 57 -78t39 -129l41 -201q31 -156 53 -297q24 -153 45 -303 q16 -115 35 -287q14 -125 22 -247q149 172 250 338q99 162 142 333q34 135 34 286q0 38 -2 77q-11 195 -71 424q72 22 131 55t94 76q50 -12 78 -33q29 -21 53 -68q24 -46 45 -129q20 -77 49 -221l60 -297q35 -181 55 -303q29 -183 43 -287q24 -181 31 -247q246 307 352 542 q106 234 106 387q0 159 -63 236q-62 75 -199 92q-26 53 -26 119q0 16 2 33q15 4 114 37q62 21 117 45q44 19 102 49q50 26 72 45z" />
<glyph unicode="x" horiz-adv-x="1900" d="M1450 1606q-43 0 -100 -52q-55 -50 -111 -137q-54 -84 -111 -194q-50 -97 -100 -224q42 -136 109 -333q51 -151 100 -260q46 -105 82 -132q37 -28 82 -28t94 28q41 23 131 99q50 -53 74 -131q-101 -116 -223 -197q-124 -82 -244 -82q-130 0 -197 47q-64 45 -110 154 q-47 111 -86 221l-82 233q-57 -114 -129 -231q-71 -115 -156 -211q-80 -90 -176 -153q-91 -60 -186 -60q-73 0 -117 12t-84 45q31 89 53 224q21 129 21 248q30 19 82 30q49 10 98 6q7 -141 31 -180q22 -37 63 -37q42 0 94 43q57 47 111 117q56 72 112 172q58 103 105 209 q-47 151 -76 260q-37 139 -59 240q-33 142 -107 194q-63 44 -190 44q-19 0 -39 -1q-3 24 -3 47q0 60 23 109q51 5 115 22q51 14 131 43q56 20 121 52q54 26 88 51q62 -12 92 -55q32 -47 60 -162l57 -228q31 -121 61 -219q61 122 129 234q72 119 156 213q81 91 176 155 q92 62 191 62q76 0 131 -19q54 -19 98 -55q-46 -97 -74 -227q-30 -140 -37 -248q-58 -34 -141 -34q-15 0 -31 1q-5 91 -12 146q-7 54 -20 84q-12 28 -29 36q-20 9 -41 9z" />
<glyph unicode="y" horiz-adv-x="1830" d="M483 1913q49 -16 82 -39q33 -22 56 -64t41 -108q15 -56 38 -178q72 -375 109 -672q39 -312 51 -647q271 411 387 698q117 289 117 461q0 85 -47 143q-46 57 -182 78q-26 55 -26 121q0 15 1 31q60 19 115 39q47 17 116 47q50 21 103 49q50 26 72 45q114 -45 167 -131 q54 -88 54 -193q0 -257 -191 -622q-188 -360 -563 -901q-249 -361 -414 -572q-171 -218 -290 -327q-122 -112 -220 -150q-95 -37 -202 -37q-191 0 -365 148q-4 33 -4 64.5t4 62.5q7 59 29 118q92 -32 205 -49q108 -16 208 -16q62 0 125 18t136 68q71 49 157 141 q87 94 201 240q-24 474 -80 889q-55 405 -125 667q-22 76 -39 125q-18 51 -49 82q-30 30 -80 41q-49 10 -127 6q-2 20 -2 38q0 69 23 118q100 12 223 65q115 50 186 103z" />
<glyph unicode="z" horiz-adv-x="1630" d="M1266 553q43 4 94 -8q48 -12 82 -41q-47 -107 -76 -225q-32 -129 -43 -238q-37 -61 -123 -61q-64 0 -115 4q-57 4 -127 6t-161 6q-81 4 -219 4q-239 0 -375 -4q-154 -5 -215 -12q-21 37 -31 77q-7 28 -7 64q0 15 1 31q417 364 745 723q318 348 492 637q-56 16 -127 24 q-74 8 -176 8q-107 0 -180 -12q-75 -12 -130 -39q-56 -27 -96 -70q-46 -50 -86 -108q-56 5 -86 20t-65 50q61 109 106 235q45 124 66 236q110 29 225 41q119 12 299 12q200 0 319 -12q112 -11 213 -29q54 -54 66 -143q-98 -175 -217 -347q-127 -184 -266 -358 q-144 -180 -303 -354t-328 -334q56 7 125 12q60 4 170 4q118 0 192 -10t123 -10q63 0 113 37q53 39 121 184z" />
<glyph unicode="{" horiz-adv-x="1298" d="M1491 3039q13 -30 14 -67v-13q0 -31 -6 -59q-188 -33 -291 -119q-102 -85 -153 -207q-52 -125 -64 -264q-12 -145 -18 -293q-5 -136 -25 -299q-17 -145 -76 -276q-57 -127 -176 -228t-323 -153q188 -57 274 -162q87 -106 109 -242q10 -63 10 -132q0 -80 -14 -165 q-27 -159 -66 -321l-76 -320q-37 -155 -37 -294q0 -135 58 -242q57 -105 205 -158q0 -35 -11 -74t-30 -61q-222 79 -332 199q-111 122 -150 266q-27 101 -27 210q0 48 5 97q17 168 49 326l63 321q26 136 26 249q0 21 -1 42q-6 132 -68 238q-61 104 -217 161q0 81 45 131 q172 61 261 164q86 99 126 230q41 133 48 274q7 147 18 297q11 152 43 295q33 145 121 272q89 128 252 224t434 153z" />
<glyph unicode="|" horiz-adv-x="749" d="M651 2916q63 0 111 -16q49 -16 86 -61q-197 -917 -389 -1915l-357 -1932q-57 4 -108 21t-84 57z" />
<glyph unicode="}" horiz-adv-x="1318" d="M516 3035q241 -84 361 -192q124 -112 170 -240q37 -101 37 -211q0 -29 -3 -59q-12 -141 -45 -285l-65 -281q-30 -122 -30 -228q0 -14 1 -28q5 -120 64 -215q60 -96 211 -157q4 -19 4 -42q0 -39 -13 -89q-176 -50 -272 -156q-97 -108 -148 -248q-50 -137 -71 -307 q-20 -166 -43 -338q-22 -166 -62 -340q-39 -168 -127 -311q-88 -144 -239 -254q-152 -112 -398 -164q-11 35 -16 70q-1 10 -1 21q0 20 5 44q171 33 266 125q96 93 142 225q47 135 59 295l11.5 150l13.5 182q11 157 37 338q24 167 92 309q69 144 194 250q130 110 344 162 q-195 52 -284 147t-107 213q-7 44 -7 92q0 79 19 164q29 132 74 281q36 118 80 283q29 109 29 209q0 28 -2 55q-11 126 -82 227q-72 102 -248 168q7 40 18 78q10 36 31 57z" />
<glyph unicode="~" horiz-adv-x="2240" d="M750 1372q115 0 225 -37q126 -43 219 -80q77 -31 219 -79q110 -37 221 -37q101 0 207 41q102 39 215 143q82 0 123 -66q-162 -212 -311 -292q-148 -80 -279 -80q-110 0 -215 39t-209 88q-102 48 -211 88q-106 39 -221 39q-117 0 -244 -58q-123 -56 -268 -209 q-74 33 -86 107q168 225 320 309q151 84 295 84z" />
<glyph unicode="&#xa1;" horiz-adv-x="1122" d="M459 1712q21 96 76 148q56 53 145 53q111 0 168 -72q40 -51 40 -124q0 -31 -7 -66q-16 -82 -80 -138q-62 -55 -150 -55q-93 0 -153 72q-44 53 -44 127q0 26 5 55zM-8 -831l102 372l117 449l119 485q50 208 108 483q28 3 53 3q74 0 127 -27q-35 -275 -61 -537 q-25 -246 -45 -467q-21 -220 -33 -426l-24 -413q-93 -21 -217 -60q-132 -42 -193 -75q-58 21 -70 67q-3 13 -3 31q0 44 20 115z" />
<glyph unicode="&#xa2;" horiz-adv-x="1531" d="M1102 1913q119 0 188 -21q72 -22 135 -65q-93 -213 -114 -455q-33 -16 -80 -24q-56 -9 -96 -9q0 257 -103 324q-80 -354 -145 -700l-129 -693q108 7 217 70t176 143q54 -39 86 -114q-106 -139 -250 -238q-143 -99 -278 -139q-20 -131 -43 -268l-48 -281q-61 5 -108 20 q-50 16 -84 58l86 442q-164 7 -254 98q-90 90 -125 228q-28 112 -28 246q0 29 1 59q7 164 41 340q28 158 95 311q68 156 159 279q95 128 217 219q124 92 267 137l123 639q62 0 110 -16t86 -62l-61 -270l-58 -258h17zM844 1683q-103 -41 -185 -190q-80 -145 -118 -346 q-24 -128 -39 -250q-13 -108 -13 -209v-22q1 -104 25 -197q22 -86 68 -137z" />
<glyph unicode="&#xa3;" horiz-adv-x="1925" d="M471 1372q-39 135 -41 144q-21 75 -33 155q-13 86 -14 178v16q0 97 18 199q24 137 97 275q72 135 186 237q115 103 268 166q155 64 342 64q191 0 330 -43q143 -44 260 -133q-28 -123 -45 -252t-24 -285q-61 -12 -117 -6t-101 27q4 54 4 102q0 198 -71 287 q-88 110 -301 110q-172 0 -301 -114t-162 -308q-15 -90 -15 -162q0 -43 5 -81q16 -109 43 -197l57 -180q29 -89 33 -199h524q0 -130 -57 -213h-492q-40 -183 -143 -360t-291 -377q180 90 369 90q113 0 202 -33q93 -35 160 -71l129 -72q57 -33 111 -33q115 0 184 111 q43 -7 82 -43q36 -34 49 -68q-69 -157 -192 -248q-124 -92 -267 -92q-108 0 -176 37q-69 38 -141 84t-162 84q-89 37 -237 37q-132 0 -275 -55q-140 -54 -299 -187q-46 29 -76 68q-30 40 -51 88q137 107 240 203q111 103 192 206q84 107 140 226q56 120 80 262q12 74 12 139 q-84 0 -228 -2q-107 -1 -202 -6q-1 16 -1 31q0 119 54 194h344z" />
<glyph unicode="&#xa4;" horiz-adv-x="2211" d="M1630 1479q58 -97 76 -211q8 -50 8 -104q0 -72 -14 -152q-24 -139 -84 -256q-59 -116 -146 -207l230 -250q-28 -28 -82 -45q-52 -16 -102 -21l-181 205q-190 -131 -442 -131q-279 0 -455 144l-225 -213q-48 5 -92 26q-47 23 -80 60l287 249q-72 111 -95 248 q-10 59 -10 125q0 89 19 189q38 218 184 376l-197 205q34 29 86 47q54 18 107 23l139 -160q200 139 483 139q146 0 269 -41q121 -40 207 -114l213 184q45 -11 94 -37q43 -23 65 -57zM1470 979q14 78 14 147q0 176 -91 299q-127 172 -389 172q-206 0 -351 -129 q-144 -128 -182 -338q-16 -86 -16 -163q0 -181 88 -310q124 -182 391 -182q98 0 186 39q87 38 160 107q71 67 121 159q47 87 69 199z" />
<glyph unicode="&#xa5;" horiz-adv-x="2387" d="M1016 1511l-160 392l-135 313q-53 114 -90 186q-37 71 -68 113q-30 40 -61 59q-31 18 -76 35q-9 53 -10 84q-1 39 6 88q133 -9 229 -10q152 -2 226 -2q83 0 241 2q91 1 275 10q0 -46 -11 -92q-12 -50 -26 -88q-202 -29 -254 -96q-23 -29 -23 -77q0 -61 39 -151 q85 -190 168 -407q89 -233 164 -449l160 217l147 203l125 174l92 131q144 214 144 316v10q-7 100 -197 133q-9 44 -9 94q0 39 5 82q120 -9 188 -10q114 -2 205 -2q70 0 182 2q67 1 183 10q0 -92 -37 -176q-37 -12 -68 -35q-34 -25 -80 -73q-45 -46 -125 -150 q-73 -95 -194 -266l-199 -273l-223 -297h487q1 -14 1 -28q0 -102 -50 -185h-598l-65 -86l-37 -196h692q-7 -122 -65 -213h-664l-53 -303q-17 -88 -17 -144t29 -94q27 -36 90 -59q62 -23 172 -39q13 -52 13 -107q0 -34 -5 -69q-152 9 -266 10q-180 2 -258 2q-87 0 -281 -2 q-127 -1 -256 -10q0 101 29 180q104 17 166 39q64 23 102 61q40 40 62 105q21 62 43 168l45 258q-122 0 -354 -2q-174 -1 -342 -6q-4 29 -4 55q0 33 6 65q11 60 39 105h692l33 184l-37 98h-191q-57 0 -159 -2l-152 -4q-76 -1 -166 -6q-1 16 -1 31q0 119 54 194h533z" />
<glyph unicode="&#xa6;" horiz-adv-x="749" d="M651 2916q63 0 111 -16q49 -16 86 -61l-150 -744q-62 -319 -137 -752q-57 5 -108 21t-84 57zM225 700q63 0 111 -16q49 -16 86 -61l-166 -813q-89 -450 -154 -818q-57 4 -108 21t-84 57z" />
<glyph unicode="&#xa7;" horiz-adv-x="2097" d="M954 2482q-10 -48 -10 -92q0 -99 51 -180q71 -113 199 -221q120 -101 274 -209q151 -106 269 -234q118 -129 180 -299q34 -94 34 -209q0 -92 -22 -198q-45 -227 -225 -396q-181 -170 -483 -260q73 -66 139 -139q64 -71 106 -160q41 -87 56 -188q5 -35 5 -74 q0 -68 -16 -151q-41 -210 -235 -346q-197 -138 -514 -138q-351 0 -582 193q21 139 33 264t12 264q70 28 148 28q38 0 78 -7q5 -176 28 -281t72 -168q46 -59 115 -82q66 -22 157 -22q131 0 215 69q85 70 109 189q10 48 10 92q0 99 -51 180q-71 113 -199 221 q-120 101 -274 209q-149 104 -268 234q-120 130 -181 299q-34 94 -34 209q0 92 22 198q50 227 229 396q180 170 480 260q-82 74 -138 139q-61 71 -106 160q-41 81 -57 188q-5 37 -5 78q0 68 15 147q41 210 235 346q197 138 514 138q351 0 582 -193q-21 -140 -33 -264 t-12 -264q-70 -28 -147 -28q-38 0 -78 7q-4 171 -29 281q-23 105 -72 168q-46 59 -114 82q-66 22 -158 22q-131 0 -215 -69q-85 -70 -109 -189zM1528 799q13 69 13 131q0 70 -17 129q-33 112 -103 205q-71 94 -168 172l-200 161q-181 -68 -312 -192q-135 -127 -168 -287 q-13 -67 -13 -127q0 -72 18 -133q34 -116 104 -205q74 -94 170 -174q87 -73 201 -160q176 66 309 193t166 287z" />
<glyph unicode="&#xa8;" horiz-adv-x="1896" d="M713 2441q33 180 225 180q108 0 154 -67q32 -47 32 -112q0 -29 -6 -62q-52 -201 -229 -201q-103 0 -152 72q-32 47 -32 115q0 34 8 75zM1757 2392q-22 -105 -80 -156q-61 -53 -153 -53q-102 0 -152 68q-35 48 -35 117q0 28 6 61q33 192 238 192q99 0 148 -61 q34 -43 34 -108q0 -28 -6 -60z" />
<glyph unicode="&#xa9;" horiz-adv-x="2932" d="M1618 2339q330 0 580 -109q248 -108 401 -309q155 -203 205 -479q22 -122 22 -256q0 -173 -37 -367q-52 -284 -184 -522q-128 -231 -324 -401q-191 -166 -436 -258q-247 -93 -518 -93q-324 0 -577 109q-251 108 -404 309q-155 204 -207 479q-23 125 -23 262q0 171 36 361 q52 287 186 522q133 235 326 402q191 166 436 258q244 92 518 92zM1360 -274q240 0 444 77q207 78 371 224t276 346q114 203 158 446q34 183 34 345q0 108 -15 206q-39 249 -168 424q-129 176 -349 272q-221 97 -526 97q-237 0 -444 -78t-373 -223q-165 -145 -279 -349 q-112 -201 -157 -448q-35 -188 -35 -351q0 -104 14 -198q38 -247 166 -422q129 -176 350 -272t533 -96zM1221 -37q-176 0 -273 86q-96 85 -135 223q-32 113 -32 255q0 28 1 57q7 171 41 350q38 190 121 364q86 180 207 314q123 136 281 219q157 82 346 82q119 0 188 -21 q72 -22 135 -65q-93 -213 -114 -455q-33 -16 -80 -24q-56 -9 -97 -9q0 198 -55 277q-56 80 -174 80q-62 0 -117 -43t-104 -119q-48 -74 -86 -176q-35 -93 -57 -211q-34 -171 -46 -322q-5 -64 -5 -123q0 -83 10 -157q17 -124 71 -199q55 -76 158 -76q117 0 231 64 q113 63 191 149q54 -39 86 -114q-73 -95 -162 -168q-92 -77 -180 -127q-95 -54 -182 -82q-92 -29 -168 -29z" />
<glyph unicode="&#xaa;" horiz-adv-x="1855" d="M1507 1950q-25 -127 -25 -171q0 -7 1 -12q4 -34 45 -34q24 0 63 18q37 17 84 64q27 -20 49 -62t29 -74q-80 -87 -172 -143q-95 -57 -168 -57q-107 0 -156 51t-57 123q-2 22 -2 45q0 52 12 108q18 80 47 144h-8q-47 -86 -104 -166q-63 -88 -131 -152q-70 -65 -156 -110 q-83 -43 -170 -43q-152 0 -215 151q-30 72 -30 188q0 126 36 304q38 179 113 327q77 152 184 258t244 168q136 62 283 62q93 0 172 -29q37 -4 92 4q48 7 84 25q38 -21 45 -70q1 -9 1 -21q0 -60 -30 -196zM1401 2740q-86 25 -176 25q-177 0 -279 -135q-101 -134 -151 -361 q-41 -201 -41 -315q0 -35 4 -62q16 -118 98 -118q36 0 98 45q62 46 129 139q74 104 138 237q70 147 122 340z" />
<glyph unicode="&#xab;" horiz-adv-x="1712" d="M831 1712q47 -5 84 -26q39 -22 56 -52q-61 -61 -121 -129l-137 -153q-79 -89 -131 -154q-62 -76 -99 -129q16 -43 56 -139q33 -79 75 -166l80 -160q31 -60 68 -125q-7 -43 -35 -82q-26 -36 -59 -57q-124 173 -273 352q-128 153 -256 291q0 97 54 160l331 282 q144 124 307 287zM1487 1688q45 -4 84 -27q38 -22 55 -51l-115 -129l-120 -146l-115 -143l-96 -123l49 -133l61 -154l66 -153q35 -81 61 -129q-7 -43 -35 -82q-27 -38 -59 -58q-268 367 -487 623q0 98 53 160q104 85 166 141l147 131q62 54 141 131z" />
<glyph unicode="&#xac;" horiz-adv-x="2203" d="M1855 467q-47 -25 -108 -31q-21 -2 -42 -2q-41 0 -79 8l131 783q-236 0 -782 -2q-289 -1 -782 -11v18q0 114 53 191h1769z" />
<glyph unicode="&#xad;" horiz-adv-x="1404" d="M1323 1225q-5 -93 -16 -150q-11 -55 -37 -117q-110 0 -492 -2q-222 -1 -643 -10q7 92 23 158q16 68 47 121h1118z" />
<glyph unicode="&#xae;" horiz-adv-x="2031" d="M1323 2769q181 0 317 -66q138 -67 226 -180q89 -115 119 -266q14 -68 14 -141q0 -88 -21 -183q-66 -336 -290 -518t-558 -182q-178 0 -313 67t-225 183q-88 113 -121 266q-17 76 -17 157t17 167q69 324 297 510t555 186zM1835 1925q16 85 16 163q0 62 -10 120 q-22 130 -92 227t-180 152t-258 55q-265 0 -455 -154q-188 -152 -238 -407q-15 -77 -15 -150q0 -63 11 -123q23 -125 95 -225q69 -96 182 -153q114 -58 256 -58q260 0 450 152q189 151 238 401zM1024 2245q8 58 -8 75q-18 20 -70 27q-8 50 4 86q40 -4 88 -4h88q33 0 113 2 t109 2q136 0 198 -61q48 -47 48 -121q0 -24 -5 -51q-17 -83 -88 -144q-73 -62 -178 -86q29 -46 47 -80q21 -40 55 -121q32 -81 78 -81q29 0 53 24q33 -24 33 -70q-61 -77 -159 -77t-148 159q-22 76 -45 127q-25 55 -53 99l-62 4l-28 -156q-17 -87 -7 -108q11 -23 56 -31 q20 -35 12 -86q-44 4 -88 4h-80h-88q-47 0 -80 -4q0 24 4 45t13 41q55 7 77 35q20 26 37 121zM1184 2036q108 0 170 37q64 38 80 118q3 18 3 35q0 47 -24 80q-33 45 -119 45q-56 0 -106 -12l-53 -303h49z" />
<glyph unicode="&#xaf;" horiz-adv-x="2211" d="M1819 2585q0 -88 -37 -177q-298 0 -774 -2q-309 -1 -652 -10q0 12 9 88q8 65 28 101h1426z" />
<glyph unicode="&#xb0;" horiz-adv-x="1576" d="M1118 2867q262 0 395 -145q100 -109 100 -274q0 -55 -11 -117q-38 -213 -195 -342t-383 -129q-267 0 -397 157q-97 118 -97 293q0 60 11 127q33 196 190 313t387 117zM1094 2712q-98 0 -172 -74t-95 -193q-11 -66 -11 -124q0 -108 40 -183q62 -115 193 -115q95 0 168 84 q74 84 98 220q11 60 11 111q0 97 -40 167q-62 107 -192 107z" />
<glyph unicode="&#xb1;" horiz-adv-x="1859" d="M1786 1499q1 -15 1 -29q0 -100 -46 -172h-668l-55 -309q-21 -120 -47 -297q-52 -16 -111 -10q-58 6 -98 39l110 573q-116 0 -340 -2q-167 -1 -323 -6q-1 15 -1 29q0 112 54 184h647l119 615q56 22 109 22t104 -22q-28 -107 -65 -285l-66 -330h676zM1655 537 q-7 -120 -66 -213q-271 0 -755 -2q-217 -1 -781 -11q-1 16 -1 31q0 120 54 195h1549z" />
<glyph unicode="&#xb2;" horiz-adv-x="1298" d="M1421 2519q-21 -109 -98 -209q-80 -104 -250 -233l-84 -62l-108 -80l-119 -92l-115 -90q36 4 80 4h80q87 0 123 -4t98 -4q70 0 133 57t92 176q44 9 76 5q39 -5 72 -21q-15 -56 -21 -104l-16 -117q-9 -66 -10 -111q-2 -70 -2 -90q-40 -78 -176 -78q-98 0 -189 4 q-113 5 -254 5h-272q-119 0 -256 -9q-18 33 -18 77q0 25 6 54l147 121l164 131l153 117l117 86q131 95 207 199t100 239q9 49 9 89q0 69 -27 112q-44 70 -141 70q-98 0 -162 -97q-63 -96 -129 -309q-47 -4 -105 2q-55 6 -88 27q33 84 51 201q19 118 23 213q245 139 496 139 q230 0 344 -105q82 -75 82 -203q0 -51 -13 -110z" />
<glyph unicode="&#x2072;" horiz-adv-x="1298" d="M1421 2519q-21 -109 -98 -209q-80 -104 -250 -233l-84 -62l-108 -80l-119 -92l-115 -90q36 4 80 4h80q87 0 123 -4t98 -4q70 0 133 57t92 176q44 9 76 5q39 -5 72 -21q-15 -56 -21 -104l-16 -117q-9 -66 -10 -111q-2 -70 -2 -90q-40 -78 -176 -78q-98 0 -189 4 q-113 5 -254 5h-272q-119 0 -256 -9q-18 33 -18 77q0 25 6 54l147 121l164 131l153 117l117 86q131 95 207 199t100 239q9 49 9 89q0 69 -27 112q-44 70 -141 70q-98 0 -162 -97q-63 -96 -129 -309q-47 -4 -105 2q-55 6 -88 27q33 84 51 201q19 118 23 213q245 139 496 139 q230 0 344 -105q82 -75 82 -203q0 -51 -13 -110z" />
<glyph unicode="&#xb3;" horiz-adv-x="1277" d="M1364 2527q-21 -110 -104 -198q-82 -86 -248 -170q184 -40 280 -185q64 -96 64 -233q0 -70 -17 -152q-29 -128 -106 -235q-78 -109 -193 -187q-109 -75 -262 -120q-145 -43 -315 -43q-99 0 -193 24q-90 23 -143 66q0 34 25 73q24 37 53 54q32 -21 104 -37q74 -17 166 -17 q204 0 346 107q141 106 178 295q12 53 12 100q0 112 -67 195q-96 118 -346 118q-21 17 -29 48q-7 30 0 63q227 74 328 178q102 105 135 248q7 36 7 68q0 59 -25 106q-39 72 -142 72q-122 0 -194 -92q-70 -89 -137 -322q-50 -8 -103 0q-52 7 -86 29q27 85 49 205 q20 111 25 208q96 70 223 107t260 37q237 0 365 -107q99 -82 99 -218q0 -40 -9 -85z" />
<glyph unicode="&#x2073;" horiz-adv-x="1277" d="M1364 2527q-21 -110 -104 -198q-82 -86 -248 -170q184 -40 280 -185q64 -96 64 -233q0 -70 -17 -152q-29 -128 -106 -235q-78 -109 -193 -187q-109 -75 -262 -120q-145 -43 -315 -43q-99 0 -193 24q-90 23 -143 66q0 34 25 73q24 37 53 54q32 -21 104 -37q74 -17 166 -17 q204 0 346 107q141 106 178 295q12 53 12 100q0 112 -67 195q-96 118 -346 118q-21 17 -29 48q-7 30 0 63q227 74 328 178q102 105 135 248q7 36 7 68q0 59 -25 106q-39 72 -142 72q-122 0 -194 -92q-70 -89 -137 -322q-50 -8 -103 0q-52 7 -86 29q27 85 49 205 q20 111 25 208q96 70 223 107t260 37q237 0 365 -107q99 -82 99 -218q0 -40 -9 -85z" />
<glyph unicode="&#xb4;" horiz-adv-x="1105" d="M926 2933q95 26 188 26q22 0 45 -2q109 -7 189 -61q-150 -141 -328 -338q-170 -187 -328 -399q-90 7 -147 57q129 203 233 399q95 179 148 318z" />
<glyph unicode="&#xb5;" horiz-adv-x="2019" d="M770 1876l-160 -819q-44 -220 -44 -378q0 -118 24 -200q57 -192 176 -192q61 0 139 63q76 61 154 187q75 121 143 305q69 188 113 415l119 619h372l-200 -1016q-45 -220 -66 -340q-18 -108 -24 -184q-4 -61 12 -76q15 -14 53 -14q45 0 88 28q41 27 113 99q28 -24 47 -60 q21 -41 31 -71q-99 -114 -224 -197q-124 -82 -235 -82q-168 0 -215 109q-28 65 -28 148q0 57 13 120q14 72 29 125q10 37 25 72h-4q-45 -126 -111 -232q-65 -104 -143 -180q-75 -74 -158 -119q-79 -43 -158 -43q-131 0 -194 68q-64 69 -88 174h-4q1 -24 1 -49 q0 -77 -10 -176q-13 -131 -32 -226q-25 -123 -35 -252q-4 -52 -4 -98q0 -71 10 -129q-94 -39 -207 -113q-121 -79 -199 -153q-51 33 -51 112q0 27 6 60q7 43 23 86q14 39 33 104q24 84 43 160q26 103 53 252l401 2093h373z" />
<glyph unicode="&#x3bc;" horiz-adv-x="2019" d="M770 1876l-160 -819q-44 -220 -44 -378q0 -118 24 -200q57 -192 176 -192q61 0 139 63q76 61 154 187q75 121 143 305q69 188 113 415l119 619h372l-200 -1016q-45 -220 -66 -340q-18 -108 -24 -184q-4 -61 12 -76q15 -14 53 -14q45 0 88 28q41 27 113 99q28 -24 47 -60 q21 -41 31 -71q-99 -114 -224 -197q-124 -82 -235 -82q-168 0 -215 109q-28 65 -28 148q0 57 13 120q14 72 29 125q10 37 25 72h-4q-45 -126 -111 -232q-65 -104 -143 -180q-75 -74 -158 -119q-79 -43 -158 -43q-131 0 -194 68q-64 69 -88 174h-4q1 -24 1 -49 q0 -77 -10 -176q-13 -131 -32 -226q-25 -123 -35 -252q-4 -52 -4 -98q0 -71 10 -129q-94 -39 -207 -113q-121 -79 -199 -153q-51 33 -51 112q0 27 6 60q7 43 23 86q14 39 33 104q24 84 43 160q26 103 53 252l401 2093h373z" />
<glyph unicode="&#xb6;" horiz-adv-x="2273" d="M1282 1303q-49 -9 -84 -9h-72q-417 0 -612 203q-143 149 -143 402q0 90 18 194q24 147 107 272q85 129 223 218q142 92 348 143q207 51 485 51q204 0 328 -4t283 -4q51 0 139 2q50 1 156 10q-7 -94 -37 -176q-91 -12 -148 -31q-54 -18 -86 -55q-33 -37 -49 -96 q-16 -60 -33 -150l-112 -596l-99 -532l-90 -502l-86 -506l-88 -540l-94 -605q-45 -8 -88 -8q-62 0 -117 17l627 3592q-56 4 -115 6q-76 2 -123 2l-172 -911l-159 -885l-154 -891l-150 -930q-34 -4 -64 -4q-23 0 -44 2q-50 6 -92 31zM1511 2605q-193 0 -323 -27 q-132 -27 -217 -84q-87 -58 -133 -151q-49 -100 -72 -229q-17 -97 -17 -179q0 -72 13 -131q28 -124 102 -202t189 -113q116 -35 258 -35z" />
<glyph unicode="&#xb7;" horiz-adv-x="684" d="M590 1098q-21 -96 -76 -148q-56 -53 -145 -53q-111 0 -168 72q-40 51 -40 124q0 31 7 66q16 81 80 137t149 56q94 0 154 -72q44 -53 44 -127q0 -26 -5 -55z" />
<glyph unicode="&#xb8;" horiz-adv-x="2211" d="M1110 -225q152 -33 219 -133q44 -66 44 -167q0 -56 -13 -122q-38 -176 -203 -264q-152 -81 -362 -81q-18 0 -37 1q-9 29 -9 68q0 29 5 63q152 0 247 49q96 49 117 156q5 29 5 54q0 79 -48 126q-62 61 -178 61q-29 24 -41 64q-12 39 0 92l266 324h226z" />
<glyph unicode="&#xb9;" horiz-adv-x="1048" d="M635 2380q21 106 27 174q6 67 -9 110t-59 64q-46 22 -123 29q-9 44 -10 71q-1 34 6 84q96 -9 176 -10q126 -2 225 -2q98 0 230 2q83 1 188 10q0 -78 -37 -155q-72 -12 -119 -37q-44 -24 -75 -68q-32 -47 -49 -108q-20 -72 -35 -164l-74 -385q-21 -107 -27 -172t11 -105 t59 -57q47 -20 117 -31q13 -47 13 -100q0 -33 -5 -68q-126 10 -193 11q-132 2 -217 2q-83 0 -227 -2q-86 -1 -182 -11q0 106 33 168q68 7 120 27q47 18 76 59t47 107q18 67 39 172z" />
<glyph unicode="&#x2071;" horiz-adv-x="1048" d="M635 2380q21 106 27 174q6 67 -9 110t-59 64q-46 22 -123 29q-9 44 -10 71q-1 34 6 84q96 -9 176 -10q126 -2 225 -2q98 0 230 2q83 1 188 10q0 -78 -37 -155q-72 -12 -119 -37q-44 -24 -75 -68q-32 -47 -49 -108q-20 -72 -35 -164l-74 -385q-21 -107 -27 -172t11 -105 t59 -57q47 -20 117 -31q13 -47 13 -100q0 -33 -5 -68q-126 10 -193 11q-132 2 -217 2q-83 0 -227 -2q-86 -1 -182 -11q0 106 33 168q68 7 120 27q47 18 76 59t47 107q18 67 39 172z" />
<glyph unicode="&#xba;" horiz-adv-x="1691" d="M1237 2937q269 0 391 -195q82 -132 82 -327q0 -92 -18 -199q-32 -168 -103 -311q-68 -138 -170 -238q-99 -97 -225 -149q-127 -52 -260 -52q-269 0 -387 187q-80 128 -80 317q0 86 16 184q33 181 105 326q73 148 170 246q100 101 221 156q122 55 258 55zM1204 2765 q-123 0 -219 -137q-95 -135 -145 -416q-29 -160 -29 -275q0 -86 16 -149q37 -150 136 -150q117 0 219 138q99 135 149 419q26 131 27 226v17q0 92 -15 163q-16 77 -51 121q-34 43 -88 43z" />
<glyph unicode="&#xbb;" horiz-adv-x="1748" d="M860 524l244 244q122 125 227 248l-59 147q-36 89 -78 176l-86 177q-50 98 -80 151q49 39 117 39q17 0 35 -2q109 -151 215 -283q108 -135 231 -270q21 -43 21 -88q0 -35 -13 -72l-173.5 -142l-182.5 -161l-356 -319q-62 62 -62 155zM180 545l223 235q113 126 203 236 q-45 130 -117 303q-74 177 -145 328q48 38 116 38q17 0 36 -2q108 -158 196 -274q86 -113 209 -258q21 -43 21 -88q0 -35 -13 -72l-334 -289l-333 -313q-62 62 -62 156z" />
<glyph unicode="&#xbc;" horiz-adv-x="3080" d="M676 2314q20 96 22 158q2 61 -20 94q-22 34 -78 45q-53 10 -149 10q-6 29 -6 55q0 61 34 109q162 21 289 56t256 96q59 -22 88 -80q18 -37 18 -88q0 -34 -8 -74l-209 -1069q-15 -77 -20 -141q-5 -55 12 -90t56 -52t104 -24q13 -47 14 -88q1 -43 -6 -88q-174 9 -227 10 q-112 2 -191 2q-76 0 -194 -2q-63 -1 -215 -10q0 38 8 92q7 50 20 80q74 7 117 24q42 16 72 52q28 34 45 88q16 51 33 139zM2801 2933q119 -62 140 -168l-584 -711l-545 -674l-540 -682l-572 -735q-47 23 -84 66q-36 42 -43 94zM2880 680q57 0 98 -41q-11 -22 -24 -66 l-25 -86q-14 -51 -20 -88q-2 -14 -6.5 -37.5l-6.5 -33.5h-213l-61 -328h-381l61 324q-238 -4 -407 -9q-224 -6 -268 -8q-36 28 -64 103q-20 54 -20 100q0 14 2 27l624 639l604 663q18 1 36 1q39 0 71 -7q45 -11 78 -27l-209 -1126h131zM2405 885q24 137 47 233 q30 129 63 221h-4q-34 -51 -104 -137q-76 -93 -215 -244q-78 -85 -154 -157l-133 -121h463z" />
<glyph unicode="&#xbd;" horiz-adv-x="3489" d="M676 2314q20 96 22 158q2 61 -20 94q-22 34 -78 45q-53 10 -149 10q-6 29 -6 55q0 61 34 109q162 21 289 56t256 96q59 -22 88 -80q18 -37 18 -88q0 -34 -8 -74l-209 -1069q-15 -77 -20 -141q-5 -55 12 -90t56 -52t104 -24q13 -47 14 -88q1 -43 -6 -88q-174 9 -227 10 q-112 2 -191 2q-76 0 -194 -2q-63 -1 -215 -10q0 38 8 92q7 50 20 80q74 7 117 24q42 16 72 52q28 34 45 88q16 51 33 139zM2801 2933q119 -62 140 -168l-584 -711l-545 -674l-540 -682l-572 -735q-47 23 -84 66q-36 42 -43 94zM3359 1364q-33 -174 -149 -303 q-119 -132 -347 -295l-108 -80l-135 -102l-146 -117l-139 -115q61 8 109 8h112q95 0 162 -8t121 -8q63 0 119 49q57 49 94 193q40 4 104 -4q58 -7 84 -25q-25 -117 -35 -246q-7 -91 -7 -165q0 -32 1 -60q-21 -45 -61 -72q-39 -26 -115 -26q-98 0 -219 6t-313 6h-146 q-43 0 -127 -2q-63 -2 -133 -4q-71 -2 -160 -6q-23 37 -34 94q-6 30 -6 58q0 23 4 44l180 166l186 160l174 141l144 115q177 136 260 258q83 121 116 274q15 77 15 140q0 73 -21 127q-39 98 -161 98q-151 0 -230 -115q-76 -111 -143 -389q-45 -4 -111 4q-60 7 -94 29 q74 227 86 471q153 97 287 137q130 39 286 39q270 0 406 -125q101 -93 101 -244q0 -50 -11 -106z" />
<glyph unicode="&#xbe;" horiz-adv-x="3133" d="M2850 2933q119 -62 140 -168l-584 -711l-545 -674l-540 -682l-572 -735q-47 23 -84 66q-36 42 -43 94zM2929 680q57 0 98 -41q-11 -22 -24 -66l-25 -86q-14 -51 -20 -88q-2 -14 -6.5 -37.5l-6.5 -33.5h-213l-61 -328h-381l61 324q-238 -4 -407 -9q-224 -6 -268 -8 q-36 28 -64 103q-20 54 -20 100q0 14 2 27l624 639l604 663q18 1 36 1q39 0 71 -7q45 -11 78 -27l-209 -1126h131zM2454 885q24 137 47 233q30 129 63 221h-4q-34 -51 -104 -137q-76 -93 -215 -244q-78 -85 -154 -157l-133 -121h463zM1405 2499q-24 -119 -127 -228 q-101 -107 -246 -157q178 -38 279 -158q71 -84 71 -216q0 -58 -14 -126q-28 -122 -102 -217q-72 -93 -183 -156q-109 -62 -243 -92q-140 -31 -283 -31q-189 0 -285 33t-153 78q0 45 24 96q24 50 58 72q53 -35 125 -58q76 -24 194 -24q166 0 281 71q116 72 145 220q9 45 9 84 q0 100 -60 165q-85 91 -305 91q-21 46 -17 86q5 41 21 86q188 28 276 118q88 89 121 242q9 50 9 92q0 65 -23 111q-39 76 -141 76q-98 0 -168 -97q-71 -98 -136 -342q-49 -7 -110 0q-59 7 -98 29l26 100q15 62 27 121q14 70 20 121q9 72 9 104q97 63 231 103q138 41 256 41 q277 0 418 -103q105 -77 105 -228q0 -50 -11 -107z" />
<glyph unicode="&#xbf;" horiz-adv-x="1839" d="M897 1708q21 95 76 147q57 54 145 54q111 0 168 -72q40 -51 40 -124q0 -31 -7 -66q-16 -82 -80 -138q-62 -55 -149 -55q-94 0 -154 72q-44 53 -44 127q0 26 5 55zM1180 -872q-69 -61 -230 -119q-162 -58 -352 -58q-308 0 -461 162q-113 120 -113 300q0 63 13 132 q24 133 90 234q68 106 147 190q80 86 177 172q87 78 176 176q80 89 145 203q64 113 92 254q13 55 19 135q2 35 2 67q0 43 -4 77q35 20 67 26q30 6 68 6q54 -46 82 -184q13 -66 13 -139q0 -83 -17 -176q-40 -202 -142 -344q-99 -137 -209 -252l-202 -221q-95 -109 -119 -252 q-12 -63 -12 -119q0 -93 34 -164q56 -115 215 -115q140 0 242 121q104 124 189 408q62 0 104 -8q35 -7 76 -33l-37 -133q-16 -59 -27 -113q-9 -46 -16 -109q-5 -45 -10 -124z" />
<glyph unicode="&#xc0;" horiz-adv-x="2813" d="M541 586q-75 -129 -101 -195q-30 -77 -20 -123q11 -47 55 -69q47 -23 127 -35q13 -67 13 -138q0 -19 -1 -38q-116 9 -190 10q-122 2 -186 2q-81 0 -183 -2q-60 -1 -166 -10q0 38 7 90q6 48 26 86q59 17 103 45t90 80t98 131q65 99 123 198l618 1072l607 1079q35 15 81 20 q40 4 78 4l308 -1122q149 -570 282 -1130q29 -114 53 -183q23 -64 52 -106q28 -40 59 -57q37 -20 78 -31q13 -47 14 -88q1 -17 1 -32q0 -30 -3 -56q-118 9 -231 10q-172 2 -224 2q-67 0 -225 -2q-98 -1 -242 -10q0 38 7 90q6 48 26 86q86 11 146 31q57 18 80 55q24 38 24 96 q0 60 -24 154l-95 397q-290 0 -553 -4q-293 -4 -540 -12zM1757 1085q-49 207 -94 375l-102 371q-35 126 -56 211t-43 219q-61 -127 -114 -227l-123 -232l-193 -358l-201 -359h926zM1188 3777q78 31 186 36q13 1 26 1q91 0 173 -29q26 -159 70 -342q40 -169 110 -355 q-24 -10 -59 -10h-10q-39 1 -74 19q-71 143 -193 346q-110 183 -229 334z" />
<glyph unicode="&#xc1;" horiz-adv-x="2813" d="M541 586q-75 -129 -101 -195q-30 -77 -20 -123q11 -47 55 -69q47 -23 127 -35q13 -67 13 -138q0 -19 -1 -38q-116 9 -190 10q-122 2 -186 2q-81 0 -183 -2q-60 -1 -166 -10q0 38 7 90q6 48 26 86q59 17 103 45t90 80t98 131q65 99 123 198l618 1072l607 1079q35 15 81 20 q40 4 78 4l308 -1122q149 -570 282 -1130q29 -114 53 -183q23 -64 52 -106q28 -40 59 -57q37 -20 78 -31q13 -47 14 -88q1 -17 1 -32q0 -30 -3 -56q-118 9 -231 10q-172 2 -224 2q-67 0 -225 -2q-98 -1 -242 -10q0 38 7 90q6 48 26 86q86 11 146 31q57 18 80 55q24 38 24 96 q0 60 -24 154l-95 397q-290 0 -553 -4q-293 -4 -540 -12zM1757 1085q-49 207 -94 375l-102 371q-35 126 -56 211t-43 219q-61 -127 -114 -227l-123 -232l-193 -358l-201 -359h926zM1909 3826q95 26 188 26q22 0 45 -2q109 -7 189 -61q-150 -141 -328 -338 q-170 -187 -328 -399q-90 7 -147 57q129 203 233 399q95 179 148 318z" />
<glyph unicode="&#xc2;" horiz-adv-x="2813" d="M541 586q-75 -129 -101 -195q-30 -77 -20 -123q11 -47 55 -69q47 -23 127 -35q13 -67 13 -138q0 -19 -1 -38q-116 9 -190 10q-122 2 -186 2q-81 0 -183 -2q-60 -1 -166 -10q0 38 7 90q6 48 26 86q59 17 103 45t90 80t98 131q65 99 123 198l618 1072l607 1079q35 15 81 20 q40 4 78 4l308 -1122q149 -570 282 -1130q29 -114 53 -183q23 -64 52 -106q28 -40 59 -57q37 -20 78 -31q13 -47 14 -88q1 -17 1 -32q0 -30 -3 -56q-118 9 -231 10q-172 2 -224 2q-67 0 -225 -2q-98 -1 -242 -10q0 38 7 90q6 48 26 86q86 11 146 31q57 18 80 55q24 38 24 96 q0 60 -24 154l-95 397q-290 0 -553 -4q-293 -4 -540 -12zM1757 1085q-49 207 -94 375l-102 371q-35 126 -56 211t-43 219q-61 -127 -114 -227l-123 -232l-193 -358l-201 -359h926zM1786 3781q17 3 35 3l121 -32q101 -157 196 -287q99 -135 213 -274q-12 -41 -47 -74 q-34 -33 -76 -45q-113 94 -235 178q-132 91 -248 154q-145 -73 -287 -158q-144 -87 -274 -182q-25 39 -35 88q-6 27 -6 54q0 21 4 42q180 128 332 256q170 142 307 277z" />
<glyph unicode="&#xc3;" horiz-adv-x="2813" d="M541 586q-75 -129 -101 -195q-30 -77 -20 -123q11 -47 55 -69q47 -23 127 -35q13 -67 13 -138q0 -19 -1 -38q-116 9 -190 10q-122 2 -186 2q-81 0 -183 -2q-60 -1 -166 -10q0 38 7 90q6 48 26 86q59 17 103 45t90 80t98 131q65 99 123 198l618 1072l607 1079q35 15 81 20 q40 4 78 4l308 -1122q149 -570 282 -1130q29 -114 53 -183q23 -64 52 -106q28 -40 59 -57q37 -20 78 -31q13 -47 14 -88q1 -17 1 -32q0 -30 -3 -56q-118 9 -231 10q-172 2 -224 2q-67 0 -225 -2q-98 -1 -242 -10q0 38 7 90q6 48 26 86q86 11 146 31q57 18 80 55q24 38 24 96 q0 60 -24 154l-95 397q-290 0 -553 -4q-293 -4 -540 -12zM1757 1085q-49 207 -94 375l-102 371q-35 126 -56 211t-43 219q-61 -127 -114 -227l-123 -232l-193 -358l-201 -359h926zM1511 3461q75 0 139 -26t127 -60l117 -59q55 -27 113 -27q82 0 155 39q75 40 144 109 q49 -21 73 -82q-69 -106 -131 -176q-66 -74 -114 -111q-51 -39 -103 -55q-50 -15 -94 -15q-69 0 -135 27q-67 28 -127 61q-64 36 -125 62t-129 26q-97 0 -178 -32q-85 -33 -191 -123q-42 28 -42 80q0 9 1 18q156 200 281 273q123 71 219 71z" />
<glyph unicode="&#xc4;" horiz-adv-x="2813" d="M541 586q-75 -129 -101 -195q-30 -77 -20 -123q11 -47 55 -69q47 -23 127 -35q13 -67 13 -138q0 -19 -1 -38q-116 9 -190 10q-122 2 -186 2q-81 0 -183 -2q-60 -1 -166 -10q0 38 7 90q6 48 26 86q59 17 103 45t90 80t98 131q65 99 123 198l618 1072l607 1079q35 15 81 20 q40 4 78 4l308 -1122q149 -570 282 -1130q29 -114 53 -183q23 -64 52 -106q28 -40 59 -57q37 -20 78 -31q13 -47 14 -88q1 -17 1 -32q0 -30 -3 -56q-118 9 -231 10q-172 2 -224 2q-67 0 -225 -2q-98 -1 -242 -10q0 38 7 90q6 48 26 86q86 11 146 31q57 18 80 55q24 38 24 96 q0 60 -24 154l-95 397q-290 0 -553 -4q-293 -4 -540 -12zM1757 1085q-49 207 -94 375l-102 371q-35 126 -56 211t-43 219q-61 -127 -114 -227l-123 -232l-193 -358l-201 -359h926zM1229 3334q33 180 225 180q108 0 154 -67q32 -47 32 -112q0 -29 -6 -62q-52 -201 -229 -201 q-103 0 -152 72q-32 47 -32 115q0 34 8 75zM2273 3285q-22 -105 -80 -156q-61 -53 -153 -53q-102 0 -152 68q-35 48 -35 117q0 28 6 61q33 192 238 192q99 0 148 -61q34 -43 34 -108q0 -28 -6 -60z" />
<glyph unicode="&#xc5;" horiz-adv-x="2813" d="M541 586q-75 -129 -101 -195q-30 -77 -20 -123q11 -47 55 -69q47 -23 127 -35q13 -67 13 -138q0 -19 -1 -38q-116 9 -190 10q-122 2 -186 2q-81 0 -183 -2q-60 -1 -166 -10q0 38 7 90q6 48 26 86q59 17 103 45t90 80t98 131q65 99 123 198l618 1072l607 1079q35 15 81 20 q40 4 78 4l308 -1122q149 -570 282 -1130q29 -114 53 -183q23 -64 52 -106q28 -40 59 -57q37 -20 78 -31q13 -47 14 -88q1 -17 1 -32q0 -30 -3 -56q-118 9 -231 10q-172 2 -224 2q-67 0 -225 -2q-98 -1 -242 -10q0 38 7 90q6 48 26 86q86 11 146 31q57 18 80 55q24 38 24 96 q0 60 -24 154l-95 397q-290 0 -553 -4q-293 -4 -540 -12zM1757 1085q-49 207 -94 375l-102 371q-35 126 -56 211t-43 219q-61 -127 -114 -227l-123 -232l-193 -358l-201 -359h926zM1360 3453q24 155 144 248q119 92 315 92q191 0 291 -115q73 -85 73 -214q0 -44 -8 -93 q-21 -143 -139 -233q-120 -91 -315 -91q-196 0 -295 111q-74 83 -74 207q0 42 8 88zM1577 3433q-6 -31 -6 -59q0 -66 35 -111q50 -64 143 -64q79 0 132 47t65 129q9 46 9 84q0 70 -29 119q-45 76 -144 76q-73 0 -129 -62q-55 -61 -76 -159z" />
<glyph unicode="&#xc6;" horiz-adv-x="3465" d="M2191 1397h172q133 0 217 14q93 15 152 53q62 39 96 105t51 168q61 9 97 10q43 1 100 -6l-45 -199q-18 -83 -41 -256q-20 -137 -31 -258q-11 -111 -18 -213q-50 7 -105 19q-46 10 -83 34q3 32 3 62q0 155 -73 217q-86 74 -336 74h-188l-107 -635q-18 -113 -18 -198v-13 q2 -80 34 -123t107 -55q80 -13 192 -13q187 0 312 35q124 35 207 100q84 66 145 164q61 99 123 222q56 -7 102 -29q43 -20 82 -62q-72 -136 -127 -288q-56 -154 -94 -338q-215 9 -373 10q-252 2 -417 2q-219 0 -543 -2q-203 -1 -490 -10q0 92 29 176q93 12 152 35 q57 22 94 67q35 42 57 123q18 66 41 197l111 635q-116 0 -342 -2q-119 -1 -326 -11l-516 -708q-111 -152 -111 -228q0 -75 119 -108q13 -67 13 -138q0 -19 -1 -38q-116 9 -190 10q-122 2 -186 2q-81 0 -183 -2q-60 -1 -166 -10q0 38 7 90q6 48 26 86q58 17 107 39 q51 23 100 65q53 46 115 113q66 73 149 180l633 840l592 803q105 146 105 239q0 139 -236 162q-9 44 -9 94q0 39 5 82q128 -5 235 -6l217 -4q144 -2 228 -2h262q151 0 497 2q204 1 580 10q-22 -162 -29 -340q-4 -92 -4 -173.5t4 -153.5q-70 -30 -175 -30q-14 0 -29 1 q-4 127 -23 225q-18 93 -76 156q-57 61 -172 90q-116 29 -311 29h-295zM2019 2515l-303 -455l-471 -663h565l123 708q24 135 43 224q20 93 47 186h-4z" />
<glyph unicode="&#xc7;" horiz-adv-x="2519" d="M1171 -29q-268 33 -466 152q-197 119 -318 301t-166 418q-26 136 -26 282q0 107 14 219q49 385 209 662q159 276 383 455q222 178 489 262q266 84 529 84q257 0 460 -60q206 -61 408 -182q-56 -148 -84 -291q-30 -151 -51 -327q-58 -23 -121 -23q-49 0 -100 14 q16 122 16 218q0 77 -10 137q-23 137 -88 213q-65 75 -168 104q-104 29 -234 29q-260 0 -473 -101q-211 -100 -362 -272q-153 -174 -246 -405q-95 -234 -123 -496q-10 -96 -10 -188q0 -129 20 -250q35 -210 135 -367t269 -252q167 -94 409 -94q224 0 430 63q202 62 390 175 q58 -58 65 -156q-234 -168 -471 -246q-239 -79 -487 -86l-156 -188q152 -33 219 -133q44 -66 44 -167q0 -56 -13 -122q-38 -176 -203 -264q-152 -81 -362 -81q-18 0 -37 1q-9 29 -9 68q0 29 5 63q152 0 247 49q96 49 117 156q5 29 5 54q0 79 -48 126q-62 61 -178 61 q-29 24 -41 64q-12 39 0 92z" />
<glyph unicode="&#xc8;" horiz-adv-x="2248" d="M946 3777q78 31 186 36q13 1 26 1q91 0 173 -29q26 -159 70 -342q40 -169 110 -355q-24 -10 -59 -10h-10q-39 1 -74 19q-71 143 -193 346q-110 183 -229 334zM991 1491h168q133 0 217 14q94 16 152 51q62 38 96 103q34 66 51 168q61 9 97 10q43 1 100 -6l-45 -199 q-18 -83 -41 -256q-20 -137 -31 -258q-11 -111 -18 -213q-50 7 -105 19q-48 11 -84 34q3 33 3 63q0 154 -72 214q-85 72 -336 72h-185l-122 -721q-21 -130 -21 -209q0 -77 33 -121q32 -42 102 -57q69 -15 185 -15h16q186 0 311 35q124 35 207 100q86 68 146 164 q56 91 122 222q57 -7 103 -29q43 -20 82 -62q-72 -136 -127 -288q-56 -154 -94 -338q-215 9 -373 10q-252 2 -418 2q-219 0 -543 -2q-202 -1 -489 -10q0 95 28 176q93 12 152 35q57 22 94 67q37 44 58 123q18 66 41 197l294 1683q15 94 15 153v11q-1 59 -27 96 q-23 34 -76 49q-51 15 -129 27q-9 47 -10 84q-1 43 6 92q250 -9 394 -10q240 -2 290 -2q152 0 498 2q204 1 580 10q-22 -162 -29 -340q-4 -92 -4 -173.5t4 -153.5q-70 -30 -176 -30q-14 0 -29 1q-5 134 -22 225q-18 93 -76 156q-57 61 -172 90q-116 29 -312 29h-294z" />
<glyph unicode="&#xc9;" horiz-adv-x="2248" d="M991 1491h168q133 0 217 14q94 16 152 51q62 38 96 103q34 66 51 168q61 9 97 10q43 1 100 -6l-45 -199q-18 -83 -41 -256q-20 -137 -31 -258q-11 -111 -18 -213q-50 7 -105 19q-48 11 -84 34q3 33 3 63q0 154 -72 214q-85 72 -336 72h-185l-122 -721q-21 -130 -21 -209 q0 -77 33 -121q32 -42 102 -57q69 -15 185 -15h16q186 0 311 35q124 35 207 100q86 68 146 164q56 91 122 222q57 -7 103 -29q43 -20 82 -62q-72 -136 -127 -288q-56 -154 -94 -338q-215 9 -373 10q-252 2 -418 2q-219 0 -543 -2q-202 -1 -489 -10q0 95 28 176q93 12 152 35 q57 22 94 67q37 44 58 123q18 66 41 197l294 1683q15 94 15 153v11q-1 59 -27 96q-23 34 -76 49q-51 15 -129 27q-9 47 -10 84q-1 43 6 92q250 -9 394 -10q240 -2 290 -2q152 0 498 2q204 1 580 10q-22 -162 -29 -340q-4 -92 -4 -173.5t4 -153.5q-70 -30 -176 -30 q-14 0 -29 1q-5 134 -22 225q-18 93 -76 156q-57 61 -172 90q-116 29 -312 29h-294zM1667 3826q95 26 188 26q22 0 45 -2q109 -7 189 -61q-150 -141 -328 -338q-170 -187 -328 -399q-90 7 -147 57q129 203 233 399q95 179 148 318z" />
<glyph unicode="&#xca;" horiz-adv-x="2248" d="M1544 3781q17 3 35 3l121 -32q101 -157 196 -287q99 -135 213 -274q-12 -41 -47 -74q-34 -33 -76 -45q-113 94 -235 178q-132 91 -248 154q-145 -73 -287 -158q-144 -87 -274 -182q-25 39 -35 88q-6 27 -6 54q0 21 4 42q180 128 332 256q170 142 307 277zM991 1491h168 q133 0 217 14q94 16 152 51q62 38 96 103q34 66 51 168q61 9 97 10q43 1 100 -6l-45 -199q-18 -83 -41 -256q-20 -137 -31 -258q-11 -111 -18 -213q-50 7 -105 19q-48 11 -84 34q3 33 3 63q0 154 -72 214q-85 72 -336 72h-185l-122 -721q-21 -130 -21 -209q0 -77 33 -121 q32 -42 102 -57q69 -15 185 -15h16q186 0 311 35q124 35 207 100q86 68 146 164q56 91 122 222q57 -7 103 -29q43 -20 82 -62q-72 -136 -127 -288q-56 -154 -94 -338q-215 9 -373 10q-252 2 -418 2q-219 0 -543 -2q-202 -1 -489 -10q0 95 28 176q93 12 152 35q57 22 94 67 q37 44 58 123q18 66 41 197l294 1683q15 94 15 153v11q-1 59 -27 96q-23 34 -76 49q-51 15 -129 27q-9 47 -10 84q-1 43 6 92q250 -9 394 -10q240 -2 290 -2q152 0 498 2q204 1 580 10q-22 -162 -29 -340q-4 -92 -4 -173.5t4 -153.5q-70 -30 -176 -30q-14 0 -29 1 q-5 134 -22 225q-18 93 -76 156q-57 61 -172 90q-116 29 -312 29h-294z" />
<glyph unicode="&#xcb;" horiz-adv-x="2248" d="M987 3334q33 180 225 180q108 0 154 -67q32 -47 32 -112q0 -29 -6 -62q-52 -201 -229 -201q-103 0 -152 72q-32 47 -32 115q0 34 8 75zM2031 3285q-22 -105 -80 -156q-61 -53 -153 -53q-102 0 -152 68q-35 48 -35 117q0 28 6 61q33 192 238 192q99 0 148 -61 q34 -43 34 -108q0 -28 -6 -60zM991 1491h168q133 0 217 14q94 16 152 51q62 38 96 103q34 66 51 168q61 9 97 10q43 1 100 -6l-45 -199q-18 -83 -41 -256q-20 -137 -31 -258q-11 -111 -18 -213q-50 7 -105 19q-48 11 -84 34q3 33 3 63q0 154 -72 214q-85 72 -336 72h-185 l-122 -721q-21 -130 -21 -209q0 -77 33 -121q32 -42 102 -57q69 -15 185 -15h16q186 0 311 35q124 35 207 100q86 68 146 164q56 91 122 222q57 -7 103 -29q43 -20 82 -62q-72 -136 -127 -288q-56 -154 -94 -338q-215 9 -373 10q-252 2 -418 2q-219 0 -543 -2 q-202 -1 -489 -10q0 95 28 176q93 12 152 35q57 22 94 67q37 44 58 123q18 66 41 197l294 1683q15 94 15 153v11q-1 59 -27 96q-23 34 -76 49q-51 15 -129 27q-9 47 -10 84q-1 43 6 92q250 -9 394 -10q240 -2 290 -2q152 0 498 2q204 1 580 10q-22 -162 -29 -340 q-4 -92 -4 -173.5t4 -153.5q-70 -30 -176 -30q-14 0 -29 1q-5 134 -22 225q-18 93 -76 156q-57 61 -172 90q-116 29 -312 29h-294z" />
<glyph unicode="&#xcc;" horiz-adv-x="1462" d="M561 3777q78 31 186 36q13 1 26 1q91 0 173 -29q26 -159 70 -342q40 -169 110 -355q-24 -10 -59 -10h-10q-39 1 -74 19q-71 143 -193 346q-110 183 -229 334zM774 2249q13 80 13 138q0 16 -1 30q-4 66 -32 102q-28 37 -84 55q-60 20 -142 31q-9 47 -10 84q-1 43 6 92 q225 -12 492 -12q254 0 500 12q-3 -36 -11 -92q-6 -46 -26 -84q-79 -12 -131 -33q-55 -22 -88 -59q-36 -41 -60 -103q-25 -66 -41 -161l-299 -1729q-18 -88 -18 -157v-11q1 -64 30 -102q28 -37 84 -55q60 -20 146 -31q13 -50 13 -105q0 -34 -5 -71q-246 12 -496 12 q-74 0 -254 -2q-118 -1 -241 -10q0 102 33 176q79 7 137 26q54 18 90 58q34 39 55 104q18 57 41 168z" />
<glyph unicode="&#xcd;" horiz-adv-x="1462" d="M1282 3826q95 26 188 26q22 0 45 -2q109 -7 189 -61q-150 -141 -328 -338q-170 -187 -328 -399q-90 7 -147 57q129 203 233 399q95 179 148 318zM774 2249q13 80 13 138q0 16 -1 30q-4 66 -32 102q-28 37 -84 55q-60 20 -142 31q-9 47 -10 84q-1 43 6 92q225 -12 492 -12 q254 0 500 12q-3 -36 -11 -92q-6 -46 -26 -84q-79 -12 -131 -33q-55 -22 -88 -59q-36 -41 -60 -103q-25 -66 -41 -161l-299 -1729q-18 -88 -18 -157v-11q1 -64 30 -102q28 -37 84 -55q60 -20 146 -31q13 -50 13 -105q0 -34 -5 -71q-246 12 -496 12q-74 0 -254 -2 q-118 -1 -241 -10q0 102 33 176q79 7 137 26q54 18 90 58q34 39 55 104q18 57 41 168z" />
<glyph unicode="&#xce;" horiz-adv-x="1462" d="M1159 3781q17 3 35 3l121 -32q101 -157 196 -287q99 -135 213 -274q-12 -41 -47 -74q-34 -33 -76 -45q-113 94 -235 178q-132 91 -248 154q-145 -73 -287 -158q-144 -87 -274 -182q-25 39 -35 88q-6 27 -6 54q0 21 4 42q180 128 332 256q170 142 307 277zM774 2249 q13 80 13 138q0 16 -1 30q-4 66 -32 102q-28 37 -84 55q-60 20 -142 31q-9 47 -10 84q-1 43 6 92q225 -12 492 -12q254 0 500 12q-3 -36 -11 -92q-6 -46 -26 -84q-79 -12 -131 -33q-55 -22 -88 -59q-36 -41 -60 -103q-25 -66 -41 -161l-299 -1729q-18 -88 -18 -157v-11 q1 -64 30 -102q28 -37 84 -55q60 -20 146 -31q13 -50 13 -105q0 -34 -5 -71q-246 12 -496 12q-74 0 -254 -2q-118 -1 -241 -10q0 102 33 176q79 7 137 26q54 18 90 58q34 39 55 104q18 57 41 168z" />
<glyph unicode="&#xcf;" horiz-adv-x="1462" d="M607 3334q33 180 225 180q108 0 154 -67q32 -47 32 -112q0 -29 -6 -62q-52 -201 -229 -201q-103 0 -152 72q-32 47 -32 115q0 34 8 75zM1651 3285q-22 -105 -80 -156q-61 -53 -153 -53q-102 0 -152 68q-35 48 -35 117q0 28 6 61q33 192 238 192q99 0 148 -61 q34 -43 34 -108q0 -28 -6 -60zM774 2249q13 80 13 138q0 16 -1 30q-4 66 -32 102q-28 37 -84 55q-60 20 -142 31q-9 47 -10 84q-1 43 6 92q225 -12 492 -12q254 0 500 12q-3 -36 -11 -92q-6 -46 -26 -84q-79 -12 -131 -33q-55 -22 -88 -59q-36 -41 -60 -103 q-25 -66 -41 -161l-299 -1729q-18 -88 -18 -157v-11q1 -64 30 -102q28 -37 84 -55q60 -20 146 -31q13 -50 13 -105q0 -34 -5 -71q-246 12 -496 12q-74 0 -254 -2q-118 -1 -241 -10q0 102 33 176q79 7 137 26q54 18 90 58q34 39 55 104q18 57 41 168z" />
<glyph unicode="&#xd0;" horiz-adv-x="2969" d="M778 2269q12 72 12 127q0 21 -2 39q-6 64 -36 98q-31 36 -86 52t-134 24q-13 47 -14 88q-2 43 6 84q151 -9 285 -10q204 -2 281 -2q132 0 262 6t254 6q184 0 368 -24q182 -24 348 -86q164 -62 299 -168q137 -108 222 -269q86 -163 110 -387q7 -67 7 -140q0 -174 -40 -384 q-61 -339 -215 -588q-152 -246 -385 -411t-528 -244q-299 -80 -649 -80h-13h-241q-86 0 -266 -2l-269 -4q-134 -2 -252 -6q7 97 33 176q88 12 150 35q58 22 96 67q36 43 59 123q21 73 43 197l119 667q-59 0 -149 -2q-68 -2 -125 -6q5 112 45 185h258zM864 545 q-20 -109 -20 -185q0 -69 30 -108q29 -37 99 -53q67 -15 186 -15q248 0 469 62q220 62 391 194q172 133 295 342q123 208 180 508q42 220 42 396q0 130 -23 237q-56 253 -199 404q-145 153 -356 215q-213 63 -455 63q-77 0 -151 -8q-65 -7 -140 -25l-196 -1142h270 q1 -17 1 -33q0 -77 -30 -140h-270z" />
<glyph unicode="&#xd1;" horiz-adv-x="2924" d="M782 2462q-44 77 -98 106q-55 30 -152 37q-13 44 -13 101q0 35 5 75q72 -9 119 -10q76 -2 127 -2q176 0 283 12l647 -1075l618 -1088l246 1426q25 163 29 262q1 14 1 27q0 83 -24 137q-27 62 -82 90q-56 29 -145 45q-9 47 -10 84q-1 43 6 92q105 -9 190 -10 q134 -2 183 -2q56 0 204 2q97 1 193 10q0 -33 -8 -86q-7 -46 -25 -90q-73 -22 -117 -55q-47 -35 -82 -103q-34 -66 -61 -174q-27 -107 -51 -270l-168 -1012l-180 -1007q-35 -13 -78 -17q-40 -4 -90 -4l-633 1112l-658 1100q-58 -369 -120 -715l-133 -715q-32 -160 -37 -268 q-1 -16 -1 -31q0 -82 21 -139q24 -66 84 -96q62 -31 154 -47q13 -42 13 -99q0 -35 -5 -77q-144 9 -244 10q-162 2 -203 2q-68 0 -174 -2q-53 -1 -215 -10q4 96 29 176q75 11 133 43q55 30 96 92q44 66 72 160q31 104 59 246l158 868l150 868zM1618 3461q75 0 139 -26 t127 -60l117 -59q55 -27 113 -27q82 0 155 39q75 40 144 109q49 -21 73 -82q-69 -106 -131 -176q-66 -74 -114 -111q-51 -39 -103 -55q-50 -15 -94 -15q-69 0 -135 27q-67 28 -127 61q-64 36 -125 62t-129 26q-97 0 -178 -32q-85 -33 -191 -123q-42 28 -42 80q0 9 1 18 q156 200 281 273q123 71 219 71z" />
<glyph unicode="&#xd2;" horiz-adv-x="2953" d="M1274 3777q78 31 186 36q13 1 26 1q91 0 173 -29q26 -159 70 -342q40 -169 110 -355q-24 -10 -59 -10h-10q-39 1 -74 19q-71 143 -193 346q-110 183 -229 334zM1745 2806q296 0 539 -105q245 -106 401 -305q158 -202 215 -500q25 -131 25 -279q0 -189 -41 -405 q-49 -254 -181 -485q-130 -228 -325 -397q-196 -170 -449 -269q-251 -98 -549 -98q-305 0 -549 115q-242 114 -395 321q-154 208 -209 496q-24 126 -24 265q0 176 39 376q50 268 186 498q134 227 336 403q195 170 448 270q250 99 533 99zM1667 2626q-185 0 -348 -84 q-165 -85 -295 -230q-132 -147 -223 -338q-93 -196 -133 -409q-39 -201 -39 -384q0 -84 8 -165q27 -259 127 -453q100 -195 274 -307q175 -113 416 -113q200 0 369 80t297 223t217 336q88 192 129 422q35 190 35 360q0 111 -15 214q-38 264 -147 450q-110 188 -283 293 q-172 105 -389 105z" />
<glyph unicode="&#xd3;" horiz-adv-x="2953" d="M1745 2806q296 0 539 -105q245 -106 401 -305q158 -202 215 -500q25 -131 25 -279q0 -189 -41 -405q-49 -254 -181 -485q-130 -228 -325 -397q-196 -170 -449 -269q-251 -98 -549 -98q-305 0 -549 115q-242 114 -395 321q-154 208 -209 496q-24 126 -24 265q0 176 39 376 q50 268 186 498q134 227 336 403q195 170 448 270q250 99 533 99zM1667 2626q-185 0 -348 -84q-165 -85 -295 -230q-132 -147 -223 -338q-93 -196 -133 -409q-39 -201 -39 -384q0 -84 8 -165q27 -259 127 -453q100 -195 274 -307q175 -113 416 -113q200 0 369 80t297 223 t217 336q88 192 129 422q35 190 35 360q0 111 -15 214q-38 264 -147 450q-110 188 -283 293q-172 105 -389 105zM1995 3826q95 26 188 26q22 0 45 -2q109 -7 189 -61q-150 -141 -328 -338q-170 -187 -328 -399q-90 7 -147 57q129 203 233 399q95 179 148 318z" />
<glyph unicode="&#xd4;" horiz-adv-x="2953" d="M1745 2806q296 0 539 -105q245 -106 401 -305q158 -202 215 -500q25 -131 25 -279q0 -189 -41 -405q-49 -254 -181 -485q-130 -228 -325 -397q-196 -170 -449 -269q-251 -98 -549 -98q-305 0 -549 115q-242 114 -395 321q-154 208 -209 496q-24 126 -24 265q0 176 39 376 q50 268 186 498q134 227 336 403q195 170 448 270q250 99 533 99zM1667 2626q-185 0 -348 -84q-165 -85 -295 -230q-132 -147 -223 -338q-93 -196 -133 -409q-39 -201 -39 -384q0 -84 8 -165q27 -259 127 -453q100 -195 274 -307q175 -113 416 -113q200 0 369 80t297 223 t217 336q88 192 129 422q35 190 35 360q0 111 -15 214q-38 264 -147 450q-110 188 -283 293q-172 105 -389 105zM1872 3781q17 3 35 3l121 -32q101 -157 196 -287q99 -135 213 -274q-12 -41 -47 -74q-34 -33 -76 -45q-113 94 -235 178q-132 91 -248 154q-145 -73 -287 -158 q-144 -87 -274 -182q-25 39 -35 88q-6 27 -6 54q0 21 4 42q180 128 332 256q170 142 307 277z" />
<glyph unicode="&#xd5;" horiz-adv-x="2953" d="M1597 3461q75 0 139 -26t127 -60l117 -59q55 -27 113 -27q82 0 155 39q75 40 144 109q49 -21 73 -82q-69 -106 -131 -176q-66 -74 -114 -111q-51 -39 -103 -55q-50 -15 -94 -15q-69 0 -135 27q-67 28 -127 61q-64 36 -125 62t-129 26q-97 0 -178 -32q-85 -33 -191 -123 q-42 28 -42 80q0 9 1 18q156 200 281 273q123 71 219 71zM1745 2806q296 0 539 -105q245 -106 401 -305q158 -202 215 -500q25 -131 25 -279q0 -189 -41 -405q-49 -254 -181 -485q-130 -228 -325 -397q-196 -170 -449 -269q-251 -98 -549 -98q-305 0 -549 115 q-242 114 -395 321q-154 208 -209 496q-24 126 -24 265q0 176 39 376q50 268 186 498q134 227 336 403q195 170 448 270q250 99 533 99zM1667 2626q-185 0 -348 -84q-165 -85 -295 -230q-132 -147 -223 -338q-93 -196 -133 -409q-39 -201 -39 -384q0 -84 8 -165 q27 -259 127 -453q100 -195 274 -307q175 -113 416 -113q200 0 369 80t297 223t217 336q88 192 129 422q35 190 35 360q0 111 -15 214q-38 264 -147 450q-110 188 -283 293q-172 105 -389 105z" />
<glyph unicode="&#xd6;" horiz-adv-x="2953" d="M1745 2806q296 0 539 -105q245 -106 401 -305q158 -202 215 -500q25 -131 25 -279q0 -189 -41 -405q-49 -254 -181 -485q-130 -228 -325 -397q-196 -170 -449 -269q-251 -98 -549 -98q-305 0 -549 115q-242 114 -395 321q-154 208 -209 496q-24 126 -24 265q0 176 39 376 q50 268 186 498q134 227 336 403q195 170 448 270q250 99 533 99zM1667 2626q-185 0 -348 -84q-165 -85 -295 -230q-132 -147 -223 -338q-93 -196 -133 -409q-39 -201 -39 -384q0 -84 8 -165q27 -259 127 -453q100 -195 274 -307q175 -113 416 -113q200 0 369 80t297 223 t217 336q88 192 129 422q35 190 35 360q0 111 -15 214q-38 264 -147 450q-110 188 -283 293q-172 105 -389 105zM1315 3334q33 180 225 180q108 0 154 -67q32 -47 32 -112q0 -29 -6 -62q-52 -201 -229 -201q-103 0 -152 72q-32 47 -32 115q0 34 8 75zM2359 3285 q-22 -105 -80 -156q-61 -53 -153 -53q-102 0 -152 68q-35 48 -35 117q0 28 6 61q33 192 238 192q99 0 148 -61q34 -43 34 -108q0 -28 -6 -60z" />
<glyph unicode="&#xd7;" horiz-adv-x="2531" d="M2064 1970q62 -17 103 -47q40 -30 74 -88l-455 -393l-557 -496l803 -901q-44 -44 -105 -59q-56 -14 -121 -6l-725 835l-506 -453l-452 -411q-62 7 -123 39q-58 31 -86 67l1028 914l-393 442l-402 442q79 70 209 70l734 -823z" />
<glyph unicode="&#xd8;" horiz-adv-x="2953" d="M467 356q-172 208 -234 508q-28 137 -28 293q0 178 37 379q50 268 186 498q134 227 336 403q195 170 448 270q250 99 533 99q457 0 766 -238l217 238q64 0 119 -25t82 -61l-275 -287q177 -202 244 -506q31 -139 31 -299q0 -194 -45 -416q-49 -254 -181 -485 q-130 -228 -325 -397q-196 -170 -449 -269q-251 -98 -549 -98q-233 0 -428 66q-196 66 -346 188l-225 -254q-65 0 -115 27q-48 26 -69 71zM2277 2318q-113 150 -266 228q-157 80 -344 80q-185 0 -348 -84q-165 -85 -295 -230q-132 -147 -223 -338q-93 -196 -133 -409 q-38 -206 -38 -393q0 -55 3 -109q15 -239 96 -424zM2380 2146l-785 -839l-768 -844q107 -152 263 -236t364 -84q200 0 369 80t297 223t217 336q88 192 129 422q35 188 35 356q0 85 -9 164q-27 239 -112 422z" />
<glyph unicode="&#xd9;" horiz-adv-x="2600" d="M614 2269q18 101 19 156q1 60 -17 98q-18 37 -61 55q-49 20 -109 27q-9 39 -9 90q0 39 5 86q171 -9 240 -10q128 -2 215 -2q96 0 236 2q76 1 256 10q-4 -41 -11 -90q-7 -44 -26 -86q-87 -7 -156 -27q-60 -18 -100 -59q-39 -41 -62 -111q-21 -65 -43 -180l-200 -1163 q-28 -164 -28 -294q0 -56 5 -107q18 -169 90 -277q72 -109 189 -158q116 -49 268 -49q304 0 502 215q199 216 268 613l192 1097q25 136 25 215q0 83 -25 138q-25 54 -79 86q-52 31 -142 61q-9 44 -9 94q0 39 5 82q155 -9 225 -10q126 -2 181 -2h92q28 0 90 2q13 0 47.5 1.5 t54.5 2.5q56 2 125 6q0 -92 -37 -176q-89 -30 -143 -61q-56 -33 -94 -90q-36 -54 -64 -150q-26 -90 -51 -240l-180 -1020q-99 -556 -359 -819q-259 -262 -706 -262q-521 0 -719 287q-136 197 -136 501q0 138 28 298zM1262 3777q78 31 186 36q13 1 26 1q91 0 173 -29 q26 -159 70 -342q40 -169 110 -355q-24 -10 -59 -10h-10q-39 1 -74 19q-71 143 -193 346q-110 183 -229 334z" />
<glyph unicode="&#xda;" horiz-adv-x="2600" d="M614 2269q18 101 19 156q1 60 -17 98q-18 37 -61 55q-49 20 -109 27q-9 39 -9 90q0 39 5 86q171 -9 240 -10q128 -2 215 -2q96 0 236 2q76 1 256 10q-4 -41 -11 -90q-7 -44 -26 -86q-87 -7 -156 -27q-60 -18 -100 -59q-39 -41 -62 -111q-21 -65 -43 -180l-200 -1163 q-28 -164 -28 -294q0 -56 5 -107q18 -169 90 -277q72 -109 189 -158q116 -49 268 -49q304 0 502 215q199 216 268 613l192 1097q25 136 25 215q0 83 -25 138q-25 54 -79 86q-52 31 -142 61q-9 44 -9 94q0 39 5 82q155 -9 225 -10q126 -2 181 -2h92q28 0 90 2q13 0 47.5 1.5 t54.5 2.5q56 2 125 6q0 -92 -37 -176q-89 -30 -143 -61q-56 -33 -94 -90q-36 -54 -64 -150q-26 -90 -51 -240l-180 -1020q-99 -556 -359 -819q-259 -262 -706 -262q-521 0 -719 287q-136 197 -136 501q0 138 28 298zM1983 3826q95 26 188 26q22 0 45 -2q109 -7 189 -61 q-150 -141 -328 -338q-170 -187 -328 -399q-90 7 -147 57q129 203 233 399q95 179 148 318z" />
<glyph unicode="&#xdb;" horiz-adv-x="2600" d="M614 2269q18 101 19 156q1 60 -17 98q-18 37 -61 55q-49 20 -109 27q-9 39 -9 90q0 39 5 86q171 -9 240 -10q128 -2 215 -2q96 0 236 2q76 1 256 10q-4 -41 -11 -90q-7 -44 -26 -86q-87 -7 -156 -27q-60 -18 -100 -59q-39 -41 -62 -111q-21 -65 -43 -180l-200 -1163 q-28 -164 -28 -294q0 -56 5 -107q18 -169 90 -277q72 -109 189 -158q116 -49 268 -49q304 0 502 215q199 216 268 613l192 1097q25 136 25 215q0 83 -25 138q-25 54 -79 86q-52 31 -142 61q-9 44 -9 94q0 39 5 82q155 -9 225 -10q126 -2 181 -2h92q28 0 90 2q13 0 47.5 1.5 t54.5 2.5q56 2 125 6q0 -92 -37 -176q-89 -30 -143 -61q-56 -33 -94 -90q-36 -54 -64 -150q-26 -90 -51 -240l-180 -1020q-99 -556 -359 -819q-259 -262 -706 -262q-521 0 -719 287q-136 197 -136 501q0 138 28 298zM1860 3781q17 3 35 3l121 -32q101 -157 196 -287 q99 -135 213 -274q-12 -41 -47 -74q-34 -33 -76 -45q-113 94 -235 178q-132 91 -248 154q-145 -73 -287 -158q-144 -87 -274 -182q-25 39 -35 88q-6 27 -6 54q0 21 4 42q180 128 332 256q170 142 307 277z" />
<glyph unicode="&#xdc;" horiz-adv-x="2600" d="M1303 3334q33 180 225 180q108 0 154 -67q32 -47 32 -112q0 -29 -6 -62q-52 -201 -229 -201q-103 0 -152 72q-32 47 -32 115q0 34 8 75zM2347 3285q-22 -105 -80 -156q-61 -53 -153 -53q-102 0 -152 68q-35 48 -35 117q0 28 6 61q33 192 238 192q99 0 148 -61 q34 -43 34 -108q0 -28 -6 -60zM614 2269q18 101 19 156q1 60 -17 98q-18 37 -61 55q-49 20 -109 27q-9 39 -9 90q0 39 5 86q171 -9 240 -10q128 -2 215 -2q96 0 236 2q76 1 256 10q-4 -41 -11 -90q-7 -44 -26 -86q-87 -7 -156 -27q-60 -18 -100 -59q-39 -41 -62 -111 q-21 -65 -43 -180l-200 -1163q-28 -164 -28 -294q0 -56 5 -107q18 -169 90 -277q72 -109 189 -158q116 -49 268 -49q304 0 502 215q199 216 268 613l192 1097q25 136 25 215q0 83 -25 138q-25 54 -79 86q-52 31 -142 61q-9 44 -9 94q0 39 5 82q155 -9 225 -10q126 -2 181 -2 h92q28 0 90 2q13 0 47.5 1.5t54.5 2.5q56 2 125 6q0 -92 -37 -176q-89 -30 -143 -61q-56 -33 -94 -90q-36 -54 -64 -150q-26 -90 -51 -240l-180 -1020q-99 -556 -359 -819q-259 -262 -706 -262q-521 0 -719 287q-136 197 -136 501q0 138 28 298z" />
<glyph unicode="&#xdd;" horiz-adv-x="2387" d="M1135 1200l-224 569q-117 289 -190 447q-53 114 -90 186q-37 71 -68 113q-30 40 -61 59q-31 18 -76 35q-9 53 -10 84v13q0 34 6 75q133 -9 229 -10q152 -2 226 -2q83 0 241 2q91 1 275 10q0 -46 -11 -92q-12 -50 -26 -88q-202 -29 -254 -96q-23 -29 -23 -77 q0 -61 39 -151q85 -190 168 -407q89 -233 164 -449l160 217l147 203l125 174l92 131q144 214 144 316v10q-7 100 -197 133q-9 44 -9 94q0 39 5 82q120 -9 188 -10q114 -2 205 -2q70 0 182 2q67 1 183 10q0 -92 -37 -176q-37 -12 -68 -35q-34 -25 -80 -73q-45 -46 -125 -150 q-73 -95 -194 -266l-301 -414l-346 -455l-127 -712q-17 -88 -17 -144t29 -94q27 -36 90 -59q62 -23 172 -39q13 -52 13 -107q0 -34 -5 -69q-152 9 -266 10q-180 2 -258 2q-87 0 -281 -2q-127 -1 -256 -10q0 101 29 180q104 17 166 39q64 23 102 61q40 40 62 105 q21 62 43 168zM1917 3826q95 26 188 26q22 0 45 -2q109 -7 189 -61q-150 -141 -328 -338q-170 -187 -328 -399q-90 7 -147 57q129 203 233 399q95 179 148 318z" />
<glyph unicode="&#xde;" horiz-adv-x="2359" d="M774 2249q13 80 13 138q0 16 -1 30q-4 66 -32 102q-28 37 -84 55q-60 20 -142 31q-9 47 -10 84q-1 43 6 92q225 -12 492 -12q254 0 500 12q-3 -36 -11 -92q-6 -46 -26 -84q-84 -12 -136 -33q-55 -22 -88 -61q-34 -40 -57 -113q-24 -77 -47 -190q95 4 219 4h211 q227 0 385 -64q155 -63 244 -174t117 -256q14 -73 14 -150t-14 -159q-24 -139 -107 -281q-84 -144 -215 -254q-133 -112 -317 -184t-414 -72q-94 0 -166 15q-74 15 -113 47q-9 29 -9 59q0 35 13 72q61 -37 213 -37q113 0 232 29q117 28 215 100q98 71 172 195 q73 122 106 307q14 86 14 161q0 53 -7 103q-18 118 -89 207q-70 87 -190 133q-123 47 -301 47q-71 0 -115 -4q-57 -5 -127 -24l-262 -1508q-18 -88 -18 -157v-11q1 -64 30 -102q28 -37 84 -55q60 -20 146 -31q13 -50 13 -105q0 -34 -5 -71q-246 12 -496 12q-74 0 -254 -2 q-118 -1 -241 -10q0 102 33 176q79 7 137 26q54 18 90 58q34 39 55 104q18 57 41 168z" />
<glyph unicode="&#xdf;" horiz-adv-x="2150" d="M508 1851q38 221 110 412q73 194 197 342q125 150 301 234q180 86 424 86q178 0 287 -52q107 -51 160 -131q54 -81 61 -178q3 -34 3 -66q0 -64 -11 -122q-28 -129 -82 -232q-50 -95 -121 -176q-67 -76 -139 -133l-135 -106q-61 -48 -107 -97q-43 -45 -55 -100 q-7 -33 -7 -64q0 -56 25 -106q38 -74 107 -145q83 -85 147 -144q83 -77 144 -164q63 -90 96 -204q18 -64 18 -143q0 -60 -10 -128q-40 -233 -205 -348t-405 -115q-178 0 -289 49q-112 50 -195 123q86 219 107 455q51 14 88 20q51 9 84 5q-3 -50 -3 -95q0 -175 50 -270 q63 -119 227 -119q105 0 174 54q67 52 88 167q5 29 5 56q0 67 -29 127q-37 77 -111 159q-69 76 -151 154q-80 75 -148 170q-64 89 -100 201q-19 59 -19 128q0 57 13 120q17 91 67 153q54 67 117 117q73 58 141 102q79 51 144 109q73 65 121 135q52 76 73 186q9 48 9 97 q0 36 -5 73q-12 84 -57 150q-44 64 -125 104q-79 39 -194 39q-168 0 -281 -209t-207 -700l-71 -393l-64 -371l-51 -315q-25 -156 -35 -228q-52 -340 -141 -622q-90 -287 -205 -486q-118 -205 -260 -317q-145 -115 -316 -115q-84 0 -174 37q-93 38 -182 111q-1 21 -1 42 q0 42 5 87q7 59 25 116q125 -35 239 -51q98 -14 220 -14q78 0 131 33q54 34 94 133q41 102 78 282q35 172 82 482q20 115 43 288l47 353l53 383l57 385q-147 24 -299 24q0 94 45 160h283v16z" />
<glyph unicode="&#xe0;" horiz-adv-x="1978" d="M1491 602q-30 -150 -37 -188q-12 -71 -8 -107q4 -37 22 -49t52 -12q46 0 94 26q43 24 131 97q27 -27 45 -60t29 -67q-99 -114 -224 -197q-124 -82 -231 -82q-140 0 -203 68q-64 69 -76 166q-4 31 -4 63q0 69 17 146q24 112 61 196h-4q-59 -118 -139 -227 q-86 -117 -178 -205q-98 -94 -205 -150q-108 -57 -223 -57q-206 0 -291 205q-42 101 -42 260q0 167 46 399q51 242 151 437q101 197 248 342q143 141 324 225q177 82 379 82q61 0 121 -10q63 -11 108 -27q57 0 127 8q65 7 107 29q12 -6 30 -25q14 -16 19 -57q4 -36 -4 -115 q-7 -65 -37 -196zM1372 1663q-108 41 -250 41q-126 0 -225 -51q-97 -50 -172 -142t-125 -217q-52 -131 -80 -278q-50 -237 -50 -399q0 -77 11 -136q35 -186 158 -186q52 0 141 74q88 73 183 213q95 141 186 340q94 206 154 454zM729 2884q78 31 186 36q13 1 26 1 q91 0 173 -29q26 -159 70 -342q40 -169 110 -355q-24 -10 -59 -10h-10q-39 1 -74 19q-71 143 -193 346q-110 183 -229 334z" />
<glyph unicode="&#xe1;" horiz-adv-x="1978" d="M1491 602q-30 -150 -37 -188q-12 -71 -8 -107q4 -37 22 -49t52 -12q46 0 94 26q43 24 131 97q27 -27 45 -60t29 -67q-99 -114 -224 -197q-124 -82 -231 -82q-140 0 -203 68q-64 69 -76 166q-4 31 -4 63q0 69 17 146q24 112 61 196h-4q-59 -118 -139 -227 q-86 -117 -178 -205q-98 -94 -205 -150q-108 -57 -223 -57q-206 0 -291 205q-42 101 -42 260q0 167 46 399q51 242 151 437q101 197 248 342q143 141 324 225q177 82 379 82q61 0 121 -10q63 -11 108 -27q57 0 127 8q65 7 107 29q12 -6 30 -25q14 -16 19 -57q4 -36 -4 -115 q-7 -65 -37 -196zM1372 1663q-108 41 -250 41q-126 0 -225 -51q-97 -50 -172 -142t-125 -217q-52 -131 -80 -278q-50 -237 -50 -399q0 -77 11 -136q35 -186 158 -186q52 0 141 74q88 73 183 213q95 141 186 340q94 206 154 454zM1450 2933q95 26 188 26q22 0 45 -2 q109 -7 189 -61q-150 -141 -328 -338q-170 -187 -328 -399q-90 7 -147 57q129 203 233 399q95 179 148 318z" />
<glyph unicode="&#xe2;" horiz-adv-x="1978" d="M1491 602q-30 -150 -37 -188q-12 -71 -8 -107q4 -37 22 -49t52 -12q46 0 94 26q43 24 131 97q27 -27 45 -60t29 -67q-99 -114 -224 -197q-124 -82 -231 -82q-140 0 -203 68q-64 69 -76 166q-4 31 -4 63q0 69 17 146q24 112 61 196h-4q-59 -118 -139 -227 q-86 -117 -178 -205q-98 -94 -205 -150q-108 -57 -223 -57q-206 0 -291 205q-42 101 -42 260q0 167 46 399q51 242 151 437q101 197 248 342q143 141 324 225q177 82 379 82q61 0 121 -10q63 -11 108 -27q57 0 127 8q65 7 107 29q12 -6 30 -25q14 -16 19 -57q4 -36 -4 -115 q-7 -65 -37 -196zM1372 1663q-108 41 -250 41q-126 0 -225 -51q-97 -50 -172 -142t-125 -217q-52 -131 -80 -278q-50 -237 -50 -399q0 -77 11 -136q35 -186 158 -186q52 0 141 74q88 73 183 213q95 141 186 340q94 206 154 454zM1327 2888q17 3 35 3l121 -32 q101 -157 196 -287q99 -135 213 -274q-12 -41 -47 -74q-34 -33 -76 -45q-113 94 -235 178q-132 91 -248 154q-145 -73 -287 -158q-144 -87 -274 -182q-25 39 -35 88q-6 27 -6 54q0 21 4 42q180 128 332 256q170 142 307 277z" />
<glyph unicode="&#xe3;" horiz-adv-x="1978" d="M1491 602q-30 -150 -37 -188q-12 -71 -8 -107q4 -37 22 -49t52 -12q46 0 94 26q43 24 131 97q27 -27 45 -60t29 -67q-99 -114 -224 -197q-124 -82 -231 -82q-140 0 -203 68q-64 69 -76 166q-4 31 -4 63q0 69 17 146q24 112 61 196h-4q-59 -118 -139 -227 q-86 -117 -178 -205q-98 -94 -205 -150q-108 -57 -223 -57q-206 0 -291 205q-42 101 -42 260q0 167 46 399q51 242 151 437q101 197 248 342q143 141 324 225q177 82 379 82q61 0 121 -10q63 -11 108 -27q57 0 127 8q65 7 107 29q12 -6 30 -25q14 -16 19 -57q4 -36 -4 -115 q-7 -65 -37 -196zM1372 1663q-108 41 -250 41q-126 0 -225 -51q-97 -50 -172 -142t-125 -217q-52 -131 -80 -278q-50 -237 -50 -399q0 -77 11 -136q35 -186 158 -186q52 0 141 74q88 73 183 213q95 141 186 340q94 206 154 454zM1053 2568q75 0 139 -26t127 -60l117 -59 q55 -27 113 -27q82 0 155 39q75 40 144 109q49 -21 73 -82q-69 -106 -131 -176q-66 -74 -114 -111q-51 -39 -103 -55q-50 -15 -94 -15q-69 0 -135 27q-67 28 -127 61q-64 36 -125 62t-129 26q-97 0 -178 -32q-85 -33 -191 -123q-42 28 -42 80q0 9 1 18q156 200 281 273 q123 71 219 71z" />
<glyph unicode="&#xe4;" horiz-adv-x="1978" d="M1491 602q-30 -150 -37 -188q-12 -71 -8 -107q4 -37 22 -49t52 -12q46 0 94 26q43 24 131 97q27 -27 45 -60t29 -67q-99 -114 -224 -197q-124 -82 -231 -82q-140 0 -203 68q-64 69 -76 166q-4 31 -4 63q0 69 17 146q24 112 61 196h-4q-59 -118 -139 -227 q-86 -117 -178 -205q-98 -94 -205 -150q-108 -57 -223 -57q-206 0 -291 205q-42 101 -42 260q0 167 46 399q51 242 151 437q101 197 248 342q143 141 324 225q177 82 379 82q61 0 121 -10q63 -11 108 -27q57 0 127 8q65 7 107 29q12 -6 30 -25q14 -16 19 -57q4 -36 -4 -115 q-7 -65 -37 -196zM1372 1663q-108 41 -250 41q-126 0 -225 -51q-97 -50 -172 -142t-125 -217q-52 -131 -80 -278q-50 -237 -50 -399q0 -77 11 -136q35 -186 158 -186q52 0 141 74q88 73 183 213q95 141 186 340q94 206 154 454zM770 2441q33 180 225 180q108 0 154 -67 q32 -47 32 -112q0 -29 -6 -62q-52 -201 -229 -201q-103 0 -152 72q-32 47 -32 115q0 34 8 75zM1814 2392q-22 -105 -80 -156q-61 -53 -153 -53q-102 0 -152 68q-35 48 -35 117q0 28 6 61q33 192 238 192q99 0 148 -61q34 -43 34 -108q0 -28 -6 -60z" />
<glyph unicode="&#xe5;" horiz-adv-x="1978" d="M1491 602q-30 -150 -37 -188q-12 -71 -8 -107q4 -37 22 -49t52 -12q46 0 94 26q43 24 131 97q27 -27 45 -60t29 -67q-99 -114 -224 -197q-124 -82 -231 -82q-140 0 -203 68q-64 69 -76 166q-4 31 -4 63q0 69 17 146q24 112 61 196h-4q-59 -118 -139 -227 q-86 -117 -178 -205q-98 -94 -205 -150q-108 -57 -223 -57q-206 0 -291 205q-42 101 -42 260q0 167 46 399q51 242 151 437q101 197 248 342q143 141 324 225q177 82 379 82q61 0 121 -10q63 -11 108 -27q57 0 127 8q65 7 107 29q12 -6 30 -25q14 -16 19 -57q4 -36 -4 -115 q-7 -65 -37 -196zM1372 1663q-108 41 -250 41q-126 0 -225 -51q-97 -50 -172 -142t-125 -217q-52 -131 -80 -278q-50 -237 -50 -399q0 -77 11 -136q35 -186 158 -186q52 0 141 74q88 73 183 213q95 141 186 340q94 206 154 454zM901 2560q24 155 144 248q119 92 315 92 q191 0 291 -115q73 -85 73 -214q0 -44 -8 -93q-21 -143 -139 -233q-120 -91 -315 -91q-196 0 -295 111q-74 83 -74 207q0 42 8 88zM1118 2540q-6 -31 -6 -59q0 -66 35 -111q50 -64 143 -64q79 0 132 47t65 129q9 46 9 84q0 70 -29 119q-45 76 -144 76q-73 0 -129 -62 q-55 -61 -76 -159z" />
<glyph unicode="&#xe6;" horiz-adv-x="2527" d="M1155 606q-45 -99 -123 -213q-81 -118 -176 -209q-98 -93 -213 -157q-116 -64 -233 -64q-206 0 -291 205q-42 101 -42 260q0 167 46 399q51 242 151 437q101 197 248 342q143 141 324 225q177 82 379 82q61 0 121 -10q63 -11 108 -27q57 0 127 8q65 7 107 29 q23 -7 36 -33q13 -27 9 -90q192 123 372 123q123 0 205 -39q81 -38 125 -102q42 -61 53 -146q4 -32 4 -65q0 -51 -10 -103q-24 -121 -119 -227q-94 -104 -227 -182q-135 -79 -287 -125q-161 -49 -293 -56q-10 -97 -10 -196v-27q1 -102 27 -190q23 -80 78 -133 q54 -52 143 -52q90 0 205 56q117 57 205 161q62 -46 86 -118q-56 -72 -138 -148q-79 -73 -172 -131q-94 -59 -190 -92q-100 -35 -197 -35q-130 0 -219 53q-88 52 -141 142q-54 91 -70 204q-9 66 -9 136q0 52 5 108h-4zM1372 1663q-108 41 -250 41q-126 0 -225 -51 q-97 -50 -172 -142t-125 -217q-52 -131 -80 -278q-50 -237 -50 -399q0 -77 11 -136q35 -186 158 -186q52 0 141 74q88 73 183 215q93 139 186 340q93 202 154 452zM1573 1020q230 17 387 115q157 99 190 270q5 36 5 67q0 15 -1 31q-5 51 -26 92q-22 42 -62 70q-39 27 -96 27 q-118 0 -225 -156q-108 -158 -160 -426z" />
<glyph unicode="&#xe7;" horiz-adv-x="1531" d="M426 -25q-131 29 -203 125q-70 94 -98 228q-21 100 -21 219q0 33 2 69q7 156 41 318q38 190 121 364q86 180 207 314q123 136 281 219q157 82 346 82q119 0 188 -21q72 -22 135 -65q-93 -213 -114 -455q-33 -16 -80 -24q-56 -9 -96 -9q0 197 -56 277t-174 80 q-62 0 -117 -43t-104 -119q-48 -74 -86 -176q-35 -93 -57 -211q-33 -163 -45 -322q-5 -69 -5 -130q0 -81 9 -150q17 -124 71 -199q55 -76 158 -76q118 0 232 64q111 62 190 149q54 -39 86 -114q-118 -155 -281 -258q-165 -104 -305 -136l-164 -200q153 -33 220 -133 q43 -65 43 -165q0 -57 -13 -124q-38 -177 -202 -264q-152 -81 -363 -81q-18 0 -37 1q-9 29 -9 68q0 29 5 63q153 0 248 49q96 49 117 156q5 29 5 54q0 79 -48 126q-62 61 -179 61q-29 24 -41 64q-12 39 0 92z" />
<glyph unicode="&#xe8;" horiz-adv-x="1474" d="M1053 1913q121 0 204 -39q81 -38 125 -102q43 -63 54 -146q4 -32 4 -65q0 -51 -10 -103q-24 -125 -127 -233q-102 -106 -238 -185q-131 -76 -287 -122q-154 -46 -278 -50q-11 -99 -11 -191v-22q1 -101 27 -192q24 -85 78 -139t147 -54q90 0 205 56q117 57 205 161 q62 -46 86 -118q-58 -75 -137 -148t-172 -131t-191 -92q-100 -35 -196 -35q-173 0 -269 84q-97 85 -137 219q-36 119 -36 261q0 21 1 42q6 168 39 336q45 237 144 426q100 190 223 318q124 129 268 196q145 68 279 68zM516 1020q104 5 201 31q102 28 178 75q81 50 133 119 q54 70 70 160q5 36 5 67q0 15 -1 31q-4 48 -27 92q-22 43 -61 70t-96 27q-120 0 -228 -156q-109 -157 -158 -426zM557 2884q78 31 186 36q13 1 26 1q91 0 173 -29q26 -159 70 -342q40 -169 110 -355q-24 -10 -59 -10h-10q-39 1 -74 19q-71 143 -193 346q-110 183 -229 334z " />
<glyph unicode="&#xe9;" horiz-adv-x="1474" d="M1053 1913q121 0 204 -39q81 -38 125 -102q43 -63 54 -146q4 -32 4 -65q0 -51 -10 -103q-24 -125 -127 -233q-102 -106 -238 -185q-131 -76 -287 -122q-154 -46 -278 -50q-11 -99 -11 -191v-22q1 -101 27 -192q24 -85 78 -139t147 -54q90 0 205 56q117 57 205 161 q62 -46 86 -118q-58 -75 -137 -148t-172 -131t-191 -92q-100 -35 -196 -35q-173 0 -269 84q-97 85 -137 219q-36 119 -36 261q0 21 1 42q6 168 39 336q45 237 144 426q100 190 223 318q124 129 268 196q145 68 279 68zM516 1020q104 5 201 31q102 28 178 75q81 50 133 119 q54 70 70 160q5 36 5 67q0 15 -1 31q-4 48 -27 92q-22 43 -61 70t-96 27q-120 0 -228 -156q-109 -157 -158 -426zM1274 2933q95 26 188 26q22 0 45 -2q109 -7 189 -61q-150 -141 -328 -338q-170 -187 -328 -399q-90 7 -147 57q129 203 233 399q95 179 148 318z" />
<glyph unicode="&#xea;" horiz-adv-x="1474" d="M1053 1913q121 0 204 -39q81 -38 125 -102q43 -63 54 -146q4 -32 4 -65q0 -51 -10 -103q-24 -125 -127 -233q-102 -106 -238 -185q-131 -76 -287 -122q-154 -46 -278 -50q-11 -99 -11 -191v-22q1 -101 27 -192q24 -85 78 -139t147 -54q90 0 205 56q117 57 205 161 q62 -46 86 -118q-58 -75 -137 -148t-172 -131t-191 -92q-100 -35 -196 -35q-173 0 -269 84q-97 85 -137 219q-36 119 -36 261q0 21 1 42q6 168 39 336q45 237 144 426q100 190 223 318q124 129 268 196q145 68 279 68zM516 1020q104 5 201 31q102 28 178 75q81 50 133 119 q54 70 70 160q5 36 5 67q0 15 -1 31q-4 48 -27 92q-22 43 -61 70t-96 27q-120 0 -228 -156q-109 -157 -158 -426zM1151 2888q17 3 35 3l121 -32q101 -157 196 -287q99 -135 213 -274q-12 -41 -47 -74q-34 -33 -76 -45q-113 94 -235 178q-132 91 -248 154q-145 -73 -287 -158 q-144 -87 -274 -182q-25 39 -35 88q-6 27 -6 54q0 21 4 42q180 128 332 256q170 142 307 277z" />
<glyph unicode="&#xeb;" horiz-adv-x="1474" d="M1053 1913q121 0 204 -39q81 -38 125 -102q43 -63 54 -146q4 -32 4 -65q0 -51 -10 -103q-24 -125 -127 -233q-102 -106 -238 -185q-131 -76 -287 -122q-154 -46 -278 -50q-11 -99 -11 -191v-22q1 -101 27 -192q24 -85 78 -139t147 -54q90 0 205 56q117 57 205 161 q62 -46 86 -118q-58 -75 -137 -148t-172 -131t-191 -92q-100 -35 -196 -35q-173 0 -269 84q-97 85 -137 219q-36 119 -36 261q0 21 1 42q6 168 39 336q45 237 144 426q100 190 223 318q124 129 268 196q145 68 279 68zM516 1020q104 5 201 31q102 28 178 75q81 50 133 119 q54 70 70 160q5 36 5 67q0 15 -1 31q-4 48 -27 92q-22 43 -61 70t-96 27q-120 0 -228 -156q-109 -157 -158 -426zM598 2441q33 180 225 180q108 0 154 -67q32 -47 32 -112q0 -29 -6 -62q-52 -201 -229 -201q-103 0 -152 72q-32 47 -32 115q0 34 8 75zM1642 2392 q-22 -105 -80 -156q-61 -53 -153 -53q-102 0 -152 68q-35 48 -35 117q0 28 6 61q33 192 238 192q99 0 148 -61q34 -43 34 -108q0 -28 -6 -60z" />
<glyph unicode="&#xec;" d="M328 1143q46 160 63 243q10 48 10 82q0 31 -8 52q-17 45 -71 57q-56 12 -158 12q-1 12 -1 24q0 75 25 132q52 5 115 22q52 14 133 43q55 19 127 52q55 25 96 51q127 -52 154 -178q7 -34 7 -78q0 -116 -50 -301l-225 -791q-30 -104 -41 -162q-12 -65 -8 -96q5 -33 22 -45 q18 -12 47 -12q41 0 97 29q53 27 116 90q62 -41 74 -131q-119 -131 -236 -203t-231 -72q-205 0 -252 162q-18 63 -18 141q0 124 45 287zM209 2884q78 31 186 36q13 1 26 1q91 0 173 -29q26 -159 70 -342q40 -169 110 -355q-24 -10 -59 -10h-10q-39 1 -74 19 q-71 143 -193 346q-110 183 -229 334z" />
<glyph unicode="&#xed;" d="M328 1143q46 160 63 243q10 48 10 82q0 31 -8 52q-17 45 -71 57q-56 12 -158 12q-1 12 -1 24q0 75 25 132q52 5 115 22q52 14 133 43q55 19 127 52q55 25 96 51q127 -52 154 -178q7 -34 7 -78q0 -116 -50 -301l-225 -791q-30 -104 -41 -162q-12 -65 -8 -96q5 -33 22 -45 q18 -12 47 -12q41 0 97 29q53 27 116 90q62 -41 74 -131q-119 -131 -236 -203t-231 -72q-205 0 -252 162q-18 63 -18 141q0 124 45 287zM926 2933q95 26 188 26q22 0 45 -2q109 -7 189 -61q-150 -141 -328 -338q-170 -187 -328 -399q-90 7 -147 57q129 203 233 399 q95 179 148 318z" />
<glyph unicode="&#xee;" d="M328 1143q46 160 63 243q10 48 10 82q0 31 -8 52q-17 45 -71 57q-56 12 -158 12q-1 12 -1 24q0 75 25 132q52 5 115 22q52 14 133 43q55 19 127 52q55 25 96 51q127 -52 154 -178q7 -34 7 -78q0 -116 -50 -301l-225 -791q-30 -104 -41 -162q-12 -65 -8 -96q5 -33 22 -45 q18 -12 47 -12q41 0 97 29q53 27 116 90q62 -41 74 -131q-119 -131 -236 -203t-231 -72q-205 0 -252 162q-18 63 -18 141q0 124 45 287zM807 2888q17 3 35 3l121 -32q101 -157 196 -287q99 -135 213 -274q-12 -41 -47 -74q-34 -33 -76 -45q-113 94 -235 178 q-132 91 -248 154q-145 -73 -287 -158q-144 -87 -274 -182q-25 39 -35 88q-6 27 -6 54q0 21 4 42q180 128 332 256q170 142 307 277z" />
<glyph unicode="&#xef;" d="M328 1143q46 160 63 243q10 48 10 82q0 31 -8 52q-17 45 -71 57q-56 12 -158 12q-1 12 -1 24q0 75 25 132q52 5 115 22q52 14 133 43q55 19 127 52q55 25 96 51q127 -52 154 -178q7 -34 7 -78q0 -116 -50 -301l-225 -791q-30 -104 -41 -162q-12 -65 -8 -96q5 -33 22 -45 q18 -12 47 -12q41 0 97 29q53 27 116 90q62 -41 74 -131q-119 -131 -236 -203t-231 -72q-205 0 -252 162q-18 63 -18 141q0 124 45 287zM250 2441q33 180 225 180q108 0 154 -67q32 -47 32 -112q0 -29 -6 -62q-52 -201 -229 -201q-103 0 -152 72q-32 47 -32 115q0 34 8 75z M1294 2392q-22 -105 -80 -156q-61 -53 -153 -53q-102 0 -152 68q-35 48 -35 117q0 28 6 61q33 192 238 192q99 0 148 -61q34 -43 34 -108q0 -28 -6 -60z" />
<glyph unicode="&#xf0;" horiz-adv-x="1789" d="M1774 2982q15 -52 20 -115q1 -18 1 -34q0 -32 -5 -56l-184 -86q-96 -43 -205 -102q133 -154 211 -320q75 -161 106 -334q24 -138 24 -278q0 -34 -1 -68q-7 -175 -45 -360q-52 -270 -174 -504q-121 -233 -283 -401q-165 -171 -350 -265q-189 -96 -373 -96q-103 0 -194 49 q-94 51 -150 156q-58 109 -76 268q-5 46 -5 98q0 129 32 293q51 242 151 437q101 197 248 342q143 141 324 225q177 82 379 82q36 0 71 -4q26 -3 76 -13q-7 160 -49 310q-40 143 -131 280l-258 -135l-270 -143q-20 55 -25 112q-4 52 4 93l434 217q-130 156 -364 307 q17 34 49 63q36 32 65 43q259 -152 443 -315zM754 246q72 0 149 51q76 50 148 162q71 110 133 289q59 173 110 436q28 129 45 250q19 133 25 229q-100 41 -242 41q-126 0 -225 -51q-97 -50 -172 -142t-125 -217q-52 -131 -80 -278q-41 -189 -41 -335q0 -132 33 -230 q69 -205 242 -205z" />
<glyph unicode="&#xf1;" horiz-adv-x="2121" d="M1675 627l-49 -217q-17 -78 -18 -115q-2 -38 12 -45q16 -8 39 -8q45 0 113 39q66 38 116 88q58 -57 74 -131q-134 -139 -248 -207q-113 -68 -223 -68q-123 0 -180 45t-72 131q-6 36 -6 78q0 59 12 131q25 147 53 275l111 487q37 153 43 256q2 32 2 59q0 61 -10 99 q-15 58 -49 80t-80 22q-61 0 -162 -80q-102 -80 -203 -225q-103 -146 -192 -346q-90 -201 -135 -443l-103 -532h-373l226 1192q28 165 33 223q8 81 -13 119q-21 40 -76 47q-59 8 -153 8q0 32 2 84q2 40 22 72q51 5 125 22q53 13 158 43q69 20 156 52q72 26 118 51 q95 -31 95 -171q0 -43 -9 -95q-35 -184 -71 -293q-39 -117 -84 -219h4l65 139q48 96 140 211t202 209q111 95 234 157q122 62 227 62q66 0 133 -33q68 -33 113 -119q45 -85 51 -239q1 -15 1 -30q0 -148 -52 -366zM1094 2568q75 0 139 -26t127 -60l117 -59q55 -27 113 -27 q82 0 155 39q75 40 144 109q49 -21 73 -82q-69 -106 -131 -176q-66 -74 -114 -111q-51 -39 -103 -55q-50 -15 -94 -15q-69 0 -135 27q-67 28 -127 61q-64 36 -125 62t-129 26q-97 0 -178 -32q-85 -33 -191 -123q-42 28 -42 80q0 9 1 18q156 200 281 273q123 71 219 71z" />
<glyph unicode="&#xf2;" horiz-adv-x="1863" d="M1114 1913q175 0 309 -68t213 -194q81 -130 103 -303q8 -60 8 -126q0 -123 -27 -264q-40 -220 -133 -407q-90 -181 -221 -313q-130 -131 -291 -203q-162 -72 -342 -72q-176 0 -305 66q-131 67 -209 186q-79 121 -102 291q-8 61 -8 126q0 117 26 249q45 231 137 424 q90 186 222 325q130 136 286 209q159 74 334 74zM1061 1712q-95 0 -178 -55q-84 -56 -158 -158q-73 -102 -129 -246q-55 -142 -88 -319q-34 -176 -34 -317t34 -248q69 -213 254 -213q94 0 182 55t162 156q76 103 131 239q57 140 90 312q32 171 32 309q0 152 -38 266 q-72 219 -260 219zM655 2884q78 31 186 36q13 1 26 1q91 0 173 -29q26 -159 70 -342q40 -169 110 -355q-24 -10 -59 -10h-10q-39 1 -74 19q-71 143 -193 346q-110 183 -229 334z" />
<glyph unicode="&#xf3;" horiz-adv-x="1863" d="M1114 1913q175 0 309 -68t213 -194q81 -130 103 -303q8 -60 8 -126q0 -123 -27 -264q-40 -220 -133 -407q-90 -181 -221 -313q-130 -131 -291 -203q-162 -72 -342 -72q-176 0 -305 66q-131 67 -209 186q-79 121 -102 291q-8 61 -8 126q0 117 26 249q45 231 137 424 q90 186 222 325q130 136 286 209q159 74 334 74zM1061 1712q-95 0 -178 -55q-84 -56 -158 -158q-73 -102 -129 -246q-55 -142 -88 -319q-34 -176 -34 -317t34 -248q69 -213 254 -213q94 0 182 55t162 156q76 103 131 239q57 140 90 312q32 171 32 309q0 152 -38 266 q-72 219 -260 219zM1377 2933q95 26 188 26q22 0 45 -2q109 -7 189 -61q-150 -141 -328 -338q-170 -187 -328 -399q-90 7 -147 57q129 203 233 399q95 179 148 318z" />
<glyph unicode="&#xf4;" horiz-adv-x="1863" d="M1114 1913q175 0 309 -68t213 -194q81 -130 103 -303q8 -60 8 -126q0 -123 -27 -264q-40 -220 -133 -407q-90 -181 -221 -313q-130 -131 -291 -203q-162 -72 -342 -72q-176 0 -305 66q-131 67 -209 186q-79 121 -102 291q-8 61 -8 126q0 117 26 249q45 231 137 424 q90 186 222 325q130 136 286 209q159 74 334 74zM1061 1712q-95 0 -178 -55q-84 -56 -158 -158q-73 -102 -129 -246q-55 -142 -88 -319q-34 -176 -34 -317t34 -248q69 -213 254 -213q94 0 182 55t162 156q76 103 131 239q57 140 90 312q32 171 32 309q0 152 -38 266 q-72 219 -260 219zM1253 2888q17 3 35 3l121 -32q101 -157 196 -287q99 -135 213 -274q-12 -41 -47 -74q-34 -33 -76 -45q-113 94 -235 178q-132 91 -248 154q-145 -73 -287 -158q-144 -87 -274 -182q-25 39 -35 88q-6 27 -6 54q0 21 4 42q180 128 332 256q170 142 307 277z " />
<glyph unicode="&#xf5;" horiz-adv-x="1863" d="M1114 1913q175 0 309 -68t213 -194q81 -130 103 -303q8 -60 8 -126q0 -123 -27 -264q-40 -220 -133 -407q-90 -181 -221 -313q-130 -131 -291 -203q-162 -72 -342 -72q-176 0 -305 66q-131 67 -209 186q-79 121 -102 291q-8 61 -8 126q0 117 26 249q45 231 137 424 q90 186 222 325q130 136 286 209q159 74 334 74zM1061 1712q-95 0 -178 -55q-84 -56 -158 -158q-73 -102 -129 -246q-55 -142 -88 -319q-34 -176 -34 -317t34 -248q69 -213 254 -213q94 0 182 55t162 156q76 103 131 239q57 140 90 312q32 171 32 309q0 152 -38 266 q-72 219 -260 219zM979 2568q75 0 139 -26t127 -60l117 -59q55 -27 113 -27q82 0 155 39q75 40 144 109q49 -21 73 -82q-69 -106 -131 -176q-66 -74 -114 -111q-51 -39 -103 -55q-50 -15 -94 -15q-69 0 -135 27q-67 28 -127 61q-64 36 -125 62t-129 26q-97 0 -178 -32 q-85 -33 -191 -123q-42 28 -42 80q0 9 1 18q156 200 281 273q123 71 219 71z" />
<glyph unicode="&#xf6;" horiz-adv-x="1863" d="M1114 1913q175 0 309 -68t213 -194q81 -130 103 -303q8 -60 8 -126q0 -123 -27 -264q-40 -220 -133 -407q-90 -181 -221 -313q-130 -131 -291 -203q-162 -72 -342 -72q-176 0 -305 66q-131 67 -209 186q-79 121 -102 291q-8 61 -8 126q0 117 26 249q45 231 137 424 q90 186 222 325q130 136 286 209q159 74 334 74zM1061 1712q-95 0 -178 -55q-84 -56 -158 -158q-73 -102 -129 -246q-55 -142 -88 -319q-34 -176 -34 -317t34 -248q69 -213 254 -213q94 0 182 55t162 156q76 103 131 239q57 140 90 312q32 171 32 309q0 152 -38 266 q-72 219 -260 219zM701 2441q33 180 225 180q108 0 154 -67q32 -47 32 -112q0 -29 -6 -62q-52 -201 -229 -201q-103 0 -152 72q-32 47 -32 115q0 34 8 75zM1745 2392q-22 -105 -80 -156q-61 -53 -153 -53q-102 0 -152 68q-35 48 -35 117q0 28 6 61q33 192 238 192 q99 0 148 -61q34 -43 34 -108q0 -28 -6 -60z" />
<glyph unicode="&#xf7;" horiz-adv-x="2048" d="M1389 1659q-21 -96 -76 -148q-56 -53 -146 -53q-111 0 -168 72q-39 50 -39 122q0 32 7 68q16 82 80 138q62 55 149 55q94 0 154 -72q44 -53 44 -127q0 -26 -5 -55zM1966 1176q-7 -122 -65 -213h-418q-145 0 -449 -2q-114 -1 -227 -2.5t-227 -2.5q-229 -2 -437 -6 q-1 15 -1 30q0 120 55 196h1769zM1188 430q-21 -95 -76 -147q-57 -54 -145 -54q-111 0 -168 72q-40 51 -40 125q0 31 7 66q16 81 80 137q62 55 149 55q94 0 154 -72q44 -53 44 -127q0 -26 -5 -55z" />
<glyph unicode="&#xf8;" horiz-adv-x="1908" d="M1757 1982q19 2 37 2q95 0 160 -55l-142 -147l-153 -164q91 -165 91 -396q0 -123 -26 -264q-40 -220 -133 -407q-90 -181 -221 -313q-130 -131 -291 -203q-162 -72 -342 -72q-263 0 -418 143l-184 -217q-47 0 -98 23t-78 59l246 275q-91 161 -91 384q0 117 25 251 q45 231 137 424q90 186 222 325q130 136 286 209q159 74 334 74q135 0 244 -41q105 -39 190 -115zM1323 1499q-69 213 -258 213q-95 0 -178 -55q-84 -56 -158 -158q-73 -102 -129 -246q-55 -142 -88 -319q-36 -174 -36 -311q0 -37 3 -70zM1331 918q22 111 29 198 q4 46 4 89.5t-4 84.5l-426 -479l-414 -471q78 -184 246 -184q94 0 182 55t162 156q76 103 131 239q57 140 90 312z" />
<glyph unicode="&#xf9;" horiz-adv-x="2080" d="M1262 618q-51 -105 -129 -217q-76 -109 -183 -213q-98 -95 -217 -161q-116 -64 -233 -64q-143 0 -209 88q-65 87 -80 228q-5 51 -5 106q0 94 15 203q22 158 66 334q59 236 88 381q18 90 18 150q0 27 -4 48q-12 64 -65 76q-52 12 -156 12q-5 27 -5 53q0 13 1 27 q5 46 24 76q48 5 121 22q53 13 158 43q68 20 154 52q71 26 112 51q45 -29 68 -62q17 -25 17 -91q0 -18 -1 -40q-6 -101 -49 -290l-125 -537q-64 -255 -64 -407q0 -220 134 -220q56 0 151 68q96 68 197 207q103 141 194 348q95 216 146 491l94 496h373l-201 -1016 q-40 -192 -65 -340q-20 -118 -25 -184q-4 -61 12 -76q15 -14 53 -14q46 0 89 28q38 25 112 99q28 -24 47 -60q21 -41 31 -71q-101 -116 -223 -197q-124 -82 -236 -82q-188 0 -243 127q-32 74 -32 173q0 72 17 159q21 106 66 196h-8zM676 2884q78 31 186 36q13 1 26 1 q91 0 173 -29q26 -159 70 -342q40 -169 110 -355q-24 -10 -59 -10h-10q-39 1 -74 19q-71 143 -193 346q-110 183 -229 334z" />
<glyph unicode="&#xfa;" horiz-adv-x="2080" d="M1262 618q-51 -105 -129 -217q-76 -109 -183 -213q-98 -95 -217 -161q-116 -64 -233 -64q-143 0 -209 88q-65 87 -80 228q-5 51 -5 106q0 94 15 203q22 158 66 334q59 236 88 381q18 90 18 150q0 27 -4 48q-12 64 -65 76q-52 12 -156 12q-5 27 -5 53q0 13 1 27 q5 46 24 76q48 5 121 22q53 13 158 43q68 20 154 52q71 26 112 51q45 -29 68 -62q17 -25 17 -91q0 -18 -1 -40q-6 -101 -49 -290l-125 -537q-64 -255 -64 -407q0 -220 134 -220q56 0 151 68q96 68 197 207q103 141 194 348q95 216 146 491l94 496h373l-201 -1016 q-40 -192 -65 -340q-20 -118 -25 -184q-4 -61 12 -76q15 -14 53 -14q46 0 89 28q38 25 112 99q28 -24 47 -60q21 -41 31 -71q-101 -116 -223 -197q-124 -82 -236 -82q-188 0 -243 127q-32 74 -32 173q0 72 17 159q21 106 66 196h-8zM1397 2933q95 26 188 26q22 0 45 -2 q109 -7 189 -61q-150 -141 -328 -338q-170 -187 -328 -399q-90 7 -147 57q129 203 233 399q95 179 148 318z" />
<glyph unicode="&#xfb;" horiz-adv-x="2080" d="M1262 618q-51 -105 -129 -217q-76 -109 -183 -213q-98 -95 -217 -161q-116 -64 -233 -64q-143 0 -209 88q-65 87 -80 228q-5 51 -5 106q0 94 15 203q22 158 66 334q59 236 88 381q18 90 18 150q0 27 -4 48q-12 64 -65 76q-52 12 -156 12q-5 27 -5 53q0 13 1 27 q5 46 24 76q48 5 121 22q53 13 158 43q68 20 154 52q71 26 112 51q45 -29 68 -62q17 -25 17 -91q0 -18 -1 -40q-6 -101 -49 -290l-125 -537q-64 -255 -64 -407q0 -220 134 -220q56 0 151 68q96 68 197 207q103 141 194 348q95 216 146 491l94 496h373l-201 -1016 q-40 -192 -65 -340q-20 -118 -25 -184q-4 -61 12 -76q15 -14 53 -14q46 0 89 28q38 25 112 99q28 -24 47 -60q21 -41 31 -71q-101 -116 -223 -197q-124 -82 -236 -82q-188 0 -243 127q-32 74 -32 173q0 72 17 159q21 106 66 196h-8zM1274 2888q17 3 35 3l121 -32 q101 -157 196 -287q99 -135 213 -274q-12 -41 -47 -74q-34 -33 -76 -45q-113 94 -235 178q-132 91 -248 154q-145 -73 -287 -158q-144 -87 -274 -182q-25 39 -35 88q-6 27 -6 54q0 21 4 42q180 128 332 256q170 142 307 277z" />
<glyph unicode="&#xfc;" horiz-adv-x="2080" d="M1262 618q-51 -105 -129 -217q-76 -109 -183 -213q-98 -95 -217 -161q-116 -64 -233 -64q-143 0 -209 88q-65 87 -80 228q-5 51 -5 106q0 94 15 203q22 158 66 334q59 236 88 381q18 90 18 150q0 27 -4 48q-12 64 -65 76q-52 12 -156 12q-5 27 -5 53q0 13 1 27 q5 46 24 76q48 5 121 22q53 13 158 43q68 20 154 52q71 26 112 51q45 -29 68 -62q17 -25 17 -91q0 -18 -1 -40q-6 -101 -49 -290l-125 -537q-64 -255 -64 -407q0 -220 134 -220q56 0 151 68q96 68 197 207q103 141 194 348q95 216 146 491l94 496h373l-201 -1016 q-40 -192 -65 -340q-20 -118 -25 -184q-4 -61 12 -76q15 -14 53 -14q46 0 89 28q38 25 112 99q28 -24 47 -60q21 -41 31 -71q-101 -116 -223 -197q-124 -82 -236 -82q-188 0 -243 127q-32 74 -32 173q0 72 17 159q21 106 66 196h-8zM717 2441q33 180 225 180q108 0 154 -67 q32 -47 32 -112q0 -29 -6 -62q-52 -201 -229 -201q-103 0 -152 72q-32 47 -32 115q0 34 8 75zM1761 2392q-22 -105 -80 -156q-61 -53 -153 -53q-102 0 -152 68q-35 48 -35 117q0 28 6 61q33 192 238 192q99 0 148 -61q34 -43 34 -108q0 -28 -6 -60z" />
<glyph unicode="&#xfd;" horiz-adv-x="1830" d="M1192 2933q95 26 188 26q22 0 45 -2q109 -7 189 -61q-150 -141 -328 -338q-170 -187 -328 -399q-90 7 -147 57q129 203 233 399q95 179 148 318zM483 1913q49 -16 82 -39q33 -22 56 -64t41 -108q15 -56 38 -178q72 -375 109 -672q39 -312 51 -647q271 411 387 698 q117 289 117 461q0 85 -47 143q-46 57 -182 78q-26 55 -26 121q0 15 1 31q60 19 115 39q47 17 116 47q50 21 103 49q50 26 72 45q114 -45 167 -131q54 -88 54 -193q0 -257 -191 -622q-188 -360 -563 -901q-249 -361 -414 -572q-171 -218 -290 -327q-122 -112 -220 -150 q-95 -37 -202 -37q-191 0 -365 148q-4 33 -4 64.5t4 62.5q7 59 29 118q92 -32 205 -49q108 -16 208 -16q62 0 125 18t136 68q71 49 157 141q87 94 201 240q-24 474 -80 889q-55 405 -125 667q-22 76 -39 125q-18 51 -49 82q-30 30 -80 41q-49 10 -127 6q-2 20 -2 38 q0 69 23 118q100 12 223 65q115 50 186 103z" />
<glyph unicode="&#xfe;" horiz-adv-x="1847" d="M639 1171q51 126 133 254q87 135 189 240q107 110 225 180q122 72 248 72q205 0 290 -205q42 -101 42 -260q0 -167 -46 -399q-51 -242 -151 -437q-102 -198 -248 -344q-145 -146 -324 -225q-180 -80 -379 -80q-82 0 -176 21q1 -20 1 -40q0 -126 -25 -263l-123 -689h-373 l561 3191q28 165 33 223q8 81 -14 119q-23 39 -76 47q-63 9 -152 9q0 32 2 84q1 37 23 71q44 4 125 23q61 14 156 43q80 24 153 51q75 28 119 51q95 -31 95 -169q0 -42 -9 -93l-92 -508l-72 -379q-35 -176 -67 -303l-76 -285h8zM471 217q108 -41 250 -41q126 0 225 51 q97 50 172 142q74 90 123 217q49 126 82 278q50 237 50 399q0 77 -11 136q-34 186 -158 186q-52 0 -141 -74q-87 -73 -184 -213q-101 -147 -189 -340q-93 -204 -149 -454z" />
<glyph unicode="&#xff;" horiz-adv-x="1830" d="M516 2441q33 180 225 180q108 0 154 -67q32 -47 32 -112q0 -29 -6 -62q-52 -201 -229 -201q-103 0 -152 72q-32 47 -32 115q0 34 8 75zM1560 2392q-22 -105 -80 -156q-61 -53 -153 -53q-102 0 -152 68q-35 48 -35 117q0 28 6 61q33 192 238 192q99 0 148 -61 q34 -43 34 -108q0 -28 -6 -60zM483 1913q49 -16 82 -39q33 -22 56 -64t41 -108q15 -56 38 -178q72 -375 109 -672q39 -312 51 -647q271 411 387 698q117 289 117 461q0 85 -47 143q-46 57 -182 78q-26 55 -26 121q0 15 1 31q60 19 115 39q47 17 116 47q50 21 103 49 q50 26 72 45q114 -45 167 -131q54 -88 54 -193q0 -257 -191 -622q-188 -360 -563 -901q-249 -361 -414 -572q-171 -218 -290 -327q-122 -112 -220 -150q-95 -37 -202 -37q-191 0 -365 148q-4 33 -4 64.5t4 62.5q7 59 29 118q92 -32 205 -49q108 -16 208 -16q62 0 125 18 t136 68q71 49 157 141q87 94 201 240q-24 474 -80 889q-55 405 -125 667q-22 76 -39 125q-18 51 -49 82q-30 30 -80 41q-49 10 -127 6q-2 20 -2 38q0 69 23 118q100 12 223 65q115 50 186 103z" />
<glyph unicode="&#x131;" d="M328 1143q46 160 63 243q10 48 10 82q0 31 -8 52q-17 45 -71 57q-56 12 -158 12q-1 12 -1 24q0 75 25 132q52 5 115 22q52 14 133 43q55 19 127 52q55 25 96 51q127 -52 154 -178q7 -34 7 -78q0 -116 -50 -301l-225 -791q-30 -104 -41 -162q-12 -65 -8 -96q5 -33 22 -45 q18 -12 47 -12q41 0 97 29q53 27 116 90q62 -41 74 -131q-119 -131 -236 -203t-231 -72q-205 0 -252 162q-18 63 -18 141q0 124 45 287z" />
<glyph unicode="&#x152;" horiz-adv-x="5201" d="M3944 1491h168q133 0 217 14q94 16 152 51q62 38 96 103q34 66 51 168q61 9 97 10q43 1 100 -6l-45 -199q-18 -83 -41 -256q-20 -137 -31 -258q-11 -111 -18 -213q-50 7 -105 19q-48 11 -84 34q3 33 3 63q0 154 -72 214q-85 72 -336 72h-185l-122 -721q-21 -130 -21 -209 q0 -77 33 -121q32 -42 102 -57q69 -15 185 -15h16q186 0 311 35q124 35 207 100q86 68 146 164q56 91 122 222q57 -7 103 -29q43 -20 82 -62q-72 -136 -127 -288q-56 -154 -94 -338q-215 9 -373 10q-252 2 -418 2q-219 0 -543 -2q-202 -1 -489 -10q0 95 28 176q93 12 152 35 q57 22 94 67q37 44 58 123q18 66 41 197l294 1683q15 94 15 153v11q-1 59 -27 96q-23 34 -76 49q-51 15 -129 27q-9 47 -10 84q-1 43 6 92q250 -9 394 -10q240 -2 290 -2q152 0 498 2q204 1 580 10q-22 -162 -29 -340q-4 -92 -4 -173.5t4 -153.5q-70 -30 -176 -30 q-14 0 -29 1q-5 134 -22 225q-18 93 -76 156q-57 61 -172 90q-116 29 -312 29h-294zM1745 2806q296 0 539 -105q245 -106 401 -305q158 -202 215 -500q25 -131 25 -279q0 -189 -41 -405q-49 -254 -181 -485q-130 -228 -325 -397q-196 -170 -449 -269q-251 -98 -549 -98 q-305 0 -549 115q-242 114 -395 321q-154 208 -209 496q-24 126 -24 265q0 176 39 376q50 268 186 498q134 227 336 403q195 170 448 270q250 99 533 99zM1667 2626q-185 0 -348 -84q-165 -85 -295 -230q-132 -147 -223 -338q-93 -196 -133 -409q-39 -201 -39 -384 q0 -84 8 -165q27 -259 127 -453q100 -195 274 -307q175 -113 416 -113q200 0 369 80t297 223t217 336q88 192 129 422q35 190 35 360q0 111 -15 214q-38 264 -147 450q-110 188 -283 293q-172 105 -389 105z" />
<glyph unicode="&#x153;" horiz-adv-x="3338" d="M2917 1913q121 0 204 -39q81 -38 125 -102q43 -63 54 -146q4 -32 4 -65q0 -51 -10 -103q-24 -125 -127 -233q-102 -106 -238 -185q-131 -76 -287 -122q-154 -46 -278 -50q-11 -99 -11 -191v-22q1 -101 27 -192q24 -85 78 -139t147 -54q90 0 205 56q117 57 205 161 q62 -46 86 -118q-58 -75 -137 -148t-172 -131t-191 -92q-100 -35 -196 -35q-173 0 -269 84q-97 85 -137 219q-36 119 -36 261q0 21 1 42q6 168 39 336q45 237 144 426q100 190 223 318q124 129 268 196q145 68 279 68zM2380 1020q104 5 201 31q102 28 178 75q81 50 133 119 q54 70 70 160q5 36 5 67q0 15 -1 31q-4 48 -27 92q-22 43 -61 70t-96 27q-120 0 -228 -156q-109 -157 -158 -426zM1114 1913q175 0 309 -68t213 -194q81 -130 103 -303q8 -60 8 -126q0 -123 -27 -264q-40 -220 -133 -407q-90 -181 -221 -313q-130 -131 -291 -203 q-162 -72 -342 -72q-176 0 -305 66q-131 67 -209 186q-79 121 -102 291q-8 61 -8 126q0 117 26 249q45 231 137 424q90 186 222 325q130 136 286 209q159 74 334 74zM1061 1712q-95 0 -178 -55q-84 -56 -158 -158q-73 -102 -129 -246q-55 -142 -88 -319q-34 -176 -34 -317 t34 -248q69 -213 254 -213q94 0 182 55t162 156q76 103 131 239q57 140 90 312q32 171 32 309q0 152 -38 266q-72 219 -260 219z" />
<glyph unicode="&#x178;" horiz-adv-x="2387" d="M1114 3313q33 180 225 180q108 0 154 -67q32 -47 32 -112q0 -29 -6 -62q-52 -201 -229 -201q-103 0 -152 72q-32 47 -32 115q0 34 8 75zM2158 3264q-22 -105 -80 -156q-61 -53 -153 -53q-102 0 -152 68q-35 48 -35 117q0 28 6 61q33 192 238 192q99 0 148 -61 q34 -43 34 -108q0 -28 -6 -60zM1135 1200l-224 569q-117 289 -190 447q-53 114 -90 186q-37 71 -68 113q-30 40 -61 59q-31 18 -76 35q-9 53 -10 84v13q0 34 6 75q133 -9 229 -10q152 -2 226 -2q83 0 241 2q91 1 275 10q0 -46 -11 -92q-12 -50 -26 -88q-202 -29 -254 -96 q-23 -29 -23 -77q0 -61 39 -151q85 -190 168 -407q89 -233 164 -449l160 217l147 203l125 174l92 131q144 214 144 316v10q-7 100 -197 133q-9 44 -9 94q0 39 5 82q120 -9 188 -10q114 -2 205 -2q70 0 182 2q67 1 183 10q0 -92 -37 -176q-37 -12 -68 -35q-34 -25 -80 -73 q-45 -46 -125 -150q-73 -95 -194 -266l-301 -414l-346 -455l-127 -712q-17 -88 -17 -144t29 -94q27 -36 90 -59q62 -23 172 -39q13 -52 13 -107q0 -34 -5 -69q-152 9 -266 10q-180 2 -258 2q-87 0 -281 -2q-127 -1 -256 -10q0 101 29 180q104 17 166 39q64 23 102 61 q40 40 62 105q21 62 43 168z" />
<glyph unicode="&#x2c6;" horiz-adv-x="2211" d="M893 2888q17 3 35 3l121 -32q101 -157 196 -287q99 -135 213 -274q-12 -41 -47 -74q-34 -33 -76 -45q-113 94 -235 178q-132 91 -248 154q-145 -73 -287 -158q-144 -87 -274 -182q-25 39 -35 88q-6 27 -6 54q0 21 4 42q180 128 332 256q170 142 307 277z" />
<glyph unicode="&#x2da;" horiz-adv-x="2211" d="M782 2560q24 155 144 248q119 92 315 92q191 0 291 -115q73 -85 73 -214q0 -44 -8 -93q-21 -143 -139 -233q-120 -91 -315 -91q-196 0 -295 111q-74 83 -74 207q0 42 8 88zM999 2540q-6 -31 -6 -59q0 -66 35 -111q50 -64 143 -64q79 0 132 47t65 129q9 46 9 84 q0 70 -29 119q-45 76 -144 76q-73 0 -129 -62q-55 -61 -76 -159z" />
<glyph unicode="&#x2dc;" horiz-adv-x="2211" d="M856 2568q75 0 139 -26t127 -60l117 -59q55 -27 113 -27q82 0 155 39q75 40 144 109q49 -21 73 -82q-69 -106 -131 -176q-66 -74 -114 -111q-51 -39 -103 -55q-50 -15 -94 -15q-69 0 -135 27q-67 28 -127 61q-64 36 -125 62t-129 26q-97 0 -178 -32q-85 -33 -191 -123 q-42 28 -42 80q0 9 1 18q156 200 281 273q123 71 219 71z" />
<glyph unicode="&#x2000;" horiz-adv-x="1925" />
<glyph unicode="&#x2001;" horiz-adv-x="3850" />
<glyph unicode="&#x2002;" horiz-adv-x="1925" />
<glyph unicode="&#x2003;" horiz-adv-x="3850" />
<glyph unicode="&#x2004;" horiz-adv-x="1282" />
<glyph unicode="&#x2005;" horiz-adv-x="962" />
<glyph unicode="&#x2006;" horiz-adv-x="638" />
<glyph unicode="&#x2007;" horiz-adv-x="638" />
<glyph unicode="&#x2008;" horiz-adv-x="479" />
<glyph unicode="&#x2009;" horiz-adv-x="770" />
<glyph unicode="&#x200a;" horiz-adv-x="212" />
<glyph unicode="&#x2010;" horiz-adv-x="1404" d="M1323 1225q-5 -93 -16 -150q-11 -55 -37 -117q-110 0 -492 -2q-222 -1 -643 -10q7 92 23 158q16 68 47 121h1118z" />
<glyph unicode="&#x2011;" horiz-adv-x="1404" d="M1323 1225q-5 -93 -16 -150q-11 -55 -37 -117q-110 0 -492 -2q-222 -1 -643 -10q7 92 23 158q16 68 47 121h1118z" />
<glyph unicode="&#x2013;" horiz-adv-x="2048" d="M1970 1192q-7 -122 -65 -213h-418q-145 0 -449 -2l-454 -4q-229 -2 -437 -6q-1 15 -1 30q0 119 55 195h1769z" />
<glyph unicode="&#x2014;" horiz-adv-x="3944" d="M3867 1188q-12 -131 -74 -217q-305 0 -1507 -2q-441 -1 -2151 -11q12 147 74 230h3658z" />
<glyph unicode="&#x2018;" horiz-adv-x="1007" d="M590 1884q-90 50 -98 164q-2 28 -2 56q0 86 18 169q29 149 123 316q95 168 303 348q48 0 84 -25q34 -24 55 -61q-229 -229 -250 -385q-2 -14 -2 -28q0 -133 187 -181q0 -58 -17 -137q-16 -76 -45 -121q-83 -7 -190 -41q-103 -32 -166 -74z" />
<glyph unicode="&#x2019;" d="M995 2937q92 -50 99 -164q2 -26 2 -52q0 -86 -19 -173q-29 -149 -123 -316q-94 -168 -303 -348q-48 0 -84 25q-34 24 -55 61q229 229 250 385q2 15 2 28q0 133 -186 181q0 63 16 137q16 76 45 121q83 7 190 41q103 32 166 74z" />
<glyph unicode="&#x201a;" horiz-adv-x="778" d="M442 422q92 -50 99 -164q2 -26 2 -52q0 -86 -19 -173q-29 -149 -123 -316q-95 -168 -303 -348q-48 0 -84 25q-34 24 -55 61q229 229 250 385q2 15 2 28q0 133 -186 181q0 63 16 137q16 76 45 121q83 7 190 41q103 32 166 74z" />
<glyph unicode="&#x201c;" horiz-adv-x="1622" d="M590 1884q-90 50 -98 164q-2 28 -2 56q0 86 18 169q29 149 123 316q95 168 303 348q48 0 84 -25q34 -24 55 -61q-212 -212 -239 -367q-3 -19 -3 -37q0 -126 164 -190q0 -63 -16 -137q-16 -76 -45 -121q-83 -7 -184 -41q-96 -32 -160 -74zM1217 1884q-92 50 -99 164 q-2 26 -2 52q0 86 19 173q34 163 114 316q82 159 283 331q50 0 84 -24q33 -23 55 -62q-225 -224 -235 -376q-1 -8 -1 -15q0 -139 187 -186q0 -63 -16 -137q-16 -76 -45 -121q-84 -7 -185 -41q-94 -31 -159 -74z" />
<glyph unicode="&#x201d;" horiz-adv-x="1626" d="M983 2937q90 -50 98 -164q2 -28 2 -56q0 -86 -18 -169q-34 -159 -115 -316q-83 -160 -282 -331q-50 0 -84 24q-35 24 -56 62q226 226 236 376q1 8 1 15q0 139 -187 186q0 63 16 137q16 76 45 121q83 7 184 41q96 32 160 74zM1610 2937q90 -50 98 -164q2 -28 2 -56 q0 -86 -18 -169q-29 -149 -123 -316q-95 -168 -303 -348q-48 0 -84 25t-56 61q213 213 240 367q3 19 3 37q0 126 -165 190q0 58 17 137q16 76 45 121q83 7 184 41q96 32 160 74z" />
<glyph unicode="&#x201e;" horiz-adv-x="1318" d="M430 422q90 -50 98 -164q2 -28 2 -56q0 -86 -18 -169q-34 -159 -115 -316q-83 -160 -282 -331q-49 0 -84 24t-56 62q226 226 236 376q1 8 1 15q0 139 -187 186q0 63 16 137q16 76 45 121q83 7 184 41q96 32 160 74zM1057 422q90 -50 98 -164q2 -28 2 -56q0 -86 -18 -169 q-29 -149 -123 -316q-94 -168 -303 -348q-48 0 -84 25t-56 61q213 213 240 367q3 19 3 37q0 126 -165 190q0 58 17 137q16 76 45 121q83 7 184 41q96 32 160 74z" />
<glyph unicode="&#x2022;" horiz-adv-x="1146" d="M1057 1126q-33 -175 -152 -276q-118 -100 -307 -100q-120 0 -205 45q-88 46 -139 116q-54 74 -70 164q-7 41 -7 84q0 53 11 107q28 142 150 243t317 101q106 0 191 -41q83 -40 135 -109q51 -68 72 -153q11 -47 11 -97q0 -41 -7 -84z" />
<glyph unicode="&#x2026;" horiz-adv-x="2895" d="M451 168q-21 -96 -76 -148q-56 -53 -146 -53q-111 0 -168 72q-39 50 -39 122q0 32 7 68q16 82 80 138q62 55 149 55q94 0 154 -72q44 -53 44 -127q0 -26 -5 -55zM1516 168q-21 -96 -76 -148q-56 -53 -146 -53q-111 0 -168 72q-39 50 -39 122q0 32 7 68q16 82 80 138 q62 55 149 55q94 0 154 -72q44 -53 44 -127q0 -26 -5 -55zM2580 168q-22 -98 -75 -148q-56 -53 -146 -53q-111 0 -168 72q-39 50 -39 122q0 32 7 68q17 83 79 138t150 55q94 0 154 -72q44 -52 44 -126q0 -26 -6 -56z" />
<glyph unicode="&#x202f;" horiz-adv-x="770" />
<glyph unicode="&#x2039;" horiz-adv-x="966" d="M831 1712q47 -5 84 -26q39 -22 56 -52q-61 -61 -121 -129l-137 -153q-79 -89 -131 -154q-62 -76 -99 -129q16 -43 56 -139q33 -79 75 -166l80 -160q31 -60 68 -125q-7 -43 -35 -82q-26 -36 -59 -57q-124 173 -273 352q-128 153 -256 291q0 97 54 160l331 282 q144 124 307 287z" />
<glyph unicode="&#x203a;" d="M123 524l244 244q122 125 227 248l-59 147q-36 89 -78 176l-86 177q-50 98 -80 151q49 39 116 39q17 0 35 -2q109 -151 215 -283q101 -126 232 -270q21 -43 21 -88q0 -35 -13 -72l-173.5 -142l-182.5 -161l-357 -319q-61 61 -61 155z" />
<glyph unicode="&#x2044;" horiz-adv-x="1851" d="M2068 2933q119 -62 140 -168l-584 -711l-545 -674l-540 -682l-572 -735q-47 23 -84 66q-36 42 -43 94z" />
<glyph unicode="&#x205f;" horiz-adv-x="962" />
<glyph unicode="&#x20ac;" horiz-adv-x="2785" d="M545 1667q90 299 254 514q163 215 372 354q206 138 445 205q236 66 469 66q259 0 461 -60q204 -60 407 -182q-56 -148 -84 -291q-30 -151 -51 -327q-58 -23 -121 -23q-49 0 -100 14q16 122 16 218q0 77 -10 137q-23 137 -88 213q-65 75 -168 104q-104 29 -233 29 q-221 0 -408 -74q-185 -73 -330 -203q-143 -128 -248 -307q-103 -175 -161 -387h1093q-7 -122 -65 -213h-516q-306 0 -557 -4l-17 -131q-5 -53 -5 -102q0 -26 1 -50h1081q-7 -122 -65 -213h-487q-283 0 -512 -4q25 -164 83 -295q60 -134 160 -233q100 -98 244 -154 q143 -55 328 -55q225 0 430 63q200 61 389 175q58 -58 65 -156q-242 -173 -487 -252q-248 -80 -508 -80q-256 0 -463 74q-202 72 -348 203q-143 128 -229 309q-87 184 -111 393h-274q-4 28 -4 58t4 61q7 61 36 106h230q0 74 10 148l19 127h-254q-1 16 -1 31q0 119 54 194 h254z" />
<glyph unicode="&#x2122;" horiz-adv-x="5849" d="M5497 2171q-49 -881 -111 -1503q-13 -119 -13 -202q0 -22 1 -42q5 -93 28 -143q24 -51 72 -76q47 -24 117 -41q9 -47 10 -86q2 -52 -2 -90q-109 9 -229 10q-180 2 -271 2q-106 0 -268 -2q-105 -1 -223 -10q0 93 32 176q101 17 162 43q65 28 103 82q39 56 57 143 q20 98 31 223q29 291 59 688q24 311 47 742l-590 -1063l-618 -1038q-43 -18 -82 -19q-54 -2 -86 -2q-119 493 -279 1077q-150 549 -319 1086q-82 -348 -176 -705l-164 -610q-55 -200 -70 -309q-8 -54 -8 -99q0 -50 10 -86q18 -67 78 -100q57 -31 162 -53q9 -53 10 -88 q2 -51 -2 -88q-150 9 -233 10q-142 2 -189 2q-64 0 -186 -2q-64 -1 -236 -10q0 34 7 86q6 48 26 90q83 21 139 55q57 34 101 103q43 67 84 176q41 110 90 280q111 376 203 723q100 377 182 735q26 119 27 179q1 66 -23 106q-24 39 -76 57q-57 20 -133 27q-9 58 -10 90 q-2 41 6 86q112 -9 170 -10q102 -2 145 -2q60 0 150 2q53 1 145 10q181 -581 336 -1147q154 -562 295 -1142l649 1130l625 1159q108 -9 147 -10q76 -2 119 -2q35 0 141 2q67 1 158 10q0 -95 -28 -176q-81 -7 -136 -31q-54 -23 -86 -71q-33 -49 -51 -129q-19 -82 -26 -203z M991 2609q-108 0 -192 -29q-83 -28 -146 -92q-65 -65 -110 -161q-49 -103 -92 -238q-64 0 -111 10q-50 11 -82 47q15 48 43 146q24 85 41 164l35 167q19 97 29 158q199 -9 446 -10q366 -2 582 -2q224 0 604 2q257 1 456 10q-22 -133 -38 -309q-15 -166 -15 -338 q-47 -25 -92 -31q-49 -6 -104 -2q0 133 -19 238q-18 97 -65 158q-45 59 -129 86q-79 26 -209 26h-205l-369 -2109q-16 -83 -16 -146q0 -58 29 -96q27 -36 90 -59q64 -23 172 -35q13 -52 13 -107q0 -34 -5 -69q-152 9 -266 10q-180 2 -258 2q-87 0 -281 -2q-127 -1 -256 -10 q0 101 29 180q97 12 164 33q65 21 104 61q38 39 61 109q21 63 43 170l361 2068h-242z" />
<glyph horiz-adv-x="1499" d="M1368 1364q-33 -174 -149 -303q-119 -132 -347 -295l-108 -80l-135 -102l-146 -117l-139 -115q61 8 109 8h112q95 0 162 -8t121 -8q63 0 119 49q57 49 94 193q40 4 104 -4q58 -7 84 -25q-25 -117 -35 -246q-7 -91 -7 -165q0 -32 1 -60q-21 -45 -61 -72q-39 -26 -115 -26 q-98 0 -219 6t-313 6h-146q-43 0 -127 -2q-63 -2 -133 -4q-71 -2 -160 -6q-23 37 -34 94q-6 30 -6 58q0 23 4 44l180 166l186 160l174 141l144 115q177 136 260 258q83 121 116 274q15 77 15 140q0 73 -21 127q-39 98 -161 98q-151 0 -230 -115q-76 -111 -143 -389 q-45 -4 -111 4q-60 7 -94 29q74 227 86 471q153 97 287 137q130 39 286 39q270 0 406 -125q101 -93 101 -244q0 -50 -11 -106z" />
<glyph horiz-adv-x="1478" d="M1278 680q57 0 98 -41q-11 -22 -24 -66l-25 -86q-14 -51 -20 -88q-2 -14 -6.5 -37.5l-6.5 -33.5h-213l-61 -328h-381l61 324q-238 -4 -407 -9q-224 -6 -268 -8q-36 28 -64 103q-20 54 -20 100q0 14 2 27l624 639l604 663q18 1 36 1q39 0 71 -7q45 -11 78 -27l-209 -1126 h131zM803 885q24 137 47 233q30 129 63 221h-4q-34 -51 -104 -137q-76 -93 -215 -244q-78 -85 -154 -157l-133 -121h463z" />
<glyph horiz-adv-x="1138" d="M676 2314q20 96 22 158q2 61 -20 94q-22 34 -78 45q-53 10 -149 10q-6 29 -6 55q0 61 34 109q162 21 289 56t256 96q59 -22 88 -80q18 -37 18 -88q0 -34 -8 -74l-209 -1069q-15 -77 -20 -141q-5 -55 12 -90t56 -52t104 -24q13 -47 14 -88q1 -43 -6 -88q-174 9 -227 10 q-112 2 -191 2q-76 0 -194 -2q-63 -1 -215 -10q0 38 8 92q7 50 20 80q74 7 117 24q42 16 72 52q28 34 45 88q16 51 33 139z" />
<glyph horiz-adv-x="1277" d="M1405 2499q-24 -119 -127 -228q-101 -107 -246 -157q178 -38 279 -158q71 -84 71 -216q0 -58 -14 -126q-28 -122 -102 -217q-72 -93 -183 -156q-109 -62 -243 -92q-140 -31 -283 -31q-189 0 -285 33t-153 78q0 45 24 96q24 50 58 72q53 -35 125 -58q76 -24 194 -24 q166 0 281 71q116 72 145 220q9 45 9 84q0 100 -60 165q-85 91 -305 91q-21 46 -17 86q5 41 21 86q188 28 276 118q88 89 121 242q9 50 9 92q0 65 -23 111q-39 76 -141 76q-98 0 -168 -97q-71 -98 -136 -342q-49 -7 -110 0q-59 7 -98 29l26 100q15 62 27 121q14 70 20 121 q9 72 9 104q97 63 231 103q138 41 256 41q277 0 418 -103q105 -77 105 -228q0 -50 -11 -107z" />
</font>
</defs>
</svg>
